<?xml version="1.0" encoding="UTF-8" standalone="no"?>
<!-- Created with Inkscape (http://www.inkscape.org/) -->

<svg
   width="210mm"
   height="297mm"
   viewBox="0 0 210 297"
   version="1.1"
   id="svg1"
   xml:space="preserve"
   xmlns="http://www.w3.org/2000/svg"
   xmlns:svg="http://www.w3.org/2000/svg"><defs
     id="defs1" /><g
     id="layer1"><path
       style="fill:#000000"
       d="m 58.244919,265.89642 c -2.33995,-0.68014 -3.19154,-1.28347 -6.35,-4.49881 -3.86772,-3.93737 -5.25834,-4.73312 -9.01701,-5.15976 l -1.27,-0.14416 1.6696,0.59712 c 1.69963,0.60785 3.76803,1.93248 4.67477,2.99379 0.75281,0.88113 2.0423,2.57816 2.56381,3.37408 l 0.46153,0.70438 -1.89085,-0.18212 c -6.61752,-0.6374 -10.18904,-2.16137 -12.11711,-5.17037 -2.24218,-3.4992 -3.36843,-6.70956 -3.91814,-11.16861 -0.32969,-2.67433 -0.0164,-6.4362 0.83178,-9.98737 0.86906,-3.63859 3.05827,-8.33608 5.22492,-11.21133 1.38924,-1.8436 1.41769,-2.16104 0.0614,-0.6855 -4.52394,4.92182 -7.7481,12.26852 -8.23226,18.75837 -0.0793,1.06286 -0.20877,2.56111 -0.28772,3.32946 l -0.14354,1.397 -0.61812,-1.6437 c -1.20717,-3.21012 -1.89737,-7.36774 -2.04864,-12.34062 -0.14522,-4.77369 0.0635,-7.53889 0.9575,-12.68568 l 1.53989,-6.74268 c 0.68328,-2.44071 1.94496,-5.72392 3.12157,-8.12316 0.51198,-1.04399 0.75584,-1.67763 0.54191,-1.4081 -0.67666,0.85252 -2.71729,4.97638 -3.43047,6.93257 -0.79079,2.16902 -2.05738,3.6468 -4.05972,4.73661 -0.70683,0.38471 -1.28515,0.62907 -1.28515,0.54302 0,-0.086 1.53281,-3.265 3.40625,-7.06435 4.6452,-9.4205 5.47297,-12.01503 5.48597,-17.19491 0.009,-3.43531 0.41654,-7.82747 0.83747,-9.017 l 0.35953,-1.016 0.18967,1.143 c 0.21703,1.30789 1.44117,4.60347 2.74203,7.38199 0.96414,2.05931 1.71108,4.10414 1.71108,4.68423 0,0.27137 0.22636,0.21086 0.88608,-0.23684 2.06895,-1.40402 5.22084,-1.46877 8.20075,-0.16847 0.93949,0.40996 2.90832,1.27501 4.37517,1.92233 4.17663,1.84315 6.07535,2.25685 10.44479,2.27572 l 3.71379,0.016 -0.37243,1.27 c -0.8136,2.77442 -2.6001,5.21472 -5.24073,7.15864 -1.64359,1.20994 -1.68003,1.36208 -0.1378,0.57529 4.43796,-2.26408 7.54136,-5.4869 8.52218,-8.85013 0.48444,-1.66115 0.36436,-5.44436 -0.22457,-7.0753 -0.2144,-0.59372 -0.34376,-1.0795 -0.28747,-1.0795 0.37174,0 2.42622,1.54617 3.44698,2.59415 2.86923,2.94572 3.94776,7.59446 4.04887,14.13745 0.01694,1.09595 0.02592,0.0811 0.03434,2.29709 0.550218,-1.73023 0.245897,-0.71818 0.655307,-1.96532 1.92014,-5.84904 1.85357,-11.63807 -0.17704,-15.39547 -0.83465,-1.54441 -2.74202,-3.45693 -4.40534,-4.41725 l -1.25137,-0.72247 1.98175,-0.44141 c 4.40204,-0.9805 9.82903,-0.78785 13.58291,0.48218 6.9846,2.36305 12.498074,8.80721 13.760804,16.08363 0.20153,1.16131 0.44998,2.18998 0.55211,2.28595 0.27427,0.25769 -0.10287,-6.0662 -0.52103,-8.73655 -0.64375,-4.11104 -2.280744,-8.31415 -4.284824,-11.00169 l -0.64332,-0.86272 1.08075,-0.68539 c 1.27917,-0.81122 3.197214,-3.02326 3.847274,-4.43698 1.00835,-2.1929 0.77649,-4.0488 -0.75667,-6.05672 l -0.863814,-1.1313 0.989084,-0.15816 c 0.54399,-0.087 2.28179,0.0126 3.86178,0.22136 3.31089,0.43741 6.23542,0.49282 7.17416,0.13591 0.94999,-0.36119 0.87019,-1.33856 -0.17397,-2.13067 -1.46779,-1.11348 -3.8377,-1.74807 -7.0485,-1.88737 l -2.921,-0.12673 2.159,-0.73082 c 3.80956,-1.28955 6.77993,-1.75583 12.73617,-1.9993 5.87903,-0.24031 7.56745,-0.72781 8.76235,-1.80077 1.31102,-1.15789 2.61893,-2.31887 3.25878,-3.99312 0.70176,-2.05395 1.40769,-6.64728 1.56721,-10.19751 l 0.15407,-3.429 -1.44301,1.397 -1.44301,1.397 0.48955,-1.15018 c 1.16345,-2.73345 1.75572,-7.88764 1.3694,-11.91723 -0.18243,-1.90299 -0.15345,-2.19764 0.25649,-2.60759 0.87421,-0.8742 4.62213,-3.54621 5.83926,-4.16297 0.67031,-0.33967 1.21874,-0.67049 1.21874,-0.73515 0,-0.44336 -4.13541,-2.04574 -6.59664,-2.55604 -1.0437,-0.2164 -1.91044,-0.41582 -1.92608,-0.44315 -0.0156,-0.0273 -0.39869,-1.23427 -0.85122,-2.68209 -1.84269,-5.89541 -5.57426,-11.32264 -10.16036,-14.77729 -2.03888,-1.53586 -5.45715,-3.33048 -7.5167,-3.94632 -0.8382,-0.25063 -1.62845,-0.54456 -1.75612,-0.65317 -0.35499,-0.30199 4.29333,-2.43399 6.55925,-3.00846 3.63407,-0.92132 9.18456,-0.49822 13.12841,1.00074 0.75486,0.2869 1.42961,0.51713 1.49946,0.5116 0.34333,-0.0271 -1.49605,-0.84577 -3.44983,-1.53537 -3.82017,-1.34836 -7.61452,-1.79937 -10.51316,-1.24966 l -1.33232,0.25267 -1.30584,-1.18202 c -1.53712,-1.391362 -3.78969,-2.894372 -5.48842,-3.662102 l -1.21258,-0.54802 1.59842,-3.13055 c 1.72411,-3.37672 2.74439,-6.34739 3.2315,-9.40896 l 0.30745,-1.93233 1.34719,-0.89421 c 0.74095,-0.49181 2.17055,-1.23282 3.17689,-1.64667 1.69717,-0.69796 1.98268,-0.74054 3.94158,-0.5879 9.61833,0.74952 16.02098,6.6018 18.82889,17.21038 0.41693,1.57522 0.87622,3.892742 1.02064,5.150042 0.14442,1.2573 0.33285,2.68605 0.41874,3.175 0.14351,0.81695 0.14298,1.1059 0.37333,0.3175 0.87357,-2.98983 1.30108,-10.266365 1.14905,-13.871152 -0.0742,-0.85766 -0.20028,-2.61578 -0.28019,-3.90692 -0.16149,-2.60922 -1.13706,-6.82845 -2.06297,-8.92209 -0.3324,-0.75163 -0.60437,-1.40776 -0.60437,-1.45809 0,-0.11904 2.4163,0.1003 6.20101,0.56292 8.31443,1.01629 17.21059,3.8494 23.7075,7.54998 0.87312,0.49733 1.5875,0.85118 1.5875,0.78634 0,-0.0648 -1.05728,-0.8131 -2.3495,-1.66281 -4.81584,-3.16666 -11.28977,-5.777 -18.23171,-7.35116 -3.84115,-0.87103 -9.7796,-2.01047 -10.49716,-2.01414 -0.25925,-0.001 -1.3298,-0.8041 -2.379,-1.78393 -12.79074,-11.945173 -34.95133,-11.015316 -32.57747,-10.586672 2.22877,0.402445 1.55624,0.345729 3.302,0.54907 1.97636,0.2302 10.09795,-0.269728 21.47162,6.988972 1.11002,0.74164 3.17502,2.50811 4.5889,3.92549 2.15939,2.16475 2.73605,2.92079 3.60423,4.72536 1.6343,3.39702 2.86769,9.29123 2.83366,13.5417 -0.008,1.00812 -0.0439,0.95943 -0.84762,-1.15278 -2.10674,-5.53646 -5.40084,-9.17122 -10.44696,-11.52733 -3.70029,-1.72772 -5.33012,-2.0256 -10.6889,-1.95354 -4.04059,0.0543 -5.17073,0.17086 -9.398,0.96903 -2.6428,0.49899 -6.0013,1.12937 -7.46332,1.40085 -12.846304,2.38532 -22.527124,2.14537 -31.107924,-0.77106 -1.24859,-0.42437 -2.32824,-0.77158 -2.39923,-0.77158 -0.071,0 0.41545,0.34534 1.08099,0.76741 2.36033,1.49688 7.95023,4.30536 11.03957,5.54652 l 3.13318,1.25876 -1.60918,0.0871 c -2.4481,0.13259 -8.43624,-0.2115 -11.40504,-0.65536 -8.40623,-1.2568 -15.05925,-3.93465 -20.96292,-8.4376 -0.47532,-0.36254 -0.86423,-0.52302 -0.86423,-0.35661 0,0.46278 5.14628,5.42425 8.001,7.71368 2.61374,2.09616 6.84698,4.99805 7.29109,4.99805 0.13777,0 0.55389,0.20978 0.9247,0.46619 0.37082,0.2564 1.13141,0.65056 1.69021,0.87591 1.1879,0.47904 0.93085,0.50661 -1.651,0.17705 -6.80652,-0.86881 -15.032037,-3.998502 -21.082,-8.34932 -4.142659,-2.979184 -5.932696,-5.100826 -8.54669,-7.96533 -1.693449,-1.855739 -3.16126,-3.81729 -4.6817,-6.7106 -0.57484,-1.0939 -1.08242,-2.02778 -1.12795,-2.0753 -0.0455,-0.0475 0.13511,0.75259 0.40143,1.778 0.26631,1.02542 0.48616,1.91968 0.48856,1.98725 -1.987489,-2.403587 -3.941796,-3.788513 -5.88123,-5.710852 l 0.16242,-2.921 c 0.76708,-13.795348 5.84451,-24.356334 14.46868,-30.094661 1.87474,-1.247412 6.16352,-3.340967 6.38679,-3.117696 0.0412,0.04115 -0.76944,1.215696 -1.80131,2.610091 -2.48279,3.355027 -4.79646,7.258866 -5.88611,9.931577 -0.48651,1.193321 -0.83474,2.219506 -0.77383,2.280412 0.0609,0.0609 0.58476,-0.622232 1.16411,-1.518083 4.09337,-6.329495 12.71576,-12.568135 22.20312,-16.064831 2.67351,-0.985359 5.80629,-1.872809 6.61118,-1.872809 0.16277,0 -0.27594,0.376631 -0.97491,0.836957 -6.09372,4.013194 -11.61243,9.2861 -15.73905,15.038043 -2.11964,2.954477 -4.91601,8.581686 -6.1849,12.446 -1.03347,3.14738 -1.9624,7.17388 -1.71265,7.423625 0.0781,0.07815 0.19298,-0.01715 0.25519,-0.21177 0.0622,-0.19462 0.36529,-1.153955 0.67352,-2.131855 0.30824,-0.9779 1.11379,-2.921 1.79012,-4.318 4.91957,-10.161646 14.57971,-19.236329 27.37986,-25.72048 3.649366,-1.848656 8.912654,-3.942307 12.09235,-4.970777 2.84445,-0.920037 7.60192,-2.081864 11.049,-2.698292 2.38922,-0.427253 4.16954,-0.533428 9.779004,-0.583199 6.75699,-0.05995 11.811,0.179363 11.811,0.559268 0,0.106761 -0.6989,0.267162 -1.55312,0.356446 -4.69458,0.49068 -12.80774,2.921901 -18.512884,5.54764 -4.27172,1.966022 -11.21884,5.721614 -12.68216,6.855936 l -1.53353,0.928489 c -0.34467,0.231533 -0.91617,0.683333 -1.27,1.004001 -0.5749,0.521036 -0.47875,0.502535 0.90425,-0.173995 5.602168,-2.520297 9.235082,-3.589338 13.94644,-5.0733 10.267294,-2.79395 18.101184,-3.924521 27.178004,-3.922272 11.92744,0.003 22.61068,2.283529 32.16975,6.867346 3.07419,1.47415 6.17202,3.279655 5.16826,3.012204 -4.47846,-1.193274 -9.77435,-2.168833 -11.811,-2.175711 -0.77786,-0.0026 -0.52381,0.179482 2.032,1.456593 12.43201,6.212154 23.46813,16.012776 31.58663,27.439767 1.76332,2.481915 2.21777,3.104833 3.61007,5.536268 0.23886,0.417133 -0.901,-0.58094 -2.5704,-2.195515 C 172.14299,53.463361 159.43579,46.753879 141.916,42.191749 c -2.17926,-0.567477 -4.01415,-0.97992 -4.07753,-0.916539 -0.0634,0.06338 0.20442,0.194722 0.5951,0.291871 3.23898,0.805423 12.66794,5.246828 18.36333,8.649843 6.97058,4.164947 14.80489,10.030137 20.01441,14.983864 l 4.95915,4.86495 c 5.09563,5.29477 9.29652,10.84727 12.46005,16.46902 0.78562,1.39606 1.42823,2.42476 1.42804,2.286 -7.8e-4,-0.56931 -0.76518,-4.49363 -1.37534,-7.06083 -1.61919,-6.81264 -4.59266,-14.741231 -6.98162,-19.388207 -0.98768,-1.921232 -1.15211,-2.165689 -2.11527,-3.722256 -2.31263,-3.81219 -5.64738,-7.989099 -8.25758,-10.342964 -1.77568,-1.6013 -1.35394,-1.414762 1.24301,0.549792 11.57078,8.753131 21.38807,25.089735 24.47509,40.728165 1.41033,7.1445 1.41114,14.059892 0.003,23.752852 -0.84289,5.80121 -4.3011,19.97372 -6.65403,27.26968 l -1.92034,5.61947 c -0.55495,2.14689 -0.30093,0.9569 -0.94295,4.32989 -0.64202,3.37299 -1.93712,11.87609 -2.34173,16.24411 -0.4224,4.56008 -0.42316,16.88371 -10e-4,20.701 0.57841,5.23358 1.86279,11.51522 2.9862,14.605 0.44843,1.23333 -0.93015,-0.93844 -2.40899,-3.79505 -4.86173,-9.39117 -8.06685,-19.84263 -9.39074,-30.62195 -0.58329,-4.74924 -0.86178,-8.15045 -0.71954,-13.081 0.14537,-5.03933 0.4301,-8.15187 1.31281,-14.351 0.20887,-1.46685 0.40369,-3.90547 0.55069,-5.40974 0.19498,-1.99519 0.40924,-4.78634 0.0106,-4.18286 l -0.80912,2.86157 c -1.9812,6.89773 -4.98261,13.26422 -7.852,16.65539 -0.56954,0.6731 -1.89944,2.2302 -2.95534,3.46022 -6.47715,7.54523 -11.50131,16.09267 -14.52766,24.71539 -0.86042,2.45155 -1.95901,6.66907 -1.98472,7.61941 -0.0157,0.58105 -0.0356,0.592 -0.23203,0.12759 -0.83624,-1.97728 -1.20994,-13.05304 -0.54199,-16.06351 0.22091,-0.99566 0.76129,-2.22411 1.45252,-3.302 2.84214,-4.43204 3.18359,-5.25556 3.66377,-8.83642 0.4561,-3.40127 0.42251,-3.33165 4.36751,-9.05103 2.07368,-3.00637 3.38376,-5.56303 3.91994,-7.64988 0.88374,-3.43953 -0.16555,-8.08302 -3.25537,-14.40616 -1.27307,-2.60527 -1.83163,-3.44971 -3.11276,-4.70592 -1.47539,-1.44668 -1.74022,-1.59185 -4.81277,-2.63827 -2.96847,-1.01098 -3.39761,-1.09371 -4.93042,-0.95058 -3.75057,0.35024 -8.29949,3.49968 -11.17505,7.73705 -0.71884,1.05927 -2.15503,3.87951 -2.03616,3.99839 0.12443,0.12443 2.06369,-0.39165 2.14497,-0.31037 0.0298,0.0298 -0.0533,0.90933 -0.18462,1.95446 -0.50036,3.98081 -0.71404,12.7673 -0.47398,19.48983 0.27721,7.76299 1.09914,15.82357 2.51878,24.70141 2.64377,16.53307 2.52237,22.15939 -0.62269,28.86014 -1.30329,2.77673 -2.70612,4.89426 -4.46181,6.73497 -1.05599,1.10711 -1.2691,1.2431 -1.13916,0.72689 0.2852,-1.13308 0.46282,-10.48096 0.24377,-12.82924 l -0.21304,-2.28376 -0.19999,3.36682 c -0.11527,1.94043 -0.46695,4.54941 -0.8301,6.15816 -0.60966,2.70074 -2.48504,7.97871 -2.93349,8.25587 -0.12102,0.0748 -0.29613,-0.40915 -0.38913,-1.07543 -0.093,-0.66628 -0.37569,-2.01152 -0.62819,-2.98942 l -0.45909,-1.778 -0.032,1.905 c -0.043,2.55992 -0.59248,5.49892 -1.28522,6.87393 -0.70375,1.39684 -1.83035,3.00093 -4.18102,5.95307 -1.00114,1.2573 -2.60907,3.48615 -3.57319,4.953 -2.22868,3.39082 -4.10845,5.77373 -5.50064,6.97295 -1.63659,1.40976 -4.9627,3.56424 -6.64905,4.30692 l -1.48987,0.65615 c 0.38533,-1.38897 0.77025,-2.81791 0.76969,-4.2665 -0.0502,-0.26046 -0.3581,0.13543 -0.78661,1.01128 -1.92983,3.94442 -6.57535,9.03239 -11.374681,12.45802 -2.15663,1.53935 -7.62907,4.4994 -9.04814,4.89415 -0.72554,0.20183 -0.65329,-0.15231 0.5645,-2.76678 2.66646,-5.72458 4.57277,-13.96579 4.8687,-21.04801 l 0.156196,-4.29812 c -0.0463,-1.61162 -0.172176,-3.10829 -0.264156,-1.79356 -0.614092,4.40936 -1.191581,8.87869 -2.37982,13.2715 -2.92301,10.33308 -8.52841,21.47684 -13.02479,25.89378 -0.91641,0.90023 -1.72009,1.58289 -1.78596,1.51703 -0.0659,-0.0659 0.0916,-0.92486 0.34998,-1.9089 1.12174,-4.2726 1.32928,-11.8427 0.4241,-15.46891 -0.39172,-1.56927 -1.9368,-5.80501 -2.06681,-5.66604 -0.0402,0.0429 0.14054,0.91421 0.40154,1.93619 1.08414,4.24497 1.2552,9.6465 0.41975,13.2544 -0.30985,1.33811 -0.40641,1.45592 -2.30738,2.81516 -2.79406,1.99782 -6.68818,4.38053 -8.03732,4.91783 -1.47038,0.58559 -5.06621,0.75127 -6.604,0.30429 z m 10.28518,-14.06933 c -0.56768,-7.82599 -2.59561,-12.02789 -7.75324,-16.06483 l -1.13494,-0.88834 1.34473,1.62249 c 3.38455,4.08364 6.21715,10.35638 7.18411,15.90909 0.15747,0.90425 0.33901,1.64409 0.40343,1.64409 0.0644,0 0.0446,-1.00012 -0.0441,-2.2225 z M 186.34584,91.045088 c -3.31373,-5.32358 -6.56309,-9.58419 -10.6228,-13.92878 l -6.60712,-6.42305 c -7.81844,-6.764745 -14.96049,-11.325422 -23.495,-15.003124 -16.28923,-5.671369 -28.0995,-7.362077 -49.363171,-6.067938 -7.02248,0.78325 -14.26369,2.515634 -20.19495,4.83143 -2.22107,0.867195 -5.65965,2.584122 -4.29223,2.143172 3.64758,-1.176237 10.19152,-2.57198 14.99525,-3.19831 9.790378,-1.276508 17.083921,-1.058932 21.136091,-0.763978 20.54238,1.49526 39.85091,8.023007 56.48212,19.095238 7.72548,5.14324 15.78666,12.2111 20.58144,18.04536 1.69253,2.05945 2.112,2.44538 1.38037,1.27 z M 84.353539,41.485169 c 0.5183,-0.260928 2.01672,-0.896628 3.3298,-1.412667 l 8.78858,-2.784832 c 2.49971,-0.637514 8.645551,-1.666593 12.445991,-2.083999 5.2123,-0.57247 20.08537,-0.576228 20.574,-0.714666 -4.48429,-1.712 -9.48217,-1.784526 -14.224,-1.795966 -5.27414,0.0039 -6.50692,0.08257 -9.144,0.583887 -4.33397,0.823897 -8.237741,2.007524 -13.786441,4.180061 l -6.01921,2.599674 c -1.74974,0.813902 -3.18134,1.57502 -3.18134,1.691373 0,0.303541 0.1603,0.268904 1.21662,-0.262865 z M 64.848919,185.97871 c -1.04775,-0.25856 -2.41935,-0.69507 -3.048,-0.97004 -1.46454,-0.64058 -4.21088,-2.59816 -6.477,-4.61679 -3.73922,-3.33082 -6.55815,-4.75089 -9.94963,-5.01223 -2.05127,-0.15807 -3.86228,0.20035 -4.95932,0.9815 -0.39649,0.28233 -1.18758,1.20055 -1.75797,2.0405 -1.22027,1.79692 -2.25963,2.35505 -4.06296,2.18177 -1.25531,-0.12062 -2.93312,-0.87857 -4.07882,-1.84262 -0.74038,-0.62299 -0.69575,-0.88973 0.14953,-0.89369 0.29104,-10e-4 1.12188,-0.27845 1.84631,-0.61574 1.74153,-0.76396 2.541592,-2.33117 2.90862,-4.08078 -2.59693,5.03251 -8.92477,3.20671 -8.92477,-0.75565 0,-1.05357 0.0554,-1.17865 0.4445,-1.00283 0.24448,0.11048 1.04976,0.24789 1.78952,0.30535 2.55919,0.1988 5.55447,-1.94504 7.55145,-5.40487 0.75806,-1.31336 0.7833,-1.40465 0.18259,-0.66052 -1.40647,1.74226 -2.31079,2.68746 -2.44389,2.55435 -0.19986,-0.19985 1.65762,-4.0895 2.70936,-5.67355 1.03744,-1.56249 3.39137,-3.24864 5.38747,-3.85912 1.60035,-0.48944 5.97068,-0.49568 7.5166,-0.0107 0.61567,0.19314 2.20526,0.77786 3.53241,1.29939 4.00442,1.57362 6.80416,2.19125 10.76969,2.37584 l 3.53069,0.16434 c -2.110597,2.7544 -5.690519,3.59939 -8.96638,4.11921 l -1.651,0.22266 2.286,0.18703 c 1.27859,0.1046 2.90163,0.0797 3.683,-0.0566 1.34244,-0.23407 1.44753,-0.21052 2.69122,0.60306 4.16281,2.72317 8.6749,3.97545 11.65978,3.23604 0.5588,-0.13842 1.21732,-0.33478 1.46338,-0.43634 0.35821,-0.14786 0.414,-0.0904 0.27993,0.28812 -0.79625,2.24825 -4.94721,4.36006 -8.69948,4.42588 -0.87159,0.0153 -0.88584,0.029 -0.28283,0.27148 1.25491,0.50468 6.47399,-0.21566 10.62475,-1.46642 4.4507,-1.34115 7.85076,-3.26315 9.53758,-5.39143 l 0.73133,-0.92273 c -0.332718,7.42131 -4.158944,11.9627 -11.02462,14.63095 -1.89209,0.63391 -5.19496,1.35637 -6.94804,1.5198 -0.56957,0.0531 2.23435,0.69 3.85138,0.87484 l 1.73662,0.1985 -1.46057,0.45819 c -4.21044,1.32086 -8.65894,1.59001 -12.12843,0.73384 z m 105.171811,-0.48117 c 1.02418,-2.11393 3.74179,-13.35335 4.81873,-17.29995 1.15179,-4.22093 1.26602,-8.24767 1.43375,-13.30314 l 0.15865,-5.30215 0.88596,-1.30185 c 0.48729,-0.71602 1.56413,-2.67346 2.39299,-4.34986 0.82886,-1.6764 1.45154,-2.8194 1.38374,-2.54 -0.5751,2.36992 -1.18655,9.06317 -1.34583,14.732 -0.0844,3.94374 -0.23345,5.80085 0.42496,10.74487 0.23447,1.87001 0.20451,2.29301 -0.27845,3.93034 -1.03556,3.51078 -2.77604,6.66242 -5.71231,10.34379 -1.77673,2.22758 -4.52734,5.09964 -4.16219,4.34595 z m -3.34706,-7.94708 c 1.0268,-2.72044 1.68179,-9.67542 1.30438,-13.85046 l -0.28467,-3.14912 1.12615,-1.57414 c 1.29298,-1.80736 5.20333,-6.27315 5.49292,-6.27315 0.5464,0 -1.30348,8.21718 -3.0826,13.69296 -1.16783,3.59433 -4.14694,11.17629 -4.54645,11.57087 z M 39.444689,130.59539 c -0.40104,-0.96819 -1.91457,-2.27715 -3.7114,-3.20975 -1.25793,-0.6529 -1.41396,-0.83066 -1.74425,-1.98705 -0.42577,-1.49071 -0.98953,-4.68426 -0.85132,-4.82248 0.0527,-0.0527 0.37688,0.11626 0.72045,0.37541 0.6226,0.46963 0.62304,0.47314 0.13263,1.06213 l -0.49203,0.59094 0.59115,-0.54413 0.59115,-0.54414 1.30442,0.58902 c 2.13815,0.9655 2.14234,0.9641 2.78312,-0.92763 0.54928,-1.62162 1.99059,-3.87378 2.6518,-4.14366 0.23986,-0.0979 0.22929,0.0456 -0.042,0.57027 -0.79273,1.53297 -1.18151,4.56774 -1.18046,9.21455 5.6e-4,2.5018 -0.0967,4.54872 -0.21617,4.54872 -0.11945,0 -0.36112,-0.34749 -0.53704,-0.7722 z m 46.23223,0.10824 c -5.29478,-0.54668 -8.49451,-1.23349 -14.29936,-3.06931 l -3.75836,-1.18859 -1.57564,0.54384 c -5.60972,1.93626 -7.13449,2.42107 -8.99863,2.86119 -2.39965,0.56655 -2.8169,0.48172 -4.5284,-0.92073 -0.90751,-0.74363 -4.69747,-5.12619 -5.25055,-6.07151 -0.0979,-0.16737 1.77279,-0.22331 5.48169,-0.16391 5.6451,0.0904 9.70908,-0.22026 14.25144,-1.08943 l 1.76919,-0.33853 6.32934,3.13995 c 6.60653,3.27747 7.40087,3.62266 11.97628,5.20439 2.27281,0.78572 2.62224,0.96858 1.87325,0.98025 -0.50642,0.008 -1.24937,0.0571 -1.651,0.10927 -0.40164,0.0522 -1.1303,0.0536 -1.61925,0.003 z M 44.163239,98.081868 c -6.29165,-0.4503 -12.51196,-2.26565 -16.46681,-4.80574 -2.36457,-1.51869 -4.09684,-3.09917 -5.84736,-5.33497 -5.8825,-7.51328 -10.2577,-10.81499 -16.1720501,-12.20411 -1.2707,-0.29846 -1.33454,-0.34608 -0.762,-0.56841 0.34369,-0.13346 2.16794,-0.30138 4.05389,-0.37316 3.8678001,-0.14721 6.6308601,0.24267 9.3939201,1.32551 0.89342,0.35013 1.925058,1.164251 1.70665,0.6366 -2.241331,-5.414819 -2.601183,-11.545186 -2.59877,-17.429329 0.03502,-1.015234 -0.06536,-1.67755 0.26334,-3.941139 0.572953,-3.945643 2.48257,-12.994366 3.4123,-14.43618 0.47644,-0.738844 0.52857,-0.04062 0.16269,2.179024 -0.58215,3.53171 -0.70824,6.569395 -0.40997,9.87673 0.23466,2.601977 1.333622,8.938766 2.073057,10.087855 1.700434,2.642491 5.24529,3.123071 7.336473,8.837039 3.13579,8.56823 8.5799,15.59838 15.49031,20.00313 2.92719,1.8658 9.91511,4.88887 11.3008,4.88887 0.17655,0 0.45476,0.16117 0.61824,0.35815 0.24148,0.29096 0.16392,0.3833 -0.4134,0.49218 -2.56507,0.48375 -9.20298,0.68981 -13.14131,0.40795 z"
       id="path1" /></g></svg>
