<?xml version="1.0" encoding="UTF-8" standalone="no"?>
<!-- Created with Inkscape (http://www.inkscape.org/) -->

<svg
   width="210mm"
   height="297mm"
   viewBox="0 0 210 297"
   version="1.1"
   id="svg1"
   xml:space="preserve"
   inkscape:version="1.3.2 (1:1.3.2+202311252150+091e20ef0f)"
   sodipodi:docname="barbershop-head-03-inkscape.svg"
   xmlns:inkscape="http://www.inkscape.org/namespaces/inkscape"
   xmlns:sodipodi="http://sodipodi.sourceforge.net/DTD/sodipodi-0.dtd"
   xmlns="http://www.w3.org/2000/svg"
   xmlns:svg="http://www.w3.org/2000/svg"><sodipodi:namedview
     id="namedview1"
     pagecolor="#ffffff"
     bordercolor="#666666"
     borderopacity="1.0"
     inkscape:showpageshadow="2"
     inkscape:pageopacity="0.0"
     inkscape:pagecheckerboard="0"
     inkscape:deskcolor="#d1d1d1"
     inkscape:document-units="mm"
     showgrid="false"
     inkscape:zoom="0.66724888"
     inkscape:cx="397.15316"
     inkscape:cy="559.76115"
     inkscape:window-width="1920"
     inkscape:window-height="946"
     inkscape:window-x="0"
     inkscape:window-y="0"
     inkscape:window-maximized="1"
     inkscape:current-layer="layer1" /><defs
     id="defs1" /><g
     inkscape:label="Layer 1"
     inkscape:groupmode="layer"
     id="layer1"><path
       style="fill:#000000;stroke-width:1.0805"
       d="m 113.54044,209.3109 c 0.81794,-0.39892 2.07273,-1.37731 2.78843,-2.17419 1.43065,-1.59296 2.94534,-2.56108 3.97827,-2.54274 0.60126,0.0111 0.59371,0.0555 -0.0745,0.44227 -1.03334,0.5981 -3.16021,2.74784 -3.16021,3.1942 0,0.55806 3.59115,-7.3e-4 5.14858,-0.80113 1.71029,-0.87897 3.6023,-4.58529 3.98521,-7.80677 0.33596,-2.82645 -0.53955,-7.28164 -2.05892,-10.47726 l -1.11486,-2.34482 1.28934,1.52304 c 1.48963,1.75965 2.61084,4.65013 3.13772,8.08912 0.20316,1.326 0.44267,2.48793 0.53224,2.5821 0.0896,0.0942 0.42991,-1.063 0.75631,-2.57144 0.74338,-3.43555 0.75567,-7.29512 0.0358,-11.24938 -0.71973,-3.95356 -0.72065,-3.94642 0.37025,-2.86916 0.51041,0.50402 1.01439,0.82562 1.11996,0.71465 0.10557,-0.11097 -0.63787,-2.0315 -1.65208,-4.26783 -1.88292,-4.15184 -2.60139,-6.58573 -2.61753,-8.86719 -0.008,-1.14927 0.0663,-1.24145 0.71005,-0.87931 1.2627,0.71035 1.43604,0.44224 0.71057,-1.09907 -0.38925,-0.82699 -0.80984,-2.40975 -0.93462,-3.51725 -0.20835,-1.84911 -0.16439,-2.01362 0.53808,-2.01362 1.87094,0 2.57047,-0.92165 1.01167,-1.3329 -0.51121,-0.13486 -0.92947,-0.41395 -0.92947,-0.62019 0,-0.22239 0.37203,-0.1968 0.91424,0.0629 0.73213,0.35064 1.10243,0.30826 1.85895,-0.21278 1.30075,-0.89587 1.25679,-2.03597 -0.0777,-2.01587 -0.5961,0.009 -0.98681,-0.17835 -0.93703,-0.44928 0.047,-0.25558 -0.23096,-0.57023 -0.61762,-0.69923 -0.38666,-0.129 -1.1267,-0.81842 -1.64452,-1.53204 -1.8841,-2.59652 -4.62701,-3.18306 -8.24019,-1.76206 -2.09319,0.82323 -4.67935,0.88966 -6.31361,0.16222 -0.71516,-0.31835 -0.71871,-0.30116 -0.093,0.44995 0.35784,0.42953 0.65063,0.89543 0.65063,1.03535 0,0.67405 -3.3057,1.97471 -5.08497,2.00074 -1.81224,0.0265 -1.89021,0.0684 -1.33369,0.71544 0.32509,0.378 1.23414,0.8898 2.02011,1.13732 2.05691,0.64779 1.48685,0.83887 -1.04896,0.35161 -2.2859,-0.43925 -6.82156,-2.55212 -6.82156,-3.17772 0,-0.20148 -0.16205,-0.36632 -0.360117,-0.36632 -0.198067,0 -0.295694,0.21983 -0.216948,0.48851 0.07875,0.26868 0.240755,0.95857 0.360015,1.5331 0.11926,0.57453 0.64383,1.57799 1.16571,2.22994 0.91488,1.14289 0.9264,1.22139 0.32153,2.19174 -0.79044,1.26807 -0.50732,1.57844 0.95205,1.04369 1.48942,-0.54577 2.66092,-0.16109 1.45348,0.47728 -1.17287,0.62009 -1.30953,1.35417 -0.211,1.13344 1.2333,-0.24783 1.41737,0.50718 0.98917,4.05721 -0.38964,3.23034 -1.14173,4.95986 -2.58724,5.94961 l -0.92177,0.63115 0.90301,-1.34226 c 1.09394,-1.62606 1.5573,-5.75159 0.70939,-6.31612 -1.39798,-0.93075 -6.540555,0.0716 -9.730298,1.89639 -1.010757,0.57826 -2.754878,2.11127 -3.87582,3.40668 -1.961483,2.2668 -2.016507,2.3004 -1.463951,0.89411 1.407631,-3.5825 3.73934,-6.16528 6.946515,-7.69449 1.055168,-0.5031 1.383561,-0.79581 0.89896,-0.80126 -1.492418,-0.0167 -4.49129,-1.92544 -5.200647,-3.31 -0.608318,-1.18734 -0.626129,-1.45792 -0.160424,-2.43667 0.288134,-0.60555 0.593745,-1.26041 0.679132,-1.45523 0.09011,-0.20559 -0.966824,-0.25535 -2.518965,-0.11857 -2.85725,0.25179 -3.746957,0.0906 -3.746957,-0.67871 0,-0.58238 1.301631,-1.24341 3.176337,-1.6131 0.921018,-0.18163 1.211777,-0.37205 0.869641,-0.56956 -0.737135,-0.42557 -5.55256,-1.1601 -7.605311,-1.1601 -3.218535,0 -4.981097,-1.91324 -5.53673,-6.01005 l -0.258583,-1.90659 1.006446,0.26553 c 0.870136,0.22955 0.967821,0.1702 0.721263,-0.43825 -0.919405,-2.26881 -1.330929,-4.82878 -1.159788,-7.21474 l 0.186708,-2.60294 -2.206314,-2.2121 c -1.213473,-1.21666 -2.206313,-2.27493 -2.206313,-2.35171 0,-0.0768 0.912829,-0.25949 2.028511,-0.40602 l 2.028522,-0.2664 0.619794,-2.00886 c 1.012233,-3.28081 3.117773,-7.18132 5.03571,-9.32867 0.98814,-1.10633 1.702226,-2.11025 1.586857,-2.23091 -0.11537,-0.12066 -2.244844,-0.20706 -4.732157,-0.19199 -3.334495,0.0202 -5.391536,0.2529 -7.831265,0.88589 -1.819873,0.47218 -3.378991,0.78478 -3.464704,0.69468 -0.228811,-0.2405 3.748158,-1.7576 6.959475,-2.65482 1.808627,-0.50532 4.568761,-0.85451 7.855146,-0.99377 l 5.066726,-0.2147 -0.82348,-1.27553 c -0.749339,-1.16068 -1.264756,-2.34089 -1.821854,-4.17166 -0.280968,-0.92335 -3.470152,-2.54872 -6.87314,-3.5029 -3.982207,-1.11661 -11.031937,-1.12706 -14.928895,-0.0222 -1.533624,0.43483 -2.84688,0.73264 -2.918334,0.66179 -0.07145,-0.0708 0.708417,-0.57537 1.733043,-1.12114 2.791087,-1.48669 6.866574,-2.5446 10.837125,-2.81311 1.950692,-0.13191 4.220671,-0.46926 5.044404,-0.74966 3.181396,-1.08298 9.914263,-1.76729 14.396324,-1.46321 3.656428,0.24807 4.427413,0.88528 1.071124,0.88528 -2.383877,0 -7.444005,0.84539 -10.087031,1.68523 l -1.673055,0.53163 1.487169,0.67607 c 3.893491,1.76999 9.732807,2.38383 14.067478,1.47879 2.724538,-0.56885 1.51721,0.21797 -1.440429,0.93875 -3.753533,0.91473 -3.850344,0.96151 -2.837827,1.37134 0.476444,0.19284 2.567767,0.73091 4.647372,1.19571 3.004745,0.67156 5.07886,0.84831 10.10154,0.86079 5.92332,0.0147 6.49383,-0.0496 9.0805,-1.02362 3.21077,-1.20902 2.9088,-0.60187 -0.72394,1.45556 l -2.40793,1.36373 1.89243,0.009 c 2.50588,0.0117 7.18155,-1.27291 9.53653,-2.62021 1.04109,-0.59561 2.86898,-2.09314 4.06198,-3.32783 1.19299,-1.2347 2.16908,-2.06434 2.16908,-1.84366 0,0.71374 -1.92094,4.41024 -3.07904,5.92505 -2.28747,2.99202 -6.72876,5.39523 -11.17607,6.04741 l -1.91775,0.28122 1.48716,0.29116 c 2.53899,0.49708 4.63881,0.36727 10.39067,-0.64235 6.3945,-1.12242 8.40497,-1.18926 11.6417,-0.3871 4.64389,1.15091 8.77586,4.03357 10.92031,7.61853 1.28883,2.1546 1.37841,1.79428 0.17468,-0.70265 -2.2657,-4.69983 -5.89246,-8.4978 -9.92446,-10.39299 -2.58133,-1.21331 -1.88992,-1.57255 2.55924,-1.32971 3.00133,0.16381 3.14754,0.13797 2.00437,-0.35441 -2.0071,-0.86449 -5.32672,-1.68003 -6.83849,-1.68003 -0.77498,0 -1.40904,-0.0933 -1.40904,-0.20739 0,-0.37769 5.63257,-8.16749 7.01128,-9.696547 l 1.35399,-1.501626 -2.04485,1.255075 c -1.12466,0.690289 -2.82094,1.937578 -3.7695,2.771748 -0.94855,0.83416 -1.81949,1.51666 -1.9354,1.51666 -0.11592,0 0.0303,-0.7183 0.32502,-1.59622 1.09052,-3.248932 1.39185,-6.396818 0.90267,-9.430004 l -0.4592,-2.847364 -0.49856,1.788578 c -0.27423,0.983722 -0.80238,2.077569 -1.17366,2.430767 -0.64673,0.615214 -0.66875,0.53748 -0.52408,-1.850615 0.18989,-3.134715 -0.60605,-5.790419 -2.39323,-7.985126 -1.25149,-1.536855 -2.64302,-2.630613 -2.94412,-2.314116 -0.0756,0.07932 0.0988,0.841037 0.38732,1.692588 0.28854,0.851539 0.53196,2.263755 0.54093,3.138248 0.0177,1.724427 -0.91512,5.4743 -1.44791,5.820408 -0.18124,0.117747 -0.32516,-1.149702 -0.3198,-2.816545 0.006,-1.88766 -0.20511,-3.546494 -0.55995,-4.398454 l -0.56968,-1.367816 -0.0303,1.969625 c -0.0623,4.046652 -1.60888,8.365499 -3.98615,11.131429 -1.26299,1.46949 -3.74813,3.363737 -4.02006,3.064249 -0.071,-0.07821 0.48978,-1.215018 1.24631,-2.526137 3.39613,-5.885779 3.87685,-12.994175 1.29886,-19.20611 l -0.60905,-1.467562 -0.47094,2.797547 c -1.45953,8.670275 -4.87546,14.031745 -11.63785,18.266212 -3.53443,2.213174 -4.3838,2.238642 -1.34734,0.04044 6.79068,-4.916126 11.00746,-13.755606 9.90327,-20.759902 -0.2267,-1.438128 -0.55524,-2.765133 -0.73008,-2.948916 -0.17598,-0.184991 -0.70622,1.249226 -1.18786,3.212947 -0.4785,1.950904 -0.98211,3.356418 -1.11913,3.12336 -0.14259,-0.242529 -0.77476,0.428938 -1.47832,1.570255 -1.53791,2.494797 -4.4711,4.945172 -8.63023,7.209703 -1.7706,0.964036 -3.33658,1.752797 -3.47995,1.752797 -0.14338,0 0.71972,-0.768056 1.918,-1.706779 1.19828,-0.938734 2.84792,-2.361718 3.66586,-3.162188 l 1.48715,-1.455409 -1.30126,0.83326 c -1.67475,1.072423 -6.23042,3.537088 -6.53794,3.537088 -0.129845,0 0.7488,-0.762107 1.95255,-1.693574 1.54628,-1.196528 2.88709,-2.773629 4.56846,-5.373578 3.15202,-4.87403 3.89291,-5.791062 5.89377,-7.294938 1.90659,-1.433031 1.51852,-1.584312 -1.76789,-0.689159 -4.47103,1.217821 -9.28437,4.12433 -13.170355,7.952879 -2.390024,2.354706 -2.206594,1.615652 0.469133,-1.890152 l 1.342233,-1.758624 -1.115302,0.746687 c -0.613416,0.410682 -1.691366,1.153436 -2.39543,1.650569 -0.704074,0.497145 -1.373296,0.80252 -1.487158,0.678635 -0.291549,-0.317217 3.407389,-3.725136 6.390059,-5.887329 1.37908,-0.999718 2.45791,-1.869691 2.39742,-1.933279 -0.21202,-0.222866 -4.549475,1.307885 -6.206085,2.190221 -2.607257,1.388653 -6.121946,4.140526 -7.588576,5.941589 -0.73391,0.901268 -1.333543,1.38718 -1.33251,1.079812 0.0032,-0.909611 2.636766,-4.292926 4.752372,-6.104989 1.081209,-0.926061 1.857496,-1.683759 1.725095,-1.683759 -0.1324,0 -1.265282,0.571555 -2.517528,1.270119 -4.478402,2.498276 -9.689922,8.781133 -11.785419,14.208151 -1.045819,2.708547 -1.323668,2.524608 -0.408488,-0.270446 1.80516,-5.513205 5.355724,-11.240292 8.716113,-14.059152 4.585393,-3.846462 9.775794,-5.617526 16.432426,-5.607047 3.43298,0.0055 4.11864,-0.07212 2.97431,-0.336514 -2.20434,-0.509209 -10.426488,-0.09195 -12.989783,0.659115 -3.118194,0.91372 -6.210053,2.275964 -8.628831,3.801785 -2.546458,1.606368 -6.66547,5.813927 -8.321599,8.500483 -0.675925,1.096484 -1.295119,1.924062 -1.375984,1.839061 -0.212001,-0.222844 2.769894,-6.368278 4.096397,-8.442335 l 1.124766,-1.758624 -1.223116,1.172412 c -0.67271,0.644836 -2.226285,2.487641 -3.452394,4.095139 -2.067021,2.709976 -2.208664,2.823757 -1.945865,1.56322 l 0.283413,-1.359496 -1.379957,1.734872 c -2.756034,3.464849 -4.279426,8.045956 -4.290017,12.900788 -0.0042,2.016651 -0.09843,2.422979 -0.470226,2.032005 -0.778742,-0.818882 -0.539519,-7.190362 0.40265,-10.724093 0.978898,-3.671497 2.943817,-7.913486 5.015897,-10.828636 l 1.527807,-2.149431 -1.56286,1.298889 c -2.45617,2.0413 -4.805307,5.089197 -6.378506,8.275845 -1.718877,3.481732 -2.465033,6.043517 -3.135478,10.765081 l -0.496878,3.499313 -0.466042,-1.752431 c -0.256318,-0.963826 -0.399278,-2.854344 -0.317696,-4.201156 0.08157,-1.346801 0.09264,-2.448735 0.02456,-2.448735 -0.286216,0 -1.700171,3.914857 -2.328965,6.448294 -0.650716,2.621751 -0.682765,2.67056 -0.769816,1.172412 -0.04996,-0.85977 -0.06134,-2.530468 -0.02529,-3.712651 0.06524,-2.139007 0.06302,-2.143737 -0.472797,-0.977008 l -0.53837,1.172412 0.209956,-1.367816 c 0.115475,-0.752303 0.587956,-2.642821 1.049962,-4.201156 0.462005,-1.558345 0.771765,-2.833339 0.68836,-2.833339 -0.08336,0 -0.643327,0.571544 -1.244257,1.270108 -2.503174,2.909855 -4.839475,9.809509 -4.851247,14.326918 -0.0042,1.554665 -0.109615,2.015585 -0.366091,1.598405 -0.198226,-0.32241 -0.362971,-2.444804 -0.366101,-4.716437 -0.0053,-4.160477 0.59722,-7.428349 1.707622,-9.254858 0.839616,-1.381087 -0.07177,-1.044971 -1.857159,0.684894 -1.856843,1.799125 -3.422147,5.138217 -4.036493,8.610632 -0.476939,2.695817 -0.993188,2.401033 -1.050931,-0.600104 l -0.03762,-1.954027 -1.047274,2.344835 c -0.576005,1.289661 -1.165099,3.048285 -1.309114,3.908065 -0.144014,0.85977 -0.341545,1.34338 -0.438957,1.07471 -0.341524,-0.94193 -0.766433,-0.47338 -1.063209,1.17241 l -0.299505,1.66092 -0.226935,-1.75862 -0.226935,-1.75863 -0.483357,1.56323 c -0.797365,2.57877 -0.958231,11.23628 -0.271904,14.63318 0.623461,3.08575 2.354838,8.23097 2.768027,8.22592 0.135489,-0.002 0.630966,-0.71093 1.101055,-1.57616 1.099832,-2.02431 5.216062,-6.59996 6.824176,-7.58585 1.204504,-0.73844 1.187958,-0.6952 -0.520518,1.35941 -2.026435,2.437 -4.032077,6.26725 -4.891811,9.34206 -0.904883,3.23628 -0.737229,3.99481 0.379433,1.7168 0.535125,-1.09164 1.620897,-2.75383 2.412845,-3.69374 l 1.439891,-1.70894 -1.120214,2.57862 c -3.030668,6.97633 -2.313115,11.66252 3.195561,20.86969 2.826297,4.72384 4.384457,8.04704 5.413456,11.54559 l 0.857131,2.91421 0.267204,-2.14944 c 0.63849,-5.13607 -0.831816,-10.71906 -4.469506,-16.97144 -1.262163,-2.16939 -1.347286,-2.51947 -1.34249,-5.52126 0.0042,-2.88732 0.133602,-3.46782 1.301262,-5.85641 1.515919,-3.10099 2.63822,-4.10047 4.90607,-4.36916 2.703245,-0.32028 5.607078,1.68482 7.180908,4.95843 0.584985,1.21675 0.62869,2.25434 0.428081,10.16093 -0.216143,8.51871 -0.771365,13.355 -1.755005,15.28695 -0.323682,0.63574 -0.325263,0.91738 -0.0063,1.12459 0.305735,0.19861 0.323788,0.76226 0.06408,2.00203 -0.882287,4.21255 -1.233254,9.61506 -0.775833,11.9424 0.46582,2.37005 1.645758,5.08874 2.943975,6.7832 l 0.748538,0.97702 0.04184,-3.71265 0.04184,-3.71265 0.481776,2.79026 c 0.26497,1.53465 0.681616,3.4268 0.925876,4.20476 0.468877,1.49339 1.106134,1.5561 1.159388,0.1141 0.01739,-0.47093 0.243185,0.0615 0.501779,1.18305 0.319077,1.38399 1.405166,3.48425 3.379855,6.53593 3.07137,4.74647 4.32057,6.18977 6.589811,7.6137 l 1.394205,0.87486 v -1.09961 c 0,-1.09003 0.0084,-1.08605 0.979256,0.45663 2.044362,3.24891 6.498893,7.29788 9.229403,8.38912 1.115913,0.44596 1.102431,0.49762 0.358523,-1.37386 -0.971267,-2.44346 -1.647592,-7.07107 -1.588205,-10.86697 l 0.05607,-3.58057 0.26225,3.51725 c 0.293257,3.93295 0.715731,5.86265 2.09625,9.57473 1.009217,2.71369 3.642816,7.15261 4.993286,8.41615 l 0.8206,0.76778 -0.25908,-1.48686 c -0.42346,-2.43026 -0.29519,-7.11231 0.23205,-8.47052 0.45599,-1.17465 0.49072,-0.99624 0.4854,2.49327 -0.005,3.70351 0.0105,3.77259 1.10963,4.7263 1.51269,1.31263 5.33051,3.32599 6.28686,3.31543 0.42743,-0.004 1.44637,-0.33497 2.2643,-0.73389 z m -5.79459,-10.46657 c 0.44911,-1.75316 2.06032,-4.49319 3.00788,-5.11522 0.44745,-0.29373 0.25135,0.28118 -0.60698,1.77948 -0.69739,1.21736 -1.55754,3.1852 -1.91146,4.37298 -0.72319,2.42709 -1.14688,1.52919 -0.48944,-1.03724 z m 2.53714,-26.60138 c -0.32135,-0.37615 -0.57526,-1.12356 -0.56423,-1.66091 0.0111,-0.53736 -0.11088,-1.56629 -0.27089,-2.2865 l -0.29094,-1.30949 1.12128,0.60948 1.12126,0.6095 -0.0261,-1.44944 c -0.0347,-1.92215 0.42546,-3.68956 0.88322,-3.39219 0.20203,0.13126 1.14086,-0.47707 2.08629,-1.35183 1.85474,-1.71611 2.47853,-1.98718 2.08621,-0.90656 -0.17777,0.48963 0.0977,0.37859 0.96979,-0.39092 0.66996,-0.59116 1.6653,-1.1774 2.21187,-1.30277 0.54657,-0.12535 1.20473,-0.29639 1.46257,-0.38006 0.25785,-0.0836 0.9624,-0.0484 1.56566,0.0784 0.84069,0.17674 1.197,0.54957 1.52567,1.59639 0.59471,1.89414 0.26723,5.36789 -0.60114,6.37649 -0.59624,0.69253 -0.6192,0.86316 -0.15661,1.16368 0.46697,0.30336 0.44732,0.53712 -0.14189,1.68716 -0.64906,1.26689 -0.74621,1.31493 -1.90373,0.9415 -1.25907,-0.40618 -5.33267,0.31535 -8.33317,1.476 -1.80714,0.69903 -2.06426,0.68891 -2.74505,-0.10801 z m 15.11081,-37.17031 c 0.38482,-0.44855 0.9932,-0.91347 1.35194,-1.03315 0.37838,-0.12624 0.81332,-0.8845 1.03579,-1.80579 0.35626,-1.47534 0.33285,-1.57165 -0.32952,-1.35558 -0.39217,0.12791 -1.04763,0.34102 -1.45661,0.47357 -0.51588,0.16719 -0.74358,0.0608 -0.74358,-0.34752 0,-0.32367 -0.34735,-1.00366 -0.77191,-1.5111 -0.42455,-0.50743 -0.65098,-0.67788 -0.50321,-0.37877 0.14778,0.2991 0.36966,1.94558 0.49307,3.65884 0.22217,3.08442 0.23124,3.10701 0.92403,2.2995 z m -6.79716,-1.10513 c 1.00206,-0.98525 1.82191,-1.94315 1.82191,-2.12868 0,-0.18552 -1.55868,-0.33732 -3.46371,-0.33732 -1.90505,0 -4.40502,-0.18291 -5.55549,-0.40646 -2.04849,-0.39806 -2.15566,-0.37268 -5.18039,1.22649 -1.69875,0.89812 -4.09247,2.03967 -5.31937,2.53678 l -2.230744,0.90384 1.673054,0.0164 c 1.77559,0.0174 7.34686,-1.2547 8.61179,-1.96629 0.58265,-0.32778 1.23146,-0.24299 2.85622,0.37328 4.72262,1.79124 4.7439,1.79055 6.78673,-0.218 z"
       id="path1"
       inkscape:export-filename="../src/assets/barbershop-head-03-90x119.png"
       inkscape:export-xdpi="21.6"
       inkscape:export-ydpi="21.6" /></g></svg>
