<?xml version="1.0" encoding="UTF-8" standalone="no"?>
<!-- Created with Inkscape (http://www.inkscape.org/) -->

<svg
   width="210mm"
   height="297mm"
   viewBox="0 0 210 297"
   version="1.1"
   id="svg1"
   inkscape:version="1.3.2 (1:1.3.2+202311252150+091e20ef0f)"
   sodipodi:docname="barbershop-head-02-inkscape.svg"
   xml:space="preserve"
   xmlns:inkscape="http://www.inkscape.org/namespaces/inkscape"
   xmlns:sodipodi="http://sodipodi.sourceforge.net/DTD/sodipodi-0.dtd"
   xmlns="http://www.w3.org/2000/svg"
   xmlns:svg="http://www.w3.org/2000/svg"><sodipodi:namedview
     id="namedview1"
     pagecolor="#ffffff"
     bordercolor="#666666"
     borderopacity="1.0"
     inkscape:showpageshadow="2"
     inkscape:pageopacity="0.0"
     inkscape:pagecheckerboard="0"
     inkscape:deskcolor="#d1d1d1"
     inkscape:document-units="mm"
     inkscape:zoom="0.66724888"
     inkscape:cx="397.15316"
     inkscape:cy="559.76115"
     inkscape:window-width="1920"
     inkscape:window-height="946"
     inkscape:window-x="0"
     inkscape:window-y="0"
     inkscape:window-maximized="1"
     inkscape:current-layer="layer1"
     showgrid="false" /><defs
     id="defs1" /><g
     inkscape:label="Layer 1"
     inkscape:groupmode="layer"
     id="layer1"><path
       style="fill:#000000;stroke-width:0.879238"
       d="m 71.051347,201.6617 c -0.758286,-0.33462 -1.943179,-1.23208 -2.633097,-1.99437 -1.349124,-1.49063 -3.227874,-2.59145 -4.389087,-2.57171 -0.660681,0.0113 -0.642221,0.052 0.22336,0.49397 1.230159,0.62804 3.302462,2.56335 3.302462,3.08415 0,0.56449 -2.764378,0.20979 -5.029481,-0.64535 -1.487427,-0.56155 -1.870594,-0.88531 -2.761948,-2.33381 -1.447595,-2.35244 -1.958697,-4.27403 -1.958697,-7.36413 0,-3.11268 0.744752,-5.84553 2.400267,-8.80772 0.598929,-1.07165 1.022271,-2.01331 0.940763,-2.09258 -0.229641,-0.22335 -2.308629,2.64157 -3.154454,4.34693 -0.999848,2.01592 -1.759178,4.93314 -1.759178,6.75848 0,1.8348 -0.357458,1.48637 -1.127947,-1.09948 -0.851052,-2.85623 -0.791325,-8.63399 0.1295,-12.52723 0.376159,-1.59041 0.683927,-2.9373 0.683927,-2.99309 0,-0.0557 -0.439264,0.38513 -0.976142,0.97982 -1.884401,2.08733 -1.876287,1.21377 0.02476,-2.6659 2.167835,-4.42414 2.838503,-6.48156 2.838503,-8.70773 0,-1.52429 -0.04211,-1.61572 -0.608364,-1.32099 -1.347151,0.7012 -1.590807,0.38941 -0.787743,-1.008 0.41869,-0.72857 0.887661,-2.20832 1.042159,-3.28834 0.282316,-1.97354 0.214749,-2.564 -0.260697,-2.27822 -0.335052,0.2014 -2.216037,-0.43762 -2.216037,-0.75284 0,-0.13354 0.34975,-0.32818 0.777222,-0.43252 0.427472,-0.10435 0.937677,-0.48131 1.133791,-0.8377 0.345704,-0.62822 0.334266,-0.63278 -0.375426,-0.14933 -0.994093,0.67719 -2.218929,0.62695 -3.048882,-0.12506 -0.817474,-0.74069 -0.957913,-1.98949 -0.191573,-1.70348 0.555854,0.20745 2.019388,-0.0748 2.019388,-0.38943 0,-0.44122 3.362643,-3.65768 4.319232,-4.13146 1.939025,-0.96036 3.450286,-0.93586 6.668608,0.10812 3.137621,1.0178 4.529959,1.04475 6.380953,0.12351 0.755851,-0.37619 0.83465,-0.37095 0.670668,0.0446 -0.102199,0.25902 -0.452232,0.60962 -0.777853,0.7791 -0.32562,0.16949 -0.592038,0.41566 -0.592038,0.54704 0,0.1314 0.868396,0.64274 1.929767,1.13634 1.456039,0.67714 2.38234,0.89744 3.773363,0.89744 1.013979,0 1.843993,0.0819 1.844477,0.18202 0.0019,0.39141 -1.274177,1.27299 -2.415833,1.66899 l -1.200271,0.41633 1.100821,0.01 c 2.369255,0.0211 6.244392,-1.43291 7.941635,-2.9798 0.968066,-0.8823 1.064104,-0.64066 0.52242,1.31445 -0.186452,0.67297 -0.736215,1.71283 -1.221696,2.31082 -0.801408,0.98713 -0.843464,1.15614 -0.456689,1.83535 0.389493,0.68398 0.601224,1.81872 0.339357,1.81872 -0.05991,0 -0.545057,-0.21159 -1.078091,-0.47022 -0.580677,-0.28172 -1.293446,-0.39105 -1.778184,-0.27273 -0.923778,0.2255 -1.09295,0.74295 -0.242893,0.74295 0.58337,0 1.320985,0.54657 1.320985,0.97885 0,0.1346 -0.41625,0.24471 -0.924999,0.24471 -0.508749,0 -1.00207,0.12129 -1.096268,0.26953 -0.378811,0.5961 0.405816,6.09688 1.042895,7.3114 0.623221,1.1881 2.550973,2.88577 2.550973,2.24649 0,-0.16977 -0.156273,-0.4026 -0.347271,-0.51741 -0.75734,-0.45521 -1.52616,-2.76701 -1.532943,-4.60948 -0.0062,-1.68982 0.06337,-1.89446 0.700763,-2.06059 3.091392,-0.80574 9.442497,0.9787 12.65792,3.5564 0.65728,0.52692 1.740321,1.77854 2.406775,2.78138 1.514865,2.2795 1.571506,1.59244 0.10392,-1.2606 -1.401504,-2.7246 -4.395608,-5.55349 -6.801732,-6.42643 l -1.65902,-0.60189 1.088666,-0.22913 c 1.692472,-0.35624 3.911513,-1.55704 4.82194,-2.60934 0.99558,-1.15071 1.047424,-2.23669 0.173336,-3.6311 l -0.651574,-1.03947 3.090284,0.19863 c 3.211031,0.20638 4.108261,0.003 3.769571,-0.85567 -0.29049,-0.73626 -2.1473,-1.38912 -4.050276,-1.42412 l -1.66133,-0.0305 1.887116,-0.59626 c 1.037919,-0.32793 3.444,-0.73672 5.34685,-0.90844 4.48711,-0.4049 5.49999,-0.67736 6.57502,-1.76866 0.88066,-0.894 1.74425,-3.5019 1.75485,-5.29935 0.004,-0.76967 -0.0698,-0.81901 -0.97033,-0.64384 l -0.97525,0.18969 0.50198,-0.94408 c 0.71229,-1.33965 1.19076,-5.06447 0.95298,-7.41879 l -0.20233,-2.00331 2.40713,-2.18632 2.40714,-2.18633 -1.03601,-0.16631 c -0.56981,-0.0915 -1.53085,-0.20208 -2.13564,-0.2458 -1.06871,-0.0772 -1.12258,-0.144 -1.91583,-2.37368 -1.42777,-4.0132 -3.77582,-7.75801 -6.11896,-9.75888 -0.63446,-0.54178 -1.08106,-1.05555 -0.99247,-1.14171 0.0886,-0.0862 1.09144,-0.31165 2.22855,-0.50109 1.56647,-0.26097 2.81208,-0.25377 5.14017,0.0297 2.75244,0.33508 7.40252,1.19585 9.52034,1.76231 1.57204,0.42048 0.16685,-0.43677 -2.04437,-1.24718 -4.57552,-1.67692 -8.42169,-2.37445 -13.95355,-2.53058 -2.83086,-0.0798 -5.017808,-0.23196 -4.859914,-0.33792 0.699074,-0.46915 1.802794,-2.38273 2.289994,-3.97031 0.52405,-1.70765 0.55846,-1.74207 2.86558,-2.86632 3.92417,-1.91224 7.12334,-2.518503 13.1861,-2.498838 4.49174,0.01459 5.5808,0.118568 8.0989,0.773378 1.60012,0.41609 2.90931,0.72798 2.90931,0.69308 0,-0.2899 -2.95111,-1.617361 -5.7689,-2.594937 -4.60342,-1.597085 -7.19506,-2.031663 -14.40263,-2.415136 -6.70027,-0.356471 -10.479986,-0.793842 -12.342218,-1.428192 -1.418943,-0.483353 -1.874607,-0.523091 -1.632693,-0.142403 0.248352,0.390817 5.375121,2.328912 7.359031,2.781969 2.60796,0.595564 1.55067,0.97986 -3.146655,1.143698 -3.471958,0.121098 -4.749269,0.03399 -7.441733,-0.507745 -1.787699,-0.35967 -3.946096,-0.911047 -4.796433,-1.225282 -0.85034,-0.314244 -1.546073,-0.465153 -1.546073,-0.335357 0,0.36385 6.185387,3.257375 8.595309,4.020885 2.848513,0.90247 2.242872,1.21368 -2.732138,1.40393 -3.416201,0.13066 -4.515103,0.0259 -10.423715,-0.99448 -5.308578,-0.91667 -7.376559,-1.13982 -10.536426,-1.13698 -8.108819,0.007 -16.392519,2.6977 -21.237739,6.89769 -0.94723,0.82109 -1.722236,1.39136 -1.722236,1.26727 0,-0.49343 2.694083,-3.57816 4.980428,-5.70259 2.643989,-2.45675 5.260077,-4.137832 8.304379,-5.336321 1.083183,-0.426437 2.040189,-0.849517 2.126683,-0.94019 0.08649,-0.09066 -0.691945,-0.08593 -1.729861,0.01049 l -1.887121,0.175292 2.201641,-1.043687 c 5.264861,-2.495802 10.845164,-3.548771 15.47141,-2.919343 1.476615,0.200897 2.749255,0.302538 2.828089,0.22587 0.258124,-0.251042 -3.292188,-1.398723 -5.314026,-1.717823 -2.681653,-0.423237 -7.10669,-0.370127 -10.154792,0.12187 -1.383888,0.223373 -2.556539,0.37181 -2.60589,0.329869 -0.04935,-0.04197 1.349697,-0.579089 3.108995,-1.193659 4.91984,-1.718623 10.107952,-2.633683 14.932177,-2.633683 2.565743,0 3.924084,-0.106433 3.732786,-0.292483 C 82.00316,86.209105 73.610109,83.745859 68.511751,82.998521 67.22162,82.809409 66.124624,82.614385 66.073984,82.565134 65.9028,82.398647 74.300538,81.43822 76.51881,81.370587 l 2.201641,-0.06713 -1.683198,-0.528056 C 72.735677,79.425908 66.89753,79.347966 60.470499,80.554227 c -6.722989,1.26181 -12.257516,3.855485 -16.005689,7.500829 -0.808495,0.786315 -1.521374,1.378347 -1.584176,1.315625 -0.215612,-0.215334 2.177479,-3.447113 3.865979,-5.220862 5.447034,-5.722039 12.261255,-8.882817 21.274609,-9.868235 l 3.150744,-0.344466 -1.572601,-0.51737 c -2.113437,-0.695372 -5.756113,-1.16671 -7.609611,-0.984703 l -1.511474,0.14842 1.572601,-0.45193 c 2.058115,-0.591457 7.567997,-0.596121 10.722741,-0.009 1.34381,0.250059 2.51472,0.385184 2.602023,0.300277 0.271411,-0.263965 -2.245565,-2.599704 -3.706287,-3.439411 -0.764351,-0.439394 -1.252272,-0.84346 -1.084268,-0.897924 0.168003,-0.05446 1.652142,0.233215 3.298085,0.639289 5.062666,1.249017 10.137898,4.064316 14.399935,7.987833 2.513182,2.313564 2.501164,1.844417 -0.0337,-1.315274 l -1.547977,-1.929551 1.041825,0.519582 c 0.573001,0.285771 1.607961,0.889754 2.299904,1.342185 2.312226,1.511859 2.219754,1.291354 -0.54933,-1.309994 -1.513029,-1.42138 -3.690473,-3.179646 -4.838758,-3.907259 -1.148286,-0.727612 -1.930017,-1.374082 -1.737181,-1.436597 0.566166,-0.183545 3.792919,0.827792 5.850749,1.833755 3.161029,1.545263 5.244765,3.01809 7.689609,5.435182 2.133675,2.109459 2.27306,2.198594 1.683137,1.076356 -0.940954,-1.790019 -2.965458,-4.093193 -4.949322,-5.630571 -0.95677,-0.741449 -1.681541,-1.404548 -1.610591,-1.473551 0.18448,-0.17942 3.2414,1.358972 4.90552,2.468701 3.484182,2.323443 7.506695,7.261916 9.941385,12.205125 0.81811,1.661041 1.04214,1.949687 0.89117,1.148208 -0.43621,-2.31577 -2.99735,-7.348814 -5.29235,-10.400315 -5.156953,-6.856847 -13.235966,-10.424072 -22.677725,-10.013165 -2.538105,0.110458 -3.250263,0.06707 -2.673421,-0.162869 0.432465,-0.17239 2.555476,-0.375541 4.717802,-0.451447 3.352026,-0.117668 4.487801,-0.02467 7.705749,0.630947 8.47365,1.726406 14.570115,5.457375 19.458455,11.908356 0.98803,1.303864 1.8524,2.37066 1.92083,2.37066 0.27816,0 -2.20748,-4.876057 -3.43053,-6.729615 -0.72158,-1.093562 -1.43198,-2.194772 -1.5787,-2.447134 -0.73374,-1.26215 4.57839,4.234611 6.21249,6.428409 0.62133,0.83414 0.61907,0.907594 0.04,-1.304724 -0.27798,-1.062 1.8624,1.372145 3.16442,3.598745 1.68739,2.885627 2.37796,5.362151 2.58395,9.266433 0.10036,1.902455 0.29992,3.344798 0.44344,3.205214 0.14353,-0.139594 0.39445,-1.170574 0.55761,-2.291071 0.81393,-5.589696 -1.76197,-13.657504 -6.17815,-19.350146 -2.20248,-2.839106 1.75509,0.288004 4.22742,3.34032 3.2982,4.071945 5.54994,9.930282 6.04285,15.721627 l 0.22509,2.644657 0.56446,-1.790658 c 0.40138,-1.273301 0.53187,-2.488509 0.45168,-4.20601 -0.0621,-1.328442 -0.0675,-2.415348 -0.0121,-2.415348 0.3289,0 1.96189,4.199185 2.42559,6.237276 0.70527,3.099883 1.23165,2.47352 1.0319,-1.227899 -0.076,-1.409234 -0.0319,-2.562243 0.098,-2.562243 0.12995,0 0.29956,0.240889 0.37692,0.53531 0.0774,0.29442 0.085,-0.09912 0.0169,-0.87453 -0.068,-0.775413 -0.53713,-2.599291 -1.0424,-4.053064 -0.50527,-1.453773 -0.8215,-2.635351 -0.70272,-2.625727 0.11877,0.0096 0.82603,0.732291 1.57168,1.60593 2.70849,3.173362 4.61499,8.314171 4.9905,13.456668 0.2979,4.079723 0.80831,2.798834 0.85109,-2.135831 0.0395,-4.561405 -0.31366,-6.577631 -1.58432,-9.044146 -0.4117,-0.799141 -0.61603,-1.452985 -0.45407,-1.452985 0.62815,0 3.71576,3.078773 4.49744,4.484567 0.82873,1.49043 1.9008,4.719246 2.31969,6.986367 0.20825,1.127162 0.24471,1.163312 0.46269,0.458832 0.13013,-0.420593 0.25072,-1.495518 0.26796,-2.388703 0.0178,-0.921499 0.15848,-1.547569 0.32526,-1.447327 0.47668,0.286527 2.22226,4.959706 2.22226,5.949356 0,0.500219 0.14153,0.994566 0.31451,1.098539 0.17299,0.103982 0.31452,-0.09438 0.31452,-0.440787 0,-1.065209 0.5468,-0.696962 0.76807,0.517265 0.42055,2.307824 0.64385,2.413947 0.80453,0.382363 l 0.15727,-1.988301 0.62903,2.294195 c 0.51559,1.880388 0.62879,3.259693 0.62761,7.647293 -8.9e-4,4.9125 -0.0723,5.59505 -0.86281,8.29283 -0.47376,1.61685 -1.21825,3.72454 -1.65443,4.68375 l -0.79304,1.74401 -1.55368,-2.25922 c -1.97311,-2.86911 -7.87267,-8.41189 -7.87267,-7.39657 0,0.10564 0.74493,0.99267 1.65541,1.97117 2.74879,2.95419 5.17475,7.85351 5.76184,11.63627 l 0.21164,1.36364 -1.0064,-1.83535 c -0.99976,-1.82322 -4.12485,-6.04884 -4.32763,-5.85162 -0.0583,0.0567 0.39355,1.12603 1.00406,2.37632 2.74477,5.62113 2.53767,11.29602 -0.5957,16.32275 -0.73409,1.17768 -2.37799,3.79306 -3.65311,5.81194 -2.59351,4.1063 -4.43329,7.99012 -5.04016,10.63995 -0.58883,2.5711 -1.00966,1.74462 -1.0062,-1.97611 0.004,-5.12528 1.21368,-9.01748 4.30515,-13.86098 2.06797,-3.23997 2.49192,-5.49478 1.70878,-9.08823 -1.1966,-5.49064 -5.22029,-8.47417 -9.2307,-6.84447 -1.4666,0.59597 -3.85262,2.79349 -4.66022,4.29205 -1.63415,3.03229 -0.69189,20.65839 1.34467,25.15383 0.45366,1.0014 0.48307,1.24431 0.13489,1.11437 -0.56696,-0.2116 -0.55969,0.11816 0.0686,3.11115 0.3253,1.54957 0.52715,4.13007 0.55036,7.0355 0.0365,4.55896 0.0302,4.60162 -0.96819,6.65144 -0.55267,1.13468 -1.40187,2.57024 -1.88712,3.19013 l -0.88228,1.12706 -0.15726,-3.64895 -0.15726,-3.64897 -0.53128,3.05892 c -0.2922,1.68239 -0.77946,3.60951 -1.08281,4.28247 l -0.55153,1.22357 -0.30938,-1.14709 c -0.43995,-1.63131 -0.82622,-1.41901 -0.83481,0.45884 -0.008,1.84171 -0.41773,2.62054 -4.08142,7.76629 -2.59954,3.65113 -4.45055,5.5148 -6.61856,6.66384 l -1.42897,0.75735 0.12667,-1.05531 c 0.16809,-1.40023 -0.0992,-1.33112 -0.922578,0.23856 -0.875389,1.66883 -4.043247,4.88364 -6.253521,6.3462 -1.592181,1.05357 -4.175314,2.45435 -4.52598,2.45435 -0.08122,0 0.180994,-0.79149 0.582809,-1.75887 1.026766,-2.472 1.749129,-6.98372 1.698293,-10.60717 l -0.04324,-3.08148 -0.270666,3.05891 c -0.58362,6.59588 -3.227834,12.77139 -7.334645,17.12994 l -1.152897,1.22356 0.186627,-0.91767 c 0.102645,-0.50472 0.270963,-2.17094 0.374039,-3.7027 0.18692,-2.7777 -0.349261,-5.5492 -1.236549,-6.39173 -0.218893,-0.20784 -0.242897,-0.1098 -0.07489,0.30591 0.404067,0.99976 0.557639,5.74779 0.213759,6.60888 -0.380246,0.95214 -3.918182,3.48066 -5.749446,4.10903 -1.750149,0.60055 -2.99632,0.55369 -4.646996,-0.17471 z m 6.549231,-9.11154 c -0.431091,-2.65225 -2.204488,-5.67175 -3.82716,-6.51635 -0.562138,-0.29259 -0.542947,-0.20852 0.158297,0.69345 1.078589,1.38734 2.611303,4.40711 3.043926,5.99716 0.481534,1.76981 0.921005,1.64728 0.624937,-0.17426 z m -2.691845,-27.6766 c 0.52034,-0.6803 0.569131,-0.90733 0.237784,-1.10649 -0.340878,-0.2049 -0.325462,-0.42254 0.08455,-1.19366 0.275792,-0.5187 0.501441,-1.30404 0.501441,-1.7452 v -0.80213 l -0.828717,0.63399 c -1.248693,0.95527 -1.549325,0.81261 -1.427476,-0.6774 0.132232,-1.61701 -0.348962,-3.45971 -0.8732,-3.34387 -0.214233,0.0474 -0.929811,-0.38868 -1.590176,-0.96891 -1.512064,-1.32857 -2.602826,-1.91806 -2.750711,-1.48658 -0.06002,0.17512 -0.915987,-0.15452 -1.902155,-0.7325 -1.624178,-0.95193 -1.984953,-1.0426 -3.830985,-0.96278 -1.952752,0.0844 -2.051201,0.12648 -2.354816,1.00578 -0.174275,0.50473 -0.443032,1.00556 -0.597239,1.11297 -0.54267,0.37796 0.120408,4.32985 0.929575,5.54018 0.601672,0.89996 0.664291,1.14709 0.290653,1.14709 -0.645788,0 -0.59893,0.46913 0.181803,1.82015 0.648702,1.12254 0.675377,1.13422 1.878411,0.82191 1.390661,-0.361 5.506873,0.2771 8.48776,1.31579 2.157996,0.75196 2.746769,0.68944 3.563495,-0.37834 z m -15.90006,-35.73792 c -0.289326,-0.43122 -0.952427,-0.9558 -1.473557,-1.16574 -0.972846,-0.39191 -1.617379,-1.57846 -1.617379,-2.97751 0,-0.70652 0.02607,-0.71382 0.927942,-0.26024 1.40451,0.70637 1.760747,0.58201 2.323429,-0.81114 0.283859,-0.70281 0.565617,-1.21901 0.626128,-1.1471 0.06051,0.0719 0.02665,1.70911 -0.07525,3.63825 -0.180366,3.4147 -0.199187,3.48675 -0.711316,2.72348 z m 7.999653,-0.26209 c -0.776387,-0.45919 -2.383116,-2.18875 -2.987499,-3.21587 -0.115513,-0.19631 1.18952,-0.31304 3.642833,-0.32584 2.102555,-0.011 4.757067,-0.19474 5.898914,-0.40838 l 2.076087,-0.38845 3.899797,1.85846 c 2.144888,1.02216 4.678234,2.13634 5.629658,2.47597 l 1.729859,0.6175 -2.67342,-0.13235 c -1.769072,-0.0875 -3.770439,-0.45713 -5.916404,-1.09245 l -3.242983,-0.9601 -2.890161,0.90819 c -3.983331,1.25171 -4.138237,1.2716 -5.166681,0.66332 z M 39.249431,111.56117 c 0.0022,-5.38881 1.238363,-10.64972 3.310138,-14.08795 2.667013,-4.426066 8.153093,-8.521499 14.241844,-10.631723 3.185792,-1.104124 3.422163,-0.986619 0.846185,0.420661 -5.65638,3.09013 -11.07158,8.739924 -14.231045,14.847532 -1.24678,2.41017 -2.743526,6.74088 -3.378011,9.774 -0.280529,1.34106 -0.573125,2.49963 -0.650214,2.57459 -0.07709,0.075 -0.139592,-1.22873 -0.138897,-2.89711 z m 3.160115,-0.34989 c -0.02414,-0.56007 1.34089,-3.96846 2.423913,-6.05234 1.481404,-2.85044 3.576769,-5.40315 5.723199,-6.972387 2.031059,-1.48489 3.338874,-1.973932 1.834998,-0.686175 -2.973862,2.546492 -6.381388,7.073542 -8.618277,11.449752 -0.741211,1.4501 -1.354936,2.46762 -1.363833,2.26115 z"
       id="path1"
       inkscape:export-filename="../src/assets/barbershop-head-02-90x78.png"
       inkscape:export-xdpi="14.400002"
       inkscape:export-ydpi="14.400002" /></g></svg>
