<?xml version="1.0" encoding="UTF-8" standalone="no"?>
<!-- Created with Inkscape (http://www.inkscape.org/) -->

<svg
   width="210mm"
   height="297mm"
   viewBox="0 0 210 297"
   version="1.1"
   id="svg1"
   inkscape:version="1.3.2 (1:1.3.2+202311252150+091e20ef0f)"
   sodipodi:docname="barbershop-header-master.svg"
   xmlns:inkscape="http://www.inkscape.org/namespaces/inkscape"
   xmlns:sodipodi="http://sodipodi.sourceforge.net/DTD/sodipodi-0.dtd"
   xmlns="http://www.w3.org/2000/svg"
   xmlns:svg="http://www.w3.org/2000/svg">
  <sodipodi:namedview
     id="namedview1"
     pagecolor="#ffffff"
     bordercolor="#666666"
     borderopacity="1.0"
     inkscape:showpageshadow="2"
     inkscape:pageopacity="0.0"
     inkscape:pagecheckerboard="0"
     inkscape:deskcolor="#d1d1d1"
     inkscape:document-units="mm"
     inkscape:zoom="1"
     inkscape:cx="415.5"
     inkscape:cy="184.5"
     inkscape:window-width="1920"
     inkscape:window-height="946"
     inkscape:window-x="0"
     inkscape:window-y="0"
     inkscape:window-maximized="1"
     inkscape:current-layer="layer1"
     showguides="true" />
  <defs
     id="defs1" />
  <g
     inkscape:label="Layer 1"
     inkscape:groupmode="layer"
     id="layer1">
    <path
       d="m 58.004778,55.095541 2.672951,5.384351 -1.421929,0.705869 -3.430606,-6.910551 2.123405,-1.054124 3.980714,4.876926 -1.516045,-6.10046 2.142368,-1.06353 3.430601,6.910542 -1.421938,0.705873 -2.672951,-5.384351 1.450102,5.991412 -1.421938,0.705874 z m 9.831024,-1.563869 0.724088,1.86459 3.896879,-1.513299 0.478891,1.233189 -5.376712,2.087971 -2.792895,-7.191975 5.199138,-2.019008 0.478891,1.23319 -3.719305,1.444335 0.632134,1.627818 3.443067,-1.337061 0.478891,1.233189 z m 6.306117,1.176749 -2.196045,-7.396086 2.891472,-0.858543 q 0.852226,-0.253042 1.460325,-0.212798 0.618255,0.03723 1.126189,0.372171 1.222266,0.807324 1.746421,2.572647 0.530188,1.78561 -0.05947,3.108845 -0.464279,1.076252 -2.077414,1.555221 z m 1.145279,-1.720057 1.369641,-0.406672 q 1.714593,-0.5091 0.99463,-2.933879 -0.72298,-2.434922 -2.437573,-1.925821 l -1.369641,0.406671 z m 6.036599,-8.221534 1.741988,7.516001 -1.546508,0.358427 -1.741983,-7.515992 z m 5.648586,0.252844 1.091421,6.298445 -1.564187,0.271044 -1.091421,-6.298446 -2.304566,0.399341 -0.225866,-1.30349 6.089889,-1.055277 0.225874,1.303485 z m 5.738167,2.316587 0.188756,1.991318 4.161745,-0.39449 0.124844,1.317007 -5.742162,0.544297 -0.728071,-7.680794 5.552515,-0.526328 0.124834,1.317012 -3.972098,0.376521 0.164794,1.73845 3.677091,-0.348551 0.124834,1.317012 z m 10.10059,1.471529 q -0.004,-0.317477 0.004,-0.497505 0.008,-0.180032 0.006,-0.317608 -0.006,-0.486791 -0.24179,-0.695453 -0.23564,-0.219251 -0.7542,-0.212585 l -1.82018,0.02338 0.0393,3.058328 -1.587369,0.02039 -0.0991,-7.71459 4.137729,-0.05315 q 0.59262,-0.0076 1.0185,0.188018 0.43646,0.195494 0.65232,0.520826 0.22646,0.325191 0.32605,0.662613 0.0995,0.326824 0.10408,0.686631 0.0179,1.396886 -1.27717,1.921565 0.28721,0.112732 0.42574,0.185043 0.13839,0.06172 0.278,0.218696 0.15019,0.156826 0.19418,0.283261 0.0546,0.126297 0.10122,0.464405 0.0573,0.337961 0.0721,0.665875 0.0148,0.327922 0.0337,0.973313 0.006,0.44447 0.34647,0.630784 l 0.004,0.285725 -1.70377,0.02189 q -0.15137,-0.273423 -0.20783,-0.526563 -0.0456,-0.253423 -0.0525,-0.793135 z m 0.20151,-4.088079 q -0.008,-0.592615 -0.2852,-0.779559 -0.27773,-0.197536 -0.84918,-0.190191 l -1.915421,0.0246 0.02583,2.010661 1.915421,-0.0246 q 0.56087,-0.0072 0.83343,-0.211804 0.28312,-0.204771 0.27512,-0.829107 z m 7.5431,4.436682 q 0.0229,-0.316669 0.0464,-0.495358 0.0235,-0.178685 0.0335,-0.315913 0.0351,-0.48556 -0.18186,-0.713465 -0.21616,-0.238479 -0.73342,-0.275857 l -1.81559,-0.131268 -0.22056,3.050613 -1.58336,-0.114479 0.55635,-7.695134 4.1273,0.298403 q 0.59113,0.04274 0.99886,0.273823 0.41828,0.231853 0.60574,0.574343 0.19762,0.343475 0.26859,0.687905 0.0714,0.3341 0.0454,0.692991 -0.10074,1.393358 -1.43572,1.806165 0.2766,0.136716 0.40849,0.220529 0.13261,0.07328 0.25842,0.241511 0.1363,0.169041 0.16913,0.298899 0.0436,0.130481 0.0614,0.471319 0.0284,0.341595 0.0152,0.669596 -0.0131,0.327993 -0.0491,0.97265 -0.0321,0.443339 0.29201,0.657759 l -0.0206,0.285006 -1.69948,-0.122869 q -0.12791,-0.285151 -0.1624,-0.542287 -0.0239,-0.256391 0.015,-0.794735 z m 0.54793,-4.0562 q 0.0427,-0.591125 -0.21798,-0.800973 -0.25994,-0.220398 -0.82995,-0.261608 l -1.91059,-0.138136 -0.145,2.005587 1.91059,0.138136 q 0.55945,0.04045 0.84839,-0.140265 0.29954,-0.179923 0.34454,-0.802741 z m 7.08999,4.815607 -2.85428,-0.448102 -0.75358,1.456496 -1.59966,-0.251133 3.90449,-7.19675 1.73557,0.272471 1.43814,8.035508 -1.61011,-0.252785 z m -0.22348,-1.374204 -0.52545,-3.135672 -1.46105,2.823808 z m 7.581,4.569268 -1.73764,-5.920105 -1.27358,5.179709 -1.54159,-0.379037 1.84214,-7.492079 1.58269,0.389154 1.71675,5.827766 1.25336,-5.097488 1.54158,0.379042 -1.84213,7.492074 z m 5.72962,-1.772209 -0.63791,1.895794 3.96211,1.333194 -0.42188,1.253837 -5.46673,-1.839471 2.4605,-7.312356 5.28617,1.778708 -0.4219,1.253834 -3.78157,-1.27244 -0.5569,1.655071 3.50071,1.177927 -0.4219,1.253833 z m 8.6406,5.204335 -2.65577,-1.137819 -1.08934,1.22581 -1.48839,-0.637685 5.55792,-6.012293 1.61486,0.691861 -0.58688,8.142052 -1.49812,-0.641844 z m 0.12213,-1.38689 0.26366,-3.168444 -2.11199,2.376558 z m 6.22084,6.296891 -0.2248,-6.165751 -2.51101,4.705984 -1.40059,-0.747324 3.63199,-6.806866 1.43793,0.767254 0.22732,6.071126 2.47116,-4.63128 1.40059,0.747324 -3.632,6.806857 z"
       id="text2"
       style="font-weight:600;font-size:10.5833px;line-height:1.25;font-family:FreeSans;-inkscape-font-specification:'FreeSans Semi-Bold';letter-spacing:0px;word-spacing:0px;stroke-width:0.264583"
       inkscape:transform-center-x="-0.95805443"
       inkscape:transform-center-y="-87.733938"
       aria-label="MEDITERRANEAN" />
    <path
       d="m 50.054581,114.19267 3.240504,7.36212 -1.665055,0.99019 -4.159034,-9.44894 2.48647,-1.47871 4.774206,6.64628 -1.888123,-8.36264 2.508676,-1.49193 4.159028,9.44892 -1.665066,0.99019 -3.240504,-7.36212 1.808571,8.2137 -1.665065,0.99021 z m 11.566571,-2.28819 0.884522,2.55233 4.570114,-2.13484 0.584997,1.68805 -6.305605,2.94554 -3.411707,-9.84472 6.097352,-2.84824 0.584997,1.68804 -4.361861,2.03756 0.772195,2.22824 4.037898,-1.88623 0.584998,1.68805 z m 7.455288,1.52814 -2.71129,-10.13366 3.395365,-1.22079 q 1.000741,-0.35979 1.718448,-0.31308 0.729635,0.0425 1.334084,0.49557 1.45454,1.09226 2.101674,3.51099 0.654581,2.44654 -0.01894,4.27343 -0.529731,1.48569 -2.423985,2.16674 z m 1.322138,-2.38012 1.608323,-0.57825 q 2.013394,-0.7239 1.124509,-4.04619 -0.892606,-3.33618 -2.906,-2.61227 l -1.608324,0.57825 z m 6.982703,-11.384421 2.177857,10.304881 -1.817673,0.51444 -2.177852,-10.30486 z m 6.664737,0.267675 1.390685,8.640736 -1.83996,0.39461 -1.390685,-8.64074 -2.710871,0.58139 -0.287796,-1.788235 7.163559,-1.536351 0.287809,1.788227 z m 6.804356,3.102686 0.255367,2.73405 4.900858,-0.60096 0.1689,1.80824 -6.761951,0.82919 -0.985005,-10.545677 6.538624,-0.801808 0.168889,1.808248 -4.67753,0.573592 0.222948,2.386875 4.330131,-0.53098 0.168889,1.80825 z m 11.934426,1.87964 q -0.0102,-0.43626 -0.003,-0.68379 0.006,-0.24754 0.003,-0.4366 -0.015,-0.66893 -0.29655,-0.95237 -0.28147,-0.29799 -0.89283,-0.2815 l -2.145897,0.0578 0.09666,4.2026 -1.871417,0.0504 -0.243905,-10.601012 4.878169,-0.131511 q 0.69866,-0.01881 1.20407,0.244007 0.51787,0.262507 0.77776,0.706572 0.27239,0.44372 0.39539,0.906041 0.1227,0.447759 0.13403,0.94219 0.0441,1.919533 -1.47434,2.658913 0.34052,0.15088 0.50506,0.2483 0.1642,0.0828 0.33141,0.29663 0.17969,0.2134 0.23363,0.38655 0.0665,0.17281 0.12701,0.63681 0.0732,0.46367 0.096,0.91412 0.0228,0.45047 0.0557,1.33718 0.0143,0.61077 0.41893,0.86201 l 0.01,0.39262 -2.00866,0.0542 q -0.18299,-0.37363 -0.25373,-0.72074 -0.058,-0.34764 -0.075,-1.08929 z m 0.17029,-5.621223 q -0.0188,-0.814341 -0.34915,-1.067343 -0.33073,-0.267557 -1.00444,-0.249386 l -2.258171,0.06087 0.06351,2.762952 2.258181,-0.0609 q 0.66124,-0.0179 0.97924,-0.30287 0.33049,-0.28543 0.31078,-1.143356 z m 8.96757,5.990893 q 0.0218,-0.43554 0.0465,-0.68144 0.0248,-0.24591 0.0343,-0.43464 0.0334,-0.66782 -0.2262,-0.97797 -0.25881,-0.32471 -0.86937,-0.36876 l -2.14303,-0.15476 -0.20982,4.19568 -1.86893,-0.13497 0.5293,-10.583522 4.87166,0.351786 q 0.69772,0.05038 1.18232,0.362209 0.49704,0.312733 0.72371,0.78078 0.23869,0.469257 0.32804,0.941616 0.0896,0.458157 0.0649,0.951759 -0.0958,1.916362 -1.6632,2.502552 0.32842,0.18399 0.48531,0.29731 0.15758,0.0988 0.30871,0.32826 0.16349,0.2304 0.20434,0.40841 0.0536,0.17871 0.0802,0.64687 0.0391,0.46907 0.029,0.92004 -0.0101,0.45095 -0.0419,1.33743 -0.0306,0.60975 0.35516,0.89986 l -0.0196,0.39198 -2.00598,-0.14485 q -0.15552,-0.39009 -0.20042,-0.74299 -0.0324,-0.35202 0.005,-1.09244 z m 0.5793,-5.58231 q 0.0406,-0.813005 -0.27022,-1.097723 -0.31015,-0.299228 -0.98296,-0.34781 l -2.25516,-0.162849 -0.13794,2.758392 2.25515,0.16285 q 0.66035,0.0477 0.99808,-0.20476 0.35023,-0.2515 0.39305,-1.1081 z m 8.43951,6.51806 -3.37301,-0.57551 -0.86461,2.01237 -1.89038,-0.32255 4.48548,-9.945893 2.05099,0.349941 1.82814,11.023152 -1.90274,-0.32466 z m -0.28614,-1.88545 -0.67123,-4.30204 -1.67631,3.9015 z m 9.01443,6.17258 -2.14645,-8.11165 -1.41643,7.13664 -1.82402,-0.49913 2.04879,-10.322649 1.87264,0.512465 2.1203,7.985034 1.39396,-7.02336 1.82401,0.49915 -2.04878,10.32263 z m 6.72696,-2.51656 -0.72098,2.61445 4.69391,1.77628 -0.47683,1.72913 -6.47642,-2.45079 2.7809,-10.08438 6.26252,2.36984 -0.47684,1.72914 -4.48002,-1.69531 -0.62942,2.28248 4.14729,1.56941 -0.47684,1.72914 z m 10.27434,7.03038 -3.15032,-1.5262 -1.26432,1.70006 -1.76554,-0.85537 6.45465,-8.34143 1.91557,0.92804 -0.55794,11.19818 -1.77708,-0.86094 z m 0.12117,-1.90778 0.25871,-4.35821 -2.45123,3.29603 z m 7.43905,8.56614 -0.36663,-8.47063 -2.88337,6.50307 -1.66382,-1.00729 4.17059,-9.4062 1.70818,1.03413 0.36803,8.34054 2.83762,-6.39983 1.66382,1.00728 -4.1706,9.40621 z"
       id="path4"
       style="font-weight:600;font-size:10.5833px;line-height:1.25;font-family:FreeSans;-inkscape-font-specification:'FreeSans Semi-Bold';letter-spacing:0px;word-spacing:0px;stroke-width:0.13229167;fill:none;fill-opacity:1;stroke:#000000;stroke-opacity:1;stroke-dasharray:none"
       inkscape:transform-center-x="0.2735971"
       inkscape:transform-center-y="-120.89365"
       aria-label="MEDITERRANEAN"
       inkscape:export-filename="barbershop-header.svg"
       inkscape:export-xdpi="96"
       inkscape:export-ydpi="96" />
  </g>
</svg>
