<?xml version="1.0" encoding="UTF-8" standalone="no"?>
<!-- Created with Inkscape (http://www.inkscape.org/) -->

<svg
   width="210mm"
   height="297mm"
   viewBox="0 0 210 297"
   version="1.1"
   id="svg1"
   xml:space="preserve"
   inkscape:version="1.3.2 (1:1.3.2+202311252150+091e20ef0f)"
   sodipodi:docname="barbershop-head-01-inkscape.svg"
   xmlns:inkscape="http://www.inkscape.org/namespaces/inkscape"
   xmlns:sodipodi="http://sodipodi.sourceforge.net/DTD/sodipodi-0.dtd"
   xmlns="http://www.w3.org/2000/svg"
   xmlns:svg="http://www.w3.org/2000/svg"><sodipodi:namedview
     id="namedview1"
     pagecolor="#ffffff"
     bordercolor="#666666"
     borderopacity="1.0"
     inkscape:showpageshadow="2"
     inkscape:pageopacity="0.0"
     inkscape:pagecheckerboard="0"
     inkscape:deskcolor="#d1d1d1"
     inkscape:document-units="mm"
     showgrid="false"
     inkscape:zoom="0.66724888"
     inkscape:cx="395.65447"
     inkscape:cy="559.76115"
     inkscape:window-width="1920"
     inkscape:window-height="946"
     inkscape:window-x="0"
     inkscape:window-y="0"
     inkscape:window-maximized="1"
     inkscape:current-layer="layer1" /><defs
     id="defs1" /><g
     inkscape:label="Layer 1"
     inkscape:groupmode="layer"
     id="layer1"><path
       style="fill:#010000;stroke:none;stroke-width:0.850459;fill-opacity:1"
       d="M 59.420698,84.760034 H 59.128741 C 59.756228,77.170251 65.813565,69.81271 71.682824,65.952885 v -0.308312 c -6.660435,0.947918 -10.784737,5.779803 -15.473629,10.174358 l 4.379324,-7.707848 c -8.15498,2.480916 -11.073268,12.302928 -11.094297,20.348718 h -0.291957 c -1.137183,-4.271749 -1.0531,-7.97335 -0.875863,-12.332556 H 48.034444 C 45.923842,83.097701 46.552272,88.814907 47.45053,95.859341 L 39.567737,94.93439 v 0.308315 c 5.445268,1.330959 7.265701,6.217545 11.390541,9.468285 4.510257,3.55448 11.861539,3.915 17.221085,2.86427 v -0.30831 C 60.668307,106.57443 53.648317,98.194345 52.413777,90.618 c 4.771096,6.362098 10.611083,12.76097 18.97709,12.94919 v -0.30831 c -3.278191,-1.84291 -6.404238,-4.34898 -8.758657,-7.399539 5.647821,3.394235 10.935987,5.183809 17.517313,5.241329 l -6.714965,-3.699759 v -0.308316 c 3.876638,0.551286 7.415089,1.492847 11.386254,1.205655 8.216215,-0.59418 22.538388,-6.7883 25.984018,5.57725 h 0.29196 c 0,-10.771752 -9.00103,-15.272823 -18.101233,-16.032327 V 87.53486 c 4.412924,5.08e-4 8.957083,0.961299 12.846043,3.241813 1.74792,1.024996 3.15023,2.860339 4.96323,3.691205 2.53826,1.163227 5.78015,1.257249 8.4667,2.055908 2.38013,0.707559 4.41956,2.153203 6.71498,3.035318 v 0.308317 c -5.1793,-1.575026 -9.65544,-3.757472 -15.18168,-4.00808 1.31507,5.089829 2.06065,10.160539 0.87587,15.415689 h -0.29196 c -0.8101,-3.59162 -0.94722,-7.16738 -3.30747,-10.17412 -2.39735,-3.054003 -8.189349,-5.869636 -11.432219,-2.496004 -1.26334,1.314279 -2.723631,6.766324 -3.06958,8.662044 l 4.087375,2.49482 5.547154,0.58832 v 0.30832 c -3.02454,-0.13716 -5.83537,-0.46742 -8.466709,1.54157 4.957636,3.51767 9.039249,5.9287 10.510389,12.64086 l 4.37933,1.23326 v 0.61663 c -4.5668,2.29157 -3.24623,6.27018 -4.37933,10.79097 l 1.16782,-0.92493 c 0,3.48609 0.11038,7.74556 -2.92068,9.97309 -1.50214,1.10394 -3.24785,0.72153 -4.962111,0.84549 -2.291406,0.1657 -4.457208,0.88459 -6.714973,1.20565 v 0.30832 c 2.007932,0.0439 3.961805,0.4298 5.255196,2.1582 h -6.423016 c 0.682398,3.37585 0.512907,4.62506 -2.043686,7.09122 v 0.30832 c 2.057532,3.05203 2.646138,6.51567 2.919549,10.17435 H 91.24383 C 88.603394,161.14289 83.429104,157.37947 75.770199,159.372 v 0.30831 c 4.451175,2.96475 3.279382,7.06367 2.919546,11.71593 h -0.291948 c -0.857698,-3.80443 -0.183601,-7.72129 -4.087376,-9.86605 0.788015,4.03609 -0.421806,6.71268 -3.795418,8.94111 l 2.335641,-4.62471 c -4.898438,0 -9.993511,-3.93029 -14.597766,-2.15821 l -2.335641,-7.0912 H 55.62528 l -1.086493,9.55772 -3.876745,9.24942 c 1.47503,-0.67386 2.320239,-1.7186 2.627598,-3.39145 h 0.291957 c -0.910341,7.13919 -2.767543,13.13705 -0.583914,20.34871 h 0.291957 c 0.03658,-4.66833 1.905004,-7.99331 3.795418,-12.02423 h 0.291957 c -2.199196,5.57823 -5.601169,15.21125 0.887582,19.49633 1.675033,1.10616 3.652816,1.0997 5.535434,1.46901 -0.645909,-2.00644 -2.181204,-3.41019 -4.087376,-4.00809 v -0.30831 c 3.440366,0.76192 4.738548,4.27657 7.882794,5.30201 3.039563,0.99128 8.182943,-1.12706 9.373654,-4.37826 0.732881,-2.00109 0.330424,-5.03368 -0.03112,-7.09003 h 0.291957 c 1.094306,4.10264 0.459817,7.28963 0.291957,11.40762 5.428286,-4.2221 8.250583,-14.79271 8.758656,-21.58197 h 0.291958 c 0,5.81058 -1.724813,10.27203 -3.211512,15.724 5.257893,-1.89067 8.280245,-5.8402 11.678213,-10.17436 l -0.291957,1.84989 c 5.534755,-1.68702 11.677605,-10.72057 11.678215,-16.64895 l 0.87586,2.15819 h 0.29196 l 1.75173,-8.01615 h 0.29196 v 6.78289 c 3.05084,-2.15259 4.08738,-6.85166 4.08738,-10.48266 0,-8.08025 -2.33565,-15.96054 -2.33565,-24.04849 0,-3.00707 -0.0134,-5.95977 0.26762,-8.9411 0.10462,-1.10993 0.33313,-2.50673 -0.85153,-2.77482 1.4361,-4.75101 6.73593,-8.54612 11.09407,-5.34862 2.51148,1.8426 4.00536,5.64333 4.5618,8.74008 0.70451,3.92078 -2.51466,6.64978 -3.94229,9.86604 -0.5596,1.26066 -0.52064,2.70147 -0.94165,4.00808 -0.597,1.85275 -1.8967,3.33763 -2.37415,5.24132 -0.66319,2.64425 -0.13074,5.65287 0.0689,8.32448 h 0.29195 c 1.76597,-4.94326 3.24857,-9.45616 6.13849,-13.87412 3.30954,-5.05944 7.95311,-9.49659 8.45928,-16.03231 h 0.58391 c -0.002,3.92699 -0.99351,7.78964 -1.15633,11.71591 -0.38235,9.22013 1.70151,19.13794 6.11957,27.13163 h 0.29195 c -2.25217,-9.18874 -1.75415,-18.78641 -0.16805,-28.05657 0.97772,-5.71436 3.21605,-11.2601 4.42325,-16.95725 2.41552,-11.3996 1.1432,-22.526794 -5.08285,-32.372969 -1.92888,-3.050433 -4.13538,-5.976592 -7.05514,-8.016161 3.99136,7.300259 8.00477,13.196807 9.05061,21.89029 h -0.29195 C 137.3485,93.433257 128.6346,86.094541 121.02321,81.245587 c -2.73623,-1.743158 -5.86262,-3.903433 -9.05061,-4.501714 v -0.308314 c 9.27557,0.800056 16.21857,7.640263 23.35642,12.949184 -2.13137,-5.936585 -8.09537,-11.177103 -12.84603,-14.755532 -1.99755,-1.504649 -4.28676,-3.193648 -6.71497,-3.743302 v -0.308315 l 5.8391,0.616628 v -0.308313 c -3.55252,-1.29814 -6.77213,-3.075368 -10.51038,-3.869628 -10.63733,-2.260087 -20.99573,0.101875 -30.947268,4.177941 v -0.308313 c 6.060119,-2.99143 11.098289,-6.37259 17.809315,-7.707848 -3.231515,-1.640007 -8.890469,-0.614953 -12.262095,0.200787 -10.639263,2.574085 -23.171456,9.370286 -26.275994,21.381186 M 105.8416,71.810851 v 0.308313 c -8.583319,0 -16.081622,1.20263 -24.2323,4.008081 6.244546,-5.95482 16.649653,-5.394694 24.2323,-4.316394 m 30.36334,32.064649 c -4.1917,-3.3853 -7.44948,-7.776275 -11.97017,-10.884956 -14.42399,-9.918764 -31.819453,-13.08857 -48.464571,-8.538823 3.218828,-3.405549 10.326641,-3.629445 14.59776,-4.060424 13.486301,-1.360822 26.458511,2.602829 36.786371,11.946931 3.42334,3.097251 7.23803,7.102035 9.05061,11.537272 m -83.888488,-13.668589 -0.09732,0.205548 0.09732,-0.205548 m 73.962008,9.66051 -0.29195,0.308319 0.29195,-0.308319 m -21.89664,10.790989 v 0.30832 h -0.87587 l 0.87587,-0.30832 m -46.128942,8.63279 c -0.830784,2.20237 -1.490572,2.28867 -3.503461,1.54157 0.119314,2.88279 1.739271,3.45556 3.211504,5.54964 h 0.291957 l 0.583914,-7.09121 h -0.583914 m 4.087375,2.46651 c 0.340429,0.8066 0.749134,1.47578 1.297355,2.15415 3.271487,4.04818 5.951918,-0.14813 9.79695,0.22053 3.558943,0.34124 6.819605,2.21776 10.510383,2.25002 l -4.671281,-2.42369 -5.547153,-2.68514 -11.386254,0.48413 m 70.653187,11.4076 -1.84275,4.00808 -0.9644,10.48268 -2.15609,9.24941 h 0.29195 c 1.68736,-2.6064 3.8717,-4.80662 4.52012,-8.01616 0.59319,-2.93617 -0.25407,-6.24056 -0.1293,-9.24941 0.0812,-1.95868 0.90903,-4.62387 0.28047,-6.4746 m -3.50347,5.85797 c -3.72018,4.10532 -2.17447,7.64664 -3.50346,12.64087 1.94036,-1.88679 4.49841,-9.94899 3.50346,-12.64087 m -74.156647,8.01616 0.583914,-0.30831 v 0.30831 c -1.584851,1.63782 -2.722944,2.45842 -4.963238,2.46652 0.605597,2.44131 2.329351,2.89167 4.379324,1.84987 l -2.043683,1.54157 c 2.181204,4.04475 5.118138,-1.75736 7.882793,-1.47971 3.472054,0.34869 5.513892,3.86966 8.466699,5.36362 2.830903,1.43227 5.529095,0.67765 8.466707,0.43248 v -0.30831 l -2.043691,-0.61662 v -0.30832 c 4.992477,-0.10939 8.404381,-3.23302 9.34257,-8.32447 -3.368936,1.62729 -6.464635,4.53302 -10.510391,3.69976 v -0.30831 c 1.823777,-0.0882 3.267971,-0.65559 4.087376,-2.46652 -3.16194,1.04929 -4.718239,-0.85568 -7.590836,-1.63766 -1.019831,-0.27763 -2.155764,-0.0282 -3.211504,-0.21221 v -0.30832 c 1.659847,-0.14336 3.509006,-0.53887 4.379324,-2.1582 -5.889171,-0.004 -14.712429,-6.41932 -17.225364,2.77483 m 0.291957,4.00808 -0.291957,0.30831 0.291957,-0.30831 m -1.16782,19.42378 -0.291957,0.30831 0.291957,-0.30831 m 15.765586,0.10275 c 0.225792,0 0.04676,0.1535 -0.09732,0.10276 l 0.09732,-0.10276 m -16.446817,1.02771 -0.09732,0.20555 0.09732,-0.20555 m 15.862903,13.97691 c 2.428488,2.39814 3.767685,5.09457 3.795426,8.63279 h -0.291957 z"
       id="path1"
       inkscape:export-filename="../src/assets/barbershop-head-01-90x119.png"
       inkscape:export-xdpi="21.60001"
       inkscape:export-ydpi="21.60001" /></g></svg>
