<?xml version="1.0" encoding="UTF-8" standalone="no"?>
<!-- Created with Inkscape (http://www.inkscape.org/) -->

<svg
   width="112.76289mm"
   height="26.710888mm"
   viewBox="0 0 112.76289 26.710888"
   version="1.1"
   id="svg1"
   xmlns="http://www.w3.org/2000/svg"
   xmlns:svg="http://www.w3.org/2000/svg">
  <defs
     id="defs1" />
  <g
     id="layer1"
     transform="translate(-47.386872,-96.074697)">
    <path
       d="m 50.054581,114.19267 3.240504,7.36212 -1.665055,0.99019 -4.159034,-9.44894 2.48647,-1.47871 4.774206,6.64628 -1.888123,-8.36264 2.508676,-1.49193 4.159028,9.44892 -1.665066,0.99019 -3.240504,-7.36212 1.808571,8.2137 -1.665065,0.99021 z m 11.566571,-2.28819 0.884522,2.55233 4.570114,-2.13484 0.584997,1.68805 -6.305605,2.94554 -3.411707,-9.84472 6.097352,-2.84824 0.584997,1.68804 -4.361861,2.03756 0.772195,2.22824 4.037898,-1.88623 0.584998,1.68805 z m 7.455288,1.52814 -2.71129,-10.13366 3.395365,-1.22079 q 1.000741,-0.35979 1.718448,-0.31308 0.729635,0.0425 1.334084,0.49557 1.45454,1.09226 2.101674,3.51099 0.654581,2.44654 -0.01894,4.27343 -0.529731,1.48569 -2.423985,2.16674 z m 1.322138,-2.38012 1.608323,-0.57825 q 2.013394,-0.7239 1.124509,-4.04619 -0.892606,-3.33618 -2.906,-2.61227 l -1.608324,0.57825 z m 6.982703,-11.384421 2.177857,10.304881 -1.817673,0.51444 -2.177852,-10.30486 z m 6.664737,0.267675 1.390685,8.640736 -1.83996,0.39461 -1.390685,-8.64074 -2.710871,0.58139 -0.287796,-1.788235 7.163559,-1.536351 0.287809,1.788227 z m 6.804356,3.102686 0.255367,2.73405 4.900858,-0.60096 0.1689,1.80824 -6.761951,0.82919 -0.985005,-10.545677 6.538624,-0.801808 0.168889,1.808248 -4.67753,0.573592 0.222948,2.386875 4.330131,-0.53098 0.168889,1.80825 z m 11.934426,1.87964 q -0.0102,-0.43626 -0.003,-0.68379 0.006,-0.24754 0.003,-0.4366 -0.015,-0.66893 -0.29655,-0.95237 -0.28147,-0.29799 -0.89283,-0.2815 l -2.145897,0.0578 0.09666,4.2026 -1.871417,0.0504 -0.243905,-10.601012 4.878169,-0.131511 q 0.69866,-0.01881 1.20407,0.244007 0.51787,0.262507 0.77776,0.706572 0.27239,0.44372 0.39539,0.906041 0.1227,0.447759 0.13403,0.94219 0.0441,1.919533 -1.47434,2.658913 0.34052,0.15088 0.50506,0.2483 0.1642,0.0828 0.33141,0.29663 0.17969,0.2134 0.23363,0.38655 0.0665,0.17281 0.12701,0.63681 0.0732,0.46367 0.096,0.91412 0.0228,0.45047 0.0557,1.33718 0.0143,0.61077 0.41893,0.86201 l 0.01,0.39262 -2.00866,0.0542 q -0.18299,-0.37363 -0.25373,-0.72074 -0.058,-0.34764 -0.075,-1.08929 z m 0.17029,-5.621223 q -0.0188,-0.814341 -0.34915,-1.067343 -0.33073,-0.267557 -1.00444,-0.249386 l -2.258171,0.06087 0.06351,2.762952 2.258181,-0.0609 q 0.66124,-0.0179 0.97924,-0.30287 0.33049,-0.28543 0.31078,-1.143356 z m 8.96757,5.990893 q 0.0218,-0.43554 0.0465,-0.68144 0.0248,-0.24591 0.0343,-0.43464 0.0334,-0.66782 -0.2262,-0.97797 -0.25881,-0.32471 -0.86937,-0.36876 l -2.14303,-0.15476 -0.20982,4.19568 -1.86893,-0.13497 0.5293,-10.583522 4.87166,0.351786 q 0.69772,0.05038 1.18232,0.362209 0.49704,0.312733 0.72371,0.78078 0.23869,0.469257 0.32804,0.941616 0.0896,0.458157 0.0649,0.951759 -0.0958,1.916362 -1.6632,2.502552 0.32842,0.18399 0.48531,0.29731 0.15758,0.0988 0.30871,0.32826 0.16349,0.2304 0.20434,0.40841 0.0536,0.17871 0.0802,0.64687 0.0391,0.46907 0.029,0.92004 -0.0101,0.45095 -0.0419,1.33743 -0.0306,0.60975 0.35516,0.89986 l -0.0196,0.39198 -2.00598,-0.14485 q -0.15552,-0.39009 -0.20042,-0.74299 -0.0324,-0.35202 0.005,-1.09244 z m 0.5793,-5.58231 q 0.0406,-0.813005 -0.27022,-1.097723 -0.31015,-0.299228 -0.98296,-0.34781 l -2.25516,-0.162849 -0.13794,2.758392 2.25515,0.16285 q 0.66035,0.0477 0.99808,-0.20476 0.35023,-0.2515 0.39305,-1.1081 z m 8.43951,6.51806 -3.37301,-0.57551 -0.86461,2.01237 -1.89038,-0.32255 4.48548,-9.945893 2.05099,0.349941 1.82814,11.023152 -1.90274,-0.32466 z m -0.28614,-1.88545 -0.67123,-4.30204 -1.67631,3.9015 z m 9.01443,6.17258 -2.14645,-8.11165 -1.41643,7.13664 -1.82402,-0.49913 2.04879,-10.322649 1.87264,0.512465 2.1203,7.985034 1.39396,-7.02336 1.82401,0.49915 -2.04878,10.32263 z m 6.72696,-2.51656 -0.72098,2.61445 4.69391,1.77628 -0.47683,1.72913 -6.47642,-2.45079 2.7809,-10.08438 6.26252,2.36984 -0.47684,1.72914 -4.48002,-1.69531 -0.62942,2.28248 4.14729,1.56941 -0.47684,1.72914 z m 10.27434,7.03038 -3.15032,-1.5262 -1.26432,1.70006 -1.76554,-0.85537 6.45465,-8.34143 1.91557,0.92804 -0.55794,11.19818 -1.77708,-0.86094 z m 0.12117,-1.90778 0.25871,-4.35821 -2.45123,3.29603 z m 7.43905,8.56614 -0.36663,-8.47063 -2.88337,6.50307 -1.66382,-1.00729 4.17059,-9.4062 1.70818,1.03413 0.36803,8.34054 2.83762,-6.39983 1.66382,1.00728 -4.1706,9.40621 z"
       id="path4"
       style="font-weight:600;font-size:10.5833px;line-height:1.25;font-family:FreeSans;-inkscape-font-specification:'FreeSans Semi-Bold';letter-spacing:0px;word-spacing:0px;fill:none;fill-opacity:1;stroke:#000000;stroke-width:0.132292;stroke-dasharray:none;stroke-opacity:1"
       aria-label="MEDITERRANEAN" />
  </g>
</svg>
