<?xml version="1.0" encoding="UTF-8" standalone="no"?>
<!-- Created with Inkscape (http://www.inkscape.org/) -->

<svg
   width="141.0153mm"
   height="137.01144mm"
   viewBox="0 0 141.0153 137.01144"
   version="1.1"
   id="svg1"
   xml:space="preserve"
   xmlns="http://www.w3.org/2000/svg"
   xmlns:svg="http://www.w3.org/2000/svg"><defs
     id="defs1"><filter
       style="color-interpolation-filters:sRGB"
       id="filter21"
       x="-0.022255738"
       y="-0.022913942"
       width="1.0445115"
       height="1.0458279"><feGaussianBlur
         stdDeviation="0.62517915"
         id="feGaussianBlur21" /></filter></defs><g
     id="layer1"
     transform="translate(-34.492009,-107.97473)"><g
       id="g21"><path
         style="fill:#d99b9b;fill-opacity:1;stroke:#013856;stroke-width:1.5;stroke-linecap:butt;stroke-linejoin:miter;stroke-dasharray:none;stroke-opacity:1"
         d="m 128.98047,230.99156 c 26.3197,-2.2338 40.95696,-21.93364 40.56428,-45.79475 3.37909,-1.78072 5.25508,-4.59381 5.21187,-8.71637 0.0432,-4.12256 -1.83278,-6.93565 -5.21187,-8.71637 0.39268,-23.86111 -14.24458,-43.56095 -40.56428,-45.79475 -5.83021,-11.78135 -14.76323,-13.26818 -23.98081,-13.24431 -9.217579,-0.0239 -18.150608,1.46296 -23.980821,13.24431 -26.319703,2.2338 -40.956951,21.93364 -40.564267,45.79475 -3.379092,1.78072 -5.255085,4.59381 -5.211874,8.71637 -0.04321,4.12256 1.832782,6.93565 5.211874,8.71637 -0.392684,23.86111 14.244564,43.56095 40.564267,45.79475 5.830213,11.78135 14.763242,13.26818 23.980821,13.24431 9.21758,0.0239 18.1506,-1.46296 23.98081,-13.24431 z"
         id="path21" /><path
         style="fill:#0169a7;fill-opacity:1;stroke:#013856;stroke-width:2.64583;stroke-linecap:butt;stroke-linejoin:miter;stroke-dasharray:none;stroke-opacity:1;filter:url(#filter21)"
         d="m 126.80452,226.04538 c 23.93153,-2.03111 37.24064,-19.94345 36.88359,-41.63947 3.07248,-1.61914 4.77825,-4.17698 4.73896,-7.92547 0.0393,-3.74849 -1.66648,-6.30633 -4.73896,-7.92547 0.35705,-21.69602 -12.95206,-39.60836 -36.88359,-41.63947 -5.30119,-10.71234 -13.42366,-12.06426 -21.80486,-12.04256 -8.381203,-0.0217 -16.503674,1.33022 -21.80487,12.04256 -23.931529,2.03111 -37.240635,19.94345 -36.883582,41.63947 -3.072483,1.61914 -4.778254,4.17698 -4.738964,7.92547 -0.03929,3.74849 1.666481,6.30633 4.738964,7.92547 -0.357053,21.69602 12.952053,39.60836 36.883582,41.63947 5.301196,10.71234 13.423667,12.06426 21.80487,12.04256 8.3812,0.0217 16.50367,-1.33022 21.80486,-12.04256 z"
         id="path14" /></g><path
       d="m 119.52314,92.680329 q 0,1.068663 -0.35622,2.077957 -0.35622,1.009293 -1.15772,1.988901 -0.77181,0.979609 -2.34512,1.573311 -1.57331,0.593702 -3.74033,0.593702 h -9.73671 V 77.273762 h 9.64766 q 2.01859,0 3.47316,0.593702 1.48425,0.593702 2.19669,1.543625 0.74213,0.920238 1.06867,1.810791 0.32653,0.890553 0.32653,1.751421 0,1.3952 -0.68275,2.434178 -0.68276,1.009293 -2.28576,2.018587 3.5919,2.107642 3.5919,5.254263 z m -12.88333,-11.69593 v 4.898042 h 4.83867 q 3.14662,0 3.14662,-2.434179 0,-2.463863 -3.14662,-2.463863 z m 0,8.608679 v 5.610484 h 5.31363 q 3.29505,0 3.29505,-2.790399 0,-2.820085 -3.29505,-2.820085 z m 28.46796,4.957412 h -8.10403 l -1.45457,4.36371 h -4.54182 l 7.68844,-21.640438 h 4.92773 l 7.48064,21.640438 h -4.5715 z m -1.21708,-3.710638 -2.82009,-8.460253 -2.82008,8.460253 z m 22.14504,4.36371 q 0,-0.890553 0.0297,-1.395199 0.0297,-0.504647 0.0297,-0.890553 0,-1.365515 -0.65307,-1.959217 -0.65308,-0.623387 -2.10765,-0.623387 h -5.10583 V 98.9142 h -4.45277 V 77.273762 h 11.60688 q 1.66236,0 2.84977,0.564016 1.21709,0.564017 1.81079,1.484255 0.62338,0.920239 0.89055,1.870162 0.26717,0.920238 0.26717,1.929531 0,3.918434 -3.65127,5.343318 0.8015,0.326537 1.1874,0.534332 0.38591,0.178111 0.77182,0.623387 0.41559,0.445277 0.53433,0.801498 0.14842,0.356221 0.26716,1.306144 0.14843,0.949924 0.17811,1.870162 0.0297,0.920238 0.0594,2.731029 0,1.246774 0.94993,1.781106 V 98.9142 h -4.7793 q -0.4156,-0.771813 -0.56402,-1.484255 -0.11874,-0.712443 -0.11874,-2.226383 z m 0.71244,-11.458449 q 0,-1.662365 -0.77181,-2.196697 -0.77181,-0.564017 -2.37481,-0.564017 h -5.373 v 5.640169 h 5.373 q 1.57331,0 2.34512,-0.564017 0.8015,-0.564017 0.8015,-2.315438 z m 25.7963,8.935216 q 0,1.068663 -0.35622,2.077957 -0.35622,1.009293 -1.15772,1.988901 -0.77181,0.979609 -2.34512,1.573311 -1.57331,0.593702 -3.74032,0.593702 h -9.73672 V 77.273762 h 9.64766 q 2.01859,0 3.47316,0.593702 1.48425,0.593702 2.19669,1.543625 0.74213,0.920238 1.06867,1.810791 0.32653,0.890553 0.32653,1.751421 0,1.3952 -0.68275,2.434178 -0.68276,1.009293 -2.28576,2.018587 3.5919,2.107642 3.5919,5.254263 z m -12.88333,-11.69593 v 4.898042 h 4.83867 q 3.14662,0 3.14662,-2.434179 0,-2.463863 -3.14662,-2.463863 z m 0,8.608679 v 5.610484 h 5.31363 q 3.29505,0 3.29505,-2.790399 0,-2.820085 -3.29505,-2.820085 z m 20.89827,0 v 5.610484 h 11.72561 V 98.9142 H 186.10664 V 77.273762 h 15.64405 v 3.710637 h -11.19128 v 4.898042 h 10.3601 v 3.710637 z m 27.54774,5.610484 q 0,-0.890553 0.0297,-1.395199 0.0297,-0.504647 0.0297,-0.890553 0,-1.365515 -0.65307,-1.959217 -0.65307,-0.623387 -2.10764,-0.623387 H 210.3 V 98.9142 h -4.4528 V 77.273762 h 11.60688 q 1.66236,0 2.84977,0.564016 1.21709,0.564017 1.81079,1.484255 0.62339,0.920239 0.89055,1.870162 0.26717,0.920238 0.26717,1.929531 0,3.918434 -3.65127,5.343318 0.8015,0.326537 1.18741,0.534332 0.3859,0.178111 0.77181,0.623387 0.41559,0.445277 0.53433,0.801498 0.14843,0.356221 0.26717,1.306144 0.14842,0.949924 0.17811,1.870162 0.0297,0.920238 0.0594,2.731029 0,1.246774 0.94992,1.781106 V 98.9142 h -4.7793 q -0.41559,-0.771813 -0.56402,-1.484255 -0.11874,-0.712443 -0.11874,-2.226383 z m 0.71244,-11.458449 q 0,-1.662365 -0.77181,-2.196697 -0.77181,-0.564017 -2.37481,-0.564017 h -5.373 v 5.640169 h 5.373 q 1.57331,0 2.34513,-0.564017 0.80149,-0.564017 0.80149,-2.315438 z m 32.59419,0.118741 h -4.15591 q -0.23748,-3.384102 -4.54182,-3.384102 -1.72174,0 -2.73103,0.742128 -1.00929,0.712442 -1.00929,1.929531 0,1.187404 0.86087,1.781106 0.86086,0.564017 3.23567,1.038979 l 3.3841,0.653072 q 2.9982,0.593702 4.36371,2.018587 1.36552,1.3952 1.36552,3.948118 0,3.295047 -2.34513,5.165208 -2.34512,1.840476 -6.53072,1.840476 -4.15591,0 -6.47135,-1.840476 -2.28575,-1.840476 -2.49355,-5.313633 h 4.33403 q 0.11874,1.751421 1.36551,2.671659 1.24678,0.920238 3.50284,0.920238 2.01859,0 3.17631,-0.771813 1.1874,-0.771812 1.1874,-2.137327 0,-1.306144 -0.92024,-2.018587 -0.92023,-0.712442 -3.14662,-1.128033 l -3.02788,-0.593702 q -3.29504,-0.623388 -4.69024,-1.959217 -1.3952,-1.33583 -1.3952,-3.859063 0,-3.176306 2.13733,-4.898042 2.16701,-1.751421 6.05576,-1.751421 1.12803,0 2.16701,0.148426 1.06866,0.148425 2.25607,0.623387 1.1874,0.445276 2.04827,1.187404 0.86087,0.712442 1.42488,2.018587 0.5937,1.276459 0.5937,2.96851 z m 17.36578,5.224578 h -8.57899 V 98.9142 H 255.7478 V 77.273762 h 4.45277 v 8.104032 h 8.54931 v -8.104032 h 4.48245 V 98.9142 h -4.45277 z m 10.86471,7.332219 q -2.84977,-3.176305 -2.84977,-8.163402 0,-4.987097 2.84977,-8.163403 2.87945,-3.176306 7.54001,-3.176306 4.69025,0 7.5697,3.176306 2.87946,3.146621 2.87946,8.311828 0,4.808987 -2.84977,8.014977 -2.82009,3.176306 -7.5697,3.176306 -4.71993,0 -7.5697,-3.176306 z m 7.5697,-15.703418 q -2.70135,0 -4.33403,2.077957 -1.63268,2.048272 -1.63268,5.462059 0,3.413786 1.63268,5.491743 1.63268,2.048272 4.33403,2.048272 2.67166,0 4.30434,-2.048272 1.66236,-2.048272 1.66236,-5.373003 0,-3.502842 -1.63268,-5.580799 -1.60299,-2.077957 -4.33402,-2.077957 z M 305.6484,91.196074 V 98.9142 h -4.45277 V 77.273762 h 9.5586 q 3.38411,0 5.16521,1.721735 1.81079,1.721736 1.81079,4.987097 0,3.295046 -1.7811,5.254263 -1.78111,1.959217 -4.74962,1.959217 z m 0,-3.710638 h 4.15591 q 3.47316,0 3.47316,-3.235676 0,-1.662365 -0.86087,-2.463863 -0.83118,-0.801498 -2.61229,-0.801498 h -4.15591 z"
       id="text21"
       style="font-weight:600;font-size:29.6851px;line-height:1.25;font-family:FreeSans;-inkscape-font-specification:'FreeSans, Semi-Bold';letter-spacing:0px;word-spacing:0px;fill:#ffffff;stroke-width:0.74213"
       transform="scale(0.50009642,1.9996144)"
       aria-label="BARBER SHOP" /><path
       style="fill:#ffffff;stroke-width:0.447764"
       d="m 119.23106,148.49206 c -0.62546,-0.073 -1.22675,-0.2762 -1.71548,-0.57985 -0.13636,-0.0847 -0.41581,-0.30416 -0.62099,-0.48764 -0.20518,-0.18349 -0.43389,-0.36226 -0.50825,-0.39728 -0.21553,-0.10151 -0.59935,-0.0919 -1.15601,0.0288 -0.38625,0.0838 -0.63263,0.11191 -1.17101,0.13379 -0.61437,0.0251 -0.70839,0.0201 -0.95034,-0.05 -0.86211,-0.24958 -1.6423,-1.02238 -2.01721,-1.99808 -0.22331,-0.5812 -0.3116,-1.45127 -0.2503,-2.46661 0.033,-0.54608 -0.011,-0.82323 -0.18299,-1.15383 -0.34147,-0.65627 -1.73167,-1.8888 -3.04325,-2.69809 -0.5679,-0.35041 -0.79997,-0.44906 -1.32606,-0.56372 -0.35592,-0.0776 -0.4592,-0.0824 -1.29608,-0.0606 -1.04082,0.0271 -0.926,0.0635 -1.19404,-0.37836 -0.13315,-0.21951 -3.38135,-5.50775 -7.869407,-12.81177 -0.79976,-1.30157 -1.51199,-2.47815 -1.58273,-2.61462 -0.19273,-0.37185 -0.19203,-0.83377 0.001,-0.8411 0.10275,-0.004 3.14678,3.63434 6.127707,7.32386 2.43111,3.00902 3.9379,4.94825 5.00613,6.44288 0.21053,0.29457 0.47521,0.63092 0.58817,0.74745 0.11296,0.11652 1.11581,0.98332 2.22855,1.92623 1.11274,0.94291 2.19387,1.86376 2.4025,2.04634 0.23468,0.20536 0.46546,0.37023 0.60516,0.43232 l 0.22582,0.10035 0.98515,-0.0326 c 1.05254,-0.0348 1.5786,-9.8e-4 2.03977,0.13127 1.13846,0.32652 2.12464,1.28926 2.48315,2.4241 0.0884,0.27972 0.0982,0.38538 0.14644,1.56887 0.0458,1.12612 0.0603,1.28999 0.12774,1.45577 0.33197,0.81552 1.1445,1.23555 2.63632,1.36279 0.40314,0.0344 0.64845,0.12788 0.75425,0.28747 0.16074,0.24242 0.0756,0.48675 -0.21643,0.62088 -0.18757,0.0862 -0.89663,0.14313 -1.25755,0.10103 z m -4.43023,-2.1646 c 1.01639,-0.28061 1.68894,-1.45725 1.49906,-2.62263 -0.18431,-1.1312 -0.77242,-1.97108 -1.66326,-2.37532 -0.87978,-0.39922 -1.70819,-0.2317 -2.31354,0.46785 -0.43682,0.50478 -0.59153,0.98422 -0.56301,1.74463 0.014,0.37393 0.0383,0.53931 0.11544,0.78612 0.24586,0.78684 0.6767,1.35077 1.32706,1.737 0.53761,0.31928 1.07348,0.40724 1.59825,0.26235 z m -11.08071,-10.92334 c 0.18488,-0.0856 0.2663,-0.16959 0.34224,-0.35297 0.16725,-0.40391 -0.0687,-0.85083 -0.5016,-0.94997 -0.4763,-0.10909 -0.94154,0.39733 -0.79597,0.8664 0.12369,0.39857 0.58355,0.6087 0.95533,0.43654 z m -11.777197,12.2622 c -0.53589,-0.0488 -1.16889,-0.28743 -1.56816,-0.59119 -1.00972,-0.76817 -1.43248,-2.31881 -0.97915,-3.59139 0.13507,-0.37916 0.42653,-0.85708 0.71334,-1.16972 0.81825,-0.89192 1.83836,-1.31726 3.30277,-1.37712 0.97624,-0.0401 1.75204,-0.13172 2.10709,-0.24936 0.72941,-0.24168 1.43533,-0.72392 2.79979,-1.91267 0.914562,-0.79678 1.244092,-1.14457 2.917727,-3.07944 0.32952,-0.38096 0.61905,-0.69341 0.64338,-0.69433 0.0537,-0.002 1.4652,2.24018 1.46599,2.32877 4.1e-4,0.0344 -0.14153,0.27288 -0.3152,0.52984 l -0.31577,0.4672 -0.39261,0.0634 c -1.02517,0.16543 -2.515085,0.78389 -3.562655,1.47885 -1.026782,0.68117 -2.098472,1.7351 -2.340852,2.30205 -0.11482,0.26859 -0.22271,0.81999 -0.3337,1.70547 -0.10665,0.85093 -0.18486,1.23134 -0.31785,1.54608 -0.0918,0.2174 -0.095,0.24412 -0.0425,0.3569 0.19776,0.42456 -0.0538,0.94274 -0.45167,0.93054 -0.30536,-0.009 -0.35553,0.008 -0.89244,0.30762 -0.62515,0.34895 -1.01744,0.50319 -1.5244,0.59938 -0.39697,0.0753 -0.54089,0.0831 -0.91311,0.0492 z m 1.0533,-0.96866 c 0.5564,-0.13527 1.07908,-0.44002 1.52302,-0.88801 0.57436,-0.57958 0.86862,-1.29925 0.83895,-2.05179 -0.0361,-0.91631 -0.65596,-1.68557 -1.57205,-1.95105 -0.27015,-0.0783 -0.36582,-0.0865 -0.79931,-0.0689 -0.42279,0.0174 -0.53984,0.0363 -0.82765,0.13483 -0.58293,0.1996 -0.88183,0.39651 -1.31581,0.86685 -0.42768,0.46352 -0.60665,0.76081 -0.73246,1.21675 -0.16738,0.60658 -0.10711,1.16483 0.18587,1.72164 0.45373,0.8623 1.5866,1.29023 2.69944,1.01968 z m 12.018417,-12.23809 c -0.58566,-0.73412 -1.38888,-1.79976 -1.39054,-1.84485 -8.9e-4,-0.0279 0.9169,-1.11847 2.03982,-2.42342 4.97619,-5.78281 7.25742,-8.4215 7.38387,-8.54085 0.0748,-0.0707 0.17811,-0.13005 0.22948,-0.132 0.14155,-0.005 0.12672,0.1526 -0.0465,0.49496 -0.26968,0.53307 -3.55108,5.81737 -6.06773,9.77137 -1.35554,2.12972 -1.76058,2.75472 -1.84902,2.85313 l -0.0832,0.0926 z"
       id="path2" /></g></svg>
