<?xml version="1.0" encoding="UTF-8" standalone="no"?>
<!-- Created with Inkscape (http://www.inkscape.org/) -->

<svg
  width="100.42136mm"
  height="126.5841mm"
  viewBox="0 0 100.42136 126.5841"
  version="1.1"
  id="svg1"
  xml:space="preserve"
  xmlns="http://www.w3.org/2000/svg"
  xmlns:svg="http://www.w3.org/2000/svg"><defs
     id="defs1" /><g
     id="layer1"
     transform="translate(-43.915223,-69.81571)"><path
       style="fill:#000000"
       d="m 109.98003,195.73725 c 0.77612,-0.3601 1.96674,-1.24329 2.64584,-1.96263 1.35749,-1.43795 2.79473,-2.31187 3.77484,-2.29531 0.57051,0.01 0.56335,0.0501 -0.0707,0.39923 -0.9805,0.5399 -2.99861,2.48046 -2.99861,2.88339 0,0.50376 3.40751,-6.6e-4 4.8853,-0.72318 1.62283,-0.79344 3.41809,-4.13911 3.78142,-7.04713 0.31878,-2.55142 -0.51196,-6.57309 -1.95364,-9.45776 l -1.05785,-2.11666 1.22341,1.37484 c 1.41346,1.58843 2.47733,4.19765 2.97727,7.30201 0.19277,1.19697 0.42003,2.24584 0.50502,2.33084 0.085,0.085 0.40793,-0.95956 0.71764,-2.32122 0.70536,-3.10125 0.71702,-6.58527 0.034,-10.15475 -0.68292,-3.56886 -0.68379,-3.56242 0.35132,-2.58998 0.48431,0.45498 0.96252,0.74528 1.06269,0.64511 0.10017,-0.10017 -0.60525,-1.83382 -1.5676,-3.85255 -1.78663,-3.74784 -2.46836,-5.9449 -2.48368,-8.00436 -0.008,-1.03744 0.0629,-1.12065 0.67374,-0.79375 1.19813,0.64123 1.36261,0.39921 0.67424,-0.99212 -0.36935,-0.74652 -0.76843,-2.17527 -0.88683,-3.175 -0.19769,-1.66919 -0.15598,-1.81769 0.51057,-1.81769 1.77526,0 2.43902,-0.83197 0.95993,-1.2032 -0.48507,-0.12174 -0.88194,-0.37367 -0.88194,-0.55984 0,-0.20075 0.35301,-0.17765 0.86749,0.0568 0.69469,0.31652 1.04606,0.27826 1.76389,-0.19208 1.23423,-0.8087 1.19252,-1.83786 -0.0737,-1.81971 -0.56562,0.008 -0.93635,-0.161 -0.88911,-0.40557 0.0446,-0.23071 -0.21915,-0.51474 -0.58604,-0.63119 -0.36689,-0.11645 -1.06908,-0.73878 -1.56042,-1.38296 -1.78776,-2.34387 -4.3904,-2.87333 -7.81882,-1.5906 -1.98615,0.74312 -4.44006,0.80309 -5.99075,0.14643 -0.67859,-0.28737 -0.68196,-0.27185 -0.0882,0.40617 0.33955,0.38773 0.61736,0.8083 0.61736,0.9346 0,0.60846 -3.13665,1.78256 -4.82494,1.80606 -1.71957,0.0239 -1.79355,0.0617 -1.26549,0.64582 0.30847,0.34122 1.17103,0.80322 1.91681,1.02666 1.95173,0.58475 1.41082,0.75724 -0.99532,0.31739 -2.16901,-0.39651 -6.472723,-2.30378 -6.472723,-2.86851 0,-0.18187 -0.153768,-0.33067 -0.341706,-0.33067 -0.187938,0 -0.280573,0.19844 -0.205854,0.44097 0.07472,0.24254 0.22844,0.8653 0.341603,1.38392 0.113163,0.51863 0.610908,1.42445 1.106099,2.01296 0.868103,1.03168 0.87903,1.10254 0.305094,1.97847 -0.750021,1.14468 -0.481377,1.42485 0.903362,0.94213 1.413255,-0.49266 2.524845,-0.14541 1.379155,0.43084 -1.112891,0.55975 -1.242562,1.2224 -0.20021,1.02315 1.17023,-0.22371 1.34489,0.45783 0.93859,3.66242 -0.36972,2.91601 -1.08335,4.47724 -2.454939,5.37068 l -0.87464,0.56974 0.85684,-1.21165 c 1.037999,-1.46784 1.477659,-5.19193 0.673107,-5.70153 -1.326487,-0.84018 -6.206088,0.0646 -9.232718,1.71186 -0.95907,0.52199 -2.614003,1.90583 -3.677623,3.07519 -1.86118,2.04623 -1.91339,2.07656 -1.38909,0.80711 1.33565,-3.2339 3.548123,-5.56536 6.591293,-6.94577 1.00121,-0.45415 1.31281,-0.71838 0.85299,-0.7233 -1.4161,-0.0151 -4.26162,-1.73808 -4.934703,-2.98791 -0.57721,-1.07181 -0.59411,-1.31606 -0.15222,-2.19957 0.2734,-0.54663 0.563383,-1.13777 0.644403,-1.31363 0.0855,-0.18559 -0.917383,-0.2305 -2.390153,-0.10703 -2.71114,0.22729 -3.55535,0.0818 -3.55535,-0.61267 0,-0.52571 1.23507,-1.12242 3.01391,-1.45614 0.87392,-0.16395 1.14981,-0.33585 0.82517,-0.51414 -0.69944,-0.38416 -5.26862,-1.04721 -7.2164,-1.04721 -3.05395,0 -4.72638,-1.72707 -5.2536,-5.42524 l -0.24536,-1.72107 0.95498,0.23969 c 0.82564,0.20722 0.91833,0.15364 0.68438,-0.3956 -0.87239,-2.04805 -1.26287,-4.35892 -1.10048,-6.51271 l 0.17716,-2.34966 -2.09349,-1.99685 c -1.15142,-1.09827 -2.09349,-2.05357 -2.09349,-2.12288 0,-0.0693 0.86615,-0.23424 1.92478,-0.36651 l 1.92479,-0.24048 0.5881,-1.81338 c 0.96047,-2.96157 2.95834,-6.48254 4.7782,-8.42094 0.93761,-0.99868 1.61518,-1.90491 1.50571,-2.01383 -0.10947,-0.10892 -2.13005,-0.18691 -4.49017,-0.17331 -3.16398,0.0182 -5.11583,0.22829 -7.4308,0.79969 -1.72681,0.42623 -3.2062,0.70841 -3.28753,0.62708 -0.21711,-0.2171 3.55649,-1.58657 6.60359,-2.39649 1.71614,-0.45615 4.33513,-0.77136 7.45346,-0.89707 l 4.80763,-0.19381 -0.78137,-1.15141 c -0.71102,-1.04774 -1.20008,-2.11311 -1.72869,-3.76574 -0.2666,-0.8335 -3.2927,-2.30071 -6.52167,-3.16205 -3.77857,-1.00795 -10.4678,-1.01739 -14.16548,-0.02 -1.4552,0.39252 -2.7013,0.66135 -2.7691,0.59739 -0.0678,-0.0639 0.67219,-0.51938 1.64442,-1.01204 2.64836,-1.34203 6.51544,-2.297 10.28295,-2.53938 1.85094,-0.11908 4.00484,-0.4236 4.78645,-0.67672 3.01871,-0.9776 9.40728,-1.59532 13.660143,-1.32083 3.46945,0.22393 4.20101,0.79914 1.01635,0.79914 -2.261973,0 -7.063343,0.76313 -9.571213,1.52125 l -1.5875,0.4799 1.41112,0.61028 c 3.69439,1.59776 9.235103,2.15187 13.348113,1.3349 2.585214,-0.5135 1.439625,0.19676 -1.36677,0.8474 -3.56159,0.82572 -3.65345,0.86795 -2.69271,1.2379 0.45208,0.17408 2.43646,0.65979 4.40972,1.07936 2.851093,0.60622 4.819147,0.76577 9.58498,0.77703 5.62042,0.0133 6.16176,-0.0448 8.61615,-0.92401 3.04659,-1.09138 2.76006,-0.54331 -0.68692,1.31392 l -2.28479,1.23104 1.79565,0.008 c 2.37774,0.0106 6.81431,-1.14905 9.04887,-2.36525 0.98785,-0.53765 2.72227,-1.88946 3.85426,-3.00401 1.13199,-1.11456 2.05816,-1.86347 2.05816,-1.66426 0,0.64429 -1.82271,3.9811 -2.92159,5.34851 -2.17049,2.70088 -6.38467,4.87024 -10.60456,5.45896 l -1.81968,0.25386 1.41111,0.26283 c 2.40915,0.44871 4.4016,0.33153 9.85933,-0.57985 6.0675,-1.0132 7.97516,-1.07354 11.04638,-0.34943 4.40641,1.03892 8.32709,3.64108 10.36188,6.8772 1.22292,1.94495 1.30792,1.61969 0.16575,-0.63428 -2.14984,-4.24251 -5.59114,-7.67091 -9.41696,-9.38169 -2.44933,-1.09525 -1.79328,-1.41953 2.42837,-1.20032 2.84785,0.14787 2.98658,0.12454 1.90187,-0.31993 -1.90446,-0.78037 -5.05433,-1.51655 -6.48879,-1.51655 -0.73535,0 -1.33699,-0.0842 -1.33699,-0.18721 0,-0.34094 5.34454,-7.37275 6.65275,-8.75302 l 1.28475,-1.35551 -1.94028,1.13295 c -1.06715,0.62312 -2.67669,1.74904 -3.57674,2.50204 -0.90005,0.75299 -1.72645,1.36908 -1.83643,1.36908 -0.10999,0 0.0288,-0.6484 0.3084,-1.4409 1.03475,-2.93279 1.32067,-5.77437 0.85651,-8.51241 l -0.43572,-2.5703 -0.47307,1.61454 c -0.2602,0.888 -0.76134,1.87541 -1.11364,2.19424 -0.61366,0.55535 -0.63455,0.48518 -0.49728,-1.67054 0.18018,-2.82969 -0.57506,-5.22698 -2.27085,-7.20813 -1.18749,-1.38731 -2.50786,-2.37464 -2.79356,-2.08894 -0.0717,0.0716 0.0937,0.7592 0.36751,1.52789 0.27378,0.76868 0.50476,2.04348 0.51327,2.83288 0.0168,1.55663 -0.86833,4.94162 -1.37387,5.25405 -0.17197,0.10629 -0.30853,-1.03783 -0.30345,-2.54248 0.006,-1.70398 -0.19462,-3.2014 -0.53131,-3.97046 l -0.54055,-1.23472 -0.0288,1.77797 c -0.0591,3.65289 -1.52661,7.55149 -3.78231,10.04828 -1.19841,1.3265 -3.55646,3.03643 -3.81449,2.76608 -0.0674,-0.0706 0.46474,-1.09679 1.18258,-2.28033 3.22246,-5.31306 3.6786,-11.72977 1.23244,-17.33725 l -0.5779,-1.32476 -0.44686,2.52533 c -1.3849,7.82661 -4.62615,12.66638 -11.04273,16.48881 -3.35369,1.99782 -4.15963,2.02081 -1.27844,0.0365 6.44342,-4.43776 10.44457,-12.41711 9.39685,-18.73985 -0.21511,-1.29819 -0.52685,-2.49607 -0.69275,-2.66197 -0.16698,-0.16699 -0.67011,1.12767 -1.12712,2.90031 -0.45403,1.76107 -0.93188,3.02982 -1.0619,2.81944 -0.1353,-0.21893 -0.73514,0.3872 -1.40272,1.41746 -1.45927,2.25204 -4.24246,4.46398 -8.18891,6.50816 -1.680054,0.87023 -3.165955,1.58224 -3.302,1.58224 -0.136045,0 0.682922,-0.69332 1.819926,-1.5407 1.137004,-0.84739 2.702284,-2.13191 3.478394,-2.85449 l 1.41111,-1.31379 -1.23472,0.75218 c -1.58911,0.96807 -5.911823,3.19291 -6.203616,3.19291 -0.123202,0 0.710514,-0.68795 1.852702,-1.52878 1.467214,-1.0801 2.739454,-2.50374 4.334844,-4.8507 2.99084,-4.39976 3.69384,-5.22756 5.59239,-6.5851 1.80909,-1.29359 1.44086,-1.43015 -1.67749,-0.6221 -4.2424,1.09932 -8.809601,3.72301 -12.496866,7.17902 -2.267806,2.12558 -2.093756,1.45844 0.445143,-1.70623 l 1.273595,-1.5875 -1.058269,0.67403 c -0.582048,0.37072 -1.604875,1.0412 -2.272935,1.48996 -0.66807,0.44877 -1.30307,0.72443 -1.41111,0.6126 -0.27664,-0.28635 3.233146,-3.36266 6.063296,-5.31446 1.308552,-0.90244 2.332216,-1.68776 2.274816,-1.74516 -0.201175,-0.20118 -4.316826,1.18062 -5.888722,1.9771 -2.47393,1.25353 -5.80889,3.73763 -7.200521,5.36344 -0.69638,0.81357 -1.26535,1.2522 -1.26437,0.97474 0.003,-0.8211 2.501931,-3.8752 4.509351,-5.51094 1.02592,-0.83595 1.76251,-1.51992 1.63688,-1.51992 -0.12563,0 -1.20058,0.51594 -2.38879,1.14653 -4.249391,2.25518 -9.194411,7.92668 -11.182751,12.82562 -0.99234,2.44499 -1.25598,2.27895 -0.3876,-0.24413 1.71285,-4.97674 5.08185,-10.14655 8.2704,-12.69112 4.350911,-3.47218 9.275892,-5.07091 15.592123,-5.06145 3.25743,0.005 3.90803,-0.0651 2.82222,-0.30377 -2.09162,-0.45966 -9.893316,-0.083 -12.325532,0.59498 -2.95874,0.82481 -5.892491,2.0545 -8.187581,3.43185 -2.41624,1.45006 -6.32462,5.2482 -7.89606,7.67334 -0.64136,0.98979 -1.22889,1.73684 -1.30562,1.66011 -0.20116,-0.20116 2.62825,-5.74861 3.88692,-7.62085 l 1.06725,-1.5875 -1.16057,1.05833 c -0.63831,0.58209 -2.11244,2.24558 -3.27585,3.69666 -1.96132,2.44628 -2.09572,2.54899 -1.84636,1.41111 l 0.26892,-1.22721 -1.30939,1.56606 c -2.6151,3.1277 -4.06059,7.26304 -4.07064,11.64547 -0.004,1.82042 -0.0934,2.18721 -0.44618,1.83428 -0.73892,-0.7392 -0.51193,-6.4907 0.38206,-9.68058 0.92884,-3.31424 2.79328,-7.14346 4.7594,-9.77495 l 1.44968,-1.94028 -1.48294,1.1725 c -2.33057,1.84267 -4.55958,4.59399 -6.05233,7.47056 -1.63098,3.14294 -2.33898,5.45545 -2.97514,9.71758 l -0.47147,3.15881 -0.44221,-1.58191 c -0.24321,-0.87004 -0.37886,-2.5766 -0.30145,-3.79236 0.0774,-1.21575 0.0879,-2.21046 0.0233,-2.21046 -0.27158,0 -1.61323,3.53392 -2.20987,5.82084 -0.61744,2.36664 -0.64785,2.4107 -0.73045,1.05833 -0.0474,-0.77611 -0.0582,-2.28424 -0.024,-3.35139 0.0619,-1.93087 0.0598,-1.93514 -0.44862,-0.88194 l -0.51084,1.05833 0.19922,-1.23472 c 0.10957,-0.6791 0.55789,-2.38566 0.99627,-3.79236 0.43838,-1.40671 0.7323,-2.55764 0.65316,-2.55764 -0.0791,0 -0.61043,0.51593 -1.18063,1.14652 -2.37517,2.62671 -4.592,8.85499 -4.60317,12.93283 -0.004,1.40338 -0.10401,1.81945 -0.34737,1.44287 -0.18809,-0.29104 -0.34441,-2.20691 -0.34738,-4.2575 -0.005,-3.75564 0.56668,-6.70553 1.6203,-8.35431 0.79668,-1.2467 -0.0681,-0.94329 -1.76219,0.61825 -1.76189,1.62406 -3.24715,4.63824 -3.83008,7.77277 -0.45255,2.4335 -0.9424,2.1674 -0.99719,-0.54171 l -0.0357,-1.76389 -0.99372,2.11667 c -0.54655,1.16417 -1.10552,2.75167 -1.24217,3.52778 -0.13665,0.77611 -0.32408,1.21267 -0.41651,0.97014 -0.32406,-0.85028 -0.72724,-0.42732 -1.00884,1.05833 l -0.28419,1.4993 -0.21533,-1.5875 -0.21533,-1.5875 -0.45864,1.41112 c -0.75659,2.32784 -0.90923,10.14293 -0.258,13.20929 0.59158,2.78549 2.23442,7.43005 2.62648,7.42549 0.12856,-0.002 0.5987,-0.64175 1.04475,-1.42279 1.04359,-1.82733 4.94933,-5.95775 6.47521,-6.8477 1.14291,-0.66659 1.12721,-0.62756 -0.4939,1.22713 -1.92281,2.19986 -3.82589,5.65741 -4.64166,8.43302 -0.85861,2.92138 -0.69953,3.6061 0.36003,1.54975 0.50776,-0.98542 1.53801,-2.48587 2.28946,-3.33432 l 1.36626,-1.54265 -1.06293,2.32771 c -2.87569,6.29749 -2.19483,10.52769 3.03215,18.83895 2.68177,4.26419 4.16025,7.26402 5.13663,10.42214 l 0.8133,2.63064 0.25354,-1.94028 c 0.60584,-4.63631 -0.78928,-9.67604 -4.24095,-15.32003 -1.19762,-1.9583 -1.27839,-2.27431 -1.27384,-4.98401 0.004,-2.60637 0.12677,-3.13038 1.23472,-5.28655 1.4384,-2.79925 2.50331,-3.70147 4.65519,-3.94402 2.56501,-0.28911 5.32035,1.52088 6.8137,4.47595 0.55507,1.09836 0.59654,2.03499 0.40619,9.17222 -0.20509,7.68979 -0.73192,12.05548 -1.66526,13.79944 -0.30713,0.57388 -0.30863,0.82812 -0.006,1.01517 0.2901,0.17929 0.30723,0.68809 0.0608,1.80722 -0.83717,3.80265 -1.17019,8.67947 -0.73616,10.78034 0.442,2.13943 1.5616,4.59358 2.79343,6.12316 l 0.71026,0.88195 0.0397,-3.35139 0.0397,-3.35139 0.45714,2.51876 c 0.25142,1.38532 0.64676,3.09335 0.87853,3.79561 0.4449,1.34807 1.04957,1.40468 1.1001,0.103 0.0165,-0.42511 0.23075,0.0555 0.47612,1.06793 0.30276,1.24932 1.33331,3.14521 3.20702,5.89995 2.91431,4.28461 4.09963,5.58747 6.25283,6.87284 l 1.32291,0.78973 v -0.99261 c 0,-0.98396 0.008,-0.98037 0.92918,0.4122 1.93982,2.93277 6.166561,6.58776 8.757441,7.57281 1.058849,0.40257 1.046057,0.4492 0.34019,-1.24017 -0.9216,-2.2057 -1.56334,-6.38302 -1.50699,-9.80956 l 0.0532,-3.23216 0.24884,3.175 c 0.27826,3.55026 0.67913,5.29219 1.989054,8.64306 0.957609,2.44963 3.456543,6.45662 4.737951,7.59721 l 0.778637,0.69307 -0.24583,-1.34218 c -0.401805,-2.19378 -0.280097,-6.42024 0.22018,-7.64629 0.43267,-1.06035 0.46563,-0.8993 0.46058,2.25066 -0.005,3.34314 0.01,3.4055 1.05289,4.26641 1.43533,1.1849 5.05792,3.00235 5.96537,2.99282 0.40557,-0.004 1.3724,-0.30238 2.14851,-0.66248 z m -5.49827,-9.44811 c 0.42614,-1.58257 1.95496,-4.05598 2.85407,-4.61748 0.42457,-0.26515 0.23849,0.25382 -0.57594,1.60632 -0.66173,1.09891 -1.4779,2.87527 -1.81372,3.94747 -0.68621,2.19092 -1.08823,1.38039 -0.46441,-0.93631 z m 2.4074,-24.01292 c -0.30492,-0.33955 -0.54584,-1.01423 -0.53538,-1.4993 0.0105,-0.48507 -0.10521,-1.41388 -0.25704,-2.06401 l -0.27606,-1.18207 1.06394,0.55018 1.06393,0.55019 -0.0248,-1.3084 c -0.0329,-1.73512 0.40371,-3.33055 0.83806,-3.06211 0.1917,0.11848 1.08252,-0.43065 1.9796,-1.22029 1.7599,-1.54913 2.35179,-1.79382 1.97953,-0.81835 -0.16868,0.44199 0.0927,0.34175 0.9202,-0.35288 0.6357,-0.53364 1.58014,-1.06283 2.09876,-1.176 0.51862,-0.11316 1.14312,-0.26755 1.38778,-0.34308 0.24466,-0.0755 0.91318,-0.0437 1.4856,0.0708 0.7977,0.15954 1.13579,0.49609 1.44765,1.44105 0.5643,1.70983 0.25356,4.84556 -0.5704,5.75602 -0.56575,0.62514 -0.58754,0.77917 -0.1486,1.05045 0.44309,0.27384 0.42444,0.48485 -0.13464,1.52299 -0.61587,1.14361 -0.70805,1.18698 -1.80638,0.84989 -1.19468,-0.36666 -5.05997,0.28466 -7.90704,1.33237 -1.71472,0.63101 -1.9587,0.62188 -2.60467,-0.0975 z m 14.33809,-33.55344 c 0.36514,-0.4049 0.94241,-0.82458 1.28281,-0.93262 0.35903,-0.11395 0.77173,-0.79843 0.98282,-1.63007 0.33804,-1.33178 0.31583,-1.41872 -0.31267,-1.22368 -0.37211,0.11547 -0.99406,0.30784 -1.38212,0.42749 -0.4895,0.15092 -0.70556,0.0549 -0.70556,-0.3137 0,-0.29218 -0.32959,-0.906 -0.73243,-1.36406 -0.40284,-0.45806 -0.6177,-0.61192 -0.47748,-0.34192 0.14022,0.27 0.35075,1.75627 0.46785,3.30282 0.21081,2.78429 0.21942,2.80468 0.87678,2.07574 z m -6.44957,-0.99759 c 0.95081,-0.88938 1.72874,-1.75407 1.72874,-1.92155 0,-0.16747 -1.47897,-0.3045 -3.28659,-0.3045 -1.80763,0 -4.17976,-0.16511 -5.2714,-0.36691 -1.94373,-0.35932 -2.04542,-0.33641 -4.91548,1.10715 -1.61188,0.81073 -3.883192,1.8412 -5.047359,2.28994 l -2.116666,0.81589 1.5875,0.0148 c 1.684789,0.0157 6.971165,-1.13261 8.171415,-1.77496 0.55285,-0.29588 1.16848,-0.21934 2.71016,0.33696 4.48112,1.61694 4.50131,1.61632 6.43968,-0.19679 z"
       id="path1" /></g></svg>