<?xml version="1.0" encoding="UTF-8" standalone="no"?>
<!-- Created with Inkscape (http://www.inkscape.org/) -->

<svg
   width="162.28658mm"
   height="116.6009mm"
   viewBox="0 0 162.28658 116.6009"
   version="1.1"
   id="svg1"
   xml:space="preserve"
   xmlns="http://www.w3.org/2000/svg"
   xmlns:svg="http://www.w3.org/2000/svg"><defs
     id="defs1"><filter
       style="color-interpolation-filters:sRGB"
       id="filter21"
       x="-0.022255738"
       y="-0.022913942"
       width="1.0445115"
       height="1.0458279"><feGaussianBlur
         stdDeviation="0.62517915"
         id="feGaussianBlur21" /></filter></defs><g
     id="layer1"
     transform="translate(-23.856375,-118.17999)"><g
       id="g21"
       transform="matrix(1.1508437,0,0,0.85103048,-15.838535,26.290206)"><path
         style="fill:#d99b9b;fill-opacity:1;stroke:#013856;stroke-width:1.5;stroke-linecap:butt;stroke-linejoin:miter;stroke-dasharray:none;stroke-opacity:1"
         d="m 128.98047,230.99156 c 26.3197,-2.2338 40.95696,-21.93364 40.56428,-45.79475 3.37909,-1.78072 5.25508,-4.59381 5.21187,-8.71637 0.0432,-4.12256 -1.83278,-6.93565 -5.21187,-8.71637 0.39268,-23.86111 -14.24458,-43.56095 -40.56428,-45.79475 -5.83021,-11.78135 -14.76323,-13.26818 -23.98081,-13.24431 -9.217579,-0.0239 -18.150608,1.46296 -23.980821,13.24431 -26.319703,2.2338 -40.956951,21.93364 -40.564267,45.79475 -3.379092,1.78072 -5.255085,4.59381 -5.211874,8.71637 -0.04321,4.12256 1.832782,6.93565 5.211874,8.71637 -0.392684,23.86111 14.244564,43.56095 40.564267,45.79475 5.830213,11.78135 14.763242,13.26818 23.980821,13.24431 9.21758,0.0239 18.1506,-1.46296 23.98081,-13.24431 z"
         id="path21" /><path
         style="fill:#0169a7;fill-opacity:1;stroke:#013856;stroke-width:2.64583;stroke-linecap:butt;stroke-linejoin:miter;stroke-dasharray:none;stroke-opacity:1;filter:url(#filter21)"
         d="m 126.80452,226.04538 c 23.93153,-2.03111 37.24064,-19.94345 36.88359,-41.63947 3.07248,-1.61914 4.77825,-4.17698 4.73896,-7.92547 0.0393,-3.74849 -1.66648,-6.30633 -4.73896,-7.92547 0.35705,-21.69602 -12.95206,-39.60836 -36.88359,-41.63947 -5.30119,-10.71234 -13.42366,-12.06426 -21.80486,-12.04256 -8.381203,-0.0217 -16.503674,1.33022 -21.80487,12.04256 -23.931529,2.03111 -37.240635,19.94345 -36.883582,41.63947 -3.072483,1.61914 -4.778254,4.17698 -4.738964,7.92547 -0.03929,3.74849 1.666481,6.30633 4.738964,7.92547 -0.357053,21.69602 12.952053,39.60836 36.883582,41.63947 5.301196,10.71234 13.423667,12.06426 21.80487,12.04256 8.3812,0.0217 16.50367,-1.33022 21.80486,-12.04256 z"
         id="path14" /></g><path
       d="m 55.576405,188.06239 q 0,1.39554 -0.194675,2.71355 -0.194674,1.318 -0.632696,2.59725 -0.421795,1.27924 -1.281612,2.05454 -0.859816,0.7753 -2.044096,0.7753 h -5.32113 v -28.25964 h 5.272464 q 1.103163,0 1.898087,0.7753 0.811146,0.7753 1.200496,2.01577 0.405575,1.20172 0.584029,2.36466 0.17845,1.16295 0.17845,2.28714 0,1.82195 -0.373125,3.17872 -0.373128,1.31801 -1.249172,2.63602 1.96298,2.75231 1.96298,6.86139 z m -7.040762,-15.27338 v 6.39621 h 2.644341 q 1.719633,0 1.719633,-3.17873 0,-3.21748 -1.719633,-3.21748 z m 0,11.24183 v 7.32657 h 2.903909 q 1.800749,0 1.800749,-3.6439 0,-3.68267 -1.800749,-3.68267 z m 15.55779,6.47374 h -4.428867 l -0.794926,5.69845 h -2.482111 l 4.201746,-28.25964 h 2.693013 l 4.088182,28.25964 h -2.498333 z m -0.665136,-4.84562 -1.541184,-11.048 -1.541179,11.048 z m 12.102303,5.69845 q 0,-1.16295 0.01623,-1.82195 0.01623,-0.659 0.01623,-1.16295 0,-1.78319 -0.356904,-2.55849 -0.35691,-0.81406 -1.151835,-0.81406 h -2.790345 v 11.20307 H 68.83053 v -28.25964 h 6.343181 q 0.908482,0 1.557404,0.73653 0.665141,0.73654 0.989599,1.93825 0.340678,1.20171 0.486688,2.44219 0.146008,1.20171 0.146008,2.51972 0,5.11697 -1.995425,6.97769 0.438021,0.42641 0.648915,0.69777 0.210902,0.23259 0.421802,0.81406 0.227122,0.58148 0.292012,1.04666 0.08111,0.46517 0.146004,1.70565 0.08112,1.24048 0.09734,2.44219 0.01623,1.20172 0.03247,3.56638 0,1.62813 0.519138,2.32589 v 1.04666 H 75.90377 q -0.227126,-1.00789 -0.308239,-1.93825 -0.06489,-0.93036 -0.06489,-2.90737 z m 0.38935,-14.96327 q 0,-2.17083 -0.421796,-2.8686 -0.421795,-0.73653 -1.297838,-0.73653 h -2.936354 v 7.36533 h 2.936354 q 0.859817,0 1.281612,-0.73653 0.438022,-0.73653 0.438022,-3.02367 z m 14.097723,11.66825 q 0,1.39554 -0.194675,2.71355 -0.194675,1.318 -0.632696,2.59725 -0.421795,1.27924 -1.281612,2.05454 -0.859817,0.7753 -2.044092,0.7753 h -5.321135 v -28.25964 h 5.272464 q 1.103162,0 1.898088,0.7753 0.811145,0.7753 1.200495,2.01577 0.405576,1.20172 0.584029,2.36466 0.17845,1.16295 0.17845,2.28714 0,1.82195 -0.373125,3.17872 -0.373128,1.31801 -1.249171,2.63602 1.96298,2.75231 1.96298,6.86139 z m -7.040762,-15.27338 v 6.39621 h 2.64434 q 1.719634,0 1.719634,-3.17873 0,-3.21748 -1.719634,-3.21748 z m 0,11.24183 v 7.32657 h 2.903908 q 1.80075,0 1.80075,-3.6439 0,-3.68267 -1.80075,-3.68267 z m 11.420941,0 v 7.32657 h 6.408058 v 4.84562 h -8.841506 v -28.25964 h 8.549506 v 4.84562 h -6.116058 v 6.39621 h 5.661818 v 4.84562 z m 15.054878,7.32657 q 0,-1.16295 0.0163,-1.82195 0.0162,-0.659 0.0162,-1.16295 0,-1.78319 -0.3569,-2.55849 -0.35691,-0.81406 -1.15184,-0.81406 h -2.79034 v 11.20307 h -2.43347 v -28.25964 h 6.34318 q 0.90849,0 1.55741,0.73653 0.66514,0.73654 0.9896,1.93825 0.34068,1.20171 0.48668,2.44219 0.14602,1.20171 0.14602,2.51972 0,5.11697 -1.99544,6.97769 0.43803,0.42641 0.64893,0.69777 0.2109,0.23259 0.4218,0.81406 0.22711,0.58148 0.29201,1.04666 0.081,0.46517 0.14601,1.70565 0.081,1.24048 0.0973,2.44219 0.0163,1.20172 0.0324,3.56638 0,1.62813 0.51914,2.32589 v 1.04666 h -2.6119 q -0.22712,-1.00789 -0.30824,-1.93825 -0.0649,-0.93036 -0.0649,-2.90737 z m 0.38935,-14.96327 q 0,-2.17083 -0.4218,-2.8686 -0.42179,-0.73653 -1.29782,-0.73653 h -2.93637 v 7.36533 h 2.93637 q 0.85982,0 1.28162,-0.73653 0.438,-0.73653 0.438,-3.02367 z m 17.81279,0.15506 h -2.27121 q -0.12979,-4.4192 -2.48211,-4.4192 -0.94094,0 -1.49251,0.96912 -0.55159,0.93036 -0.55159,2.51973 0,1.55059 0.47048,2.32589 0.47045,0.73654 1.76829,1.35678 l 1.84942,0.85282 q 1.63853,0.7753 2.38477,2.63602 0.74627,1.82195 0.74627,5.15574 0,4.30291 -1.28163,6.7451 -1.28161,2.40342 -3.56906,2.40342 -2.2712,0 -3.53659,-2.40342 -1.24917,-2.40343 -1.36273,-6.93893 h 2.36855 q 0.0649,2.28713 0.74627,3.48885 0.68135,1.20171 1.9143,1.20171 1.10317,0 1.73585,-1.00789 0.64892,-1.00789 0.64892,-2.79107 0,-1.70566 -0.50291,-2.63602 -0.5029,-0.93036 -1.71963,-1.47307 l -1.65474,-0.7753 q -1.80075,-0.81406 -2.56322,-2.55848 -0.76249,-1.74443 -0.76249,-5.03944 0,-4.14785 1.16805,-6.39622 1.18428,-2.28713 3.30949,-2.28713 0.61647,0 1.18427,0.19382 0.58402,0.19383 1.23294,0.81407 0.64893,0.58147 1.1194,1.55059 0.47046,0.93036 0.77869,2.63602 0.32446,1.66689 0.32446,3.87649 z m 9.49044,6.82263 h -4.68845 v 12.8312 h -2.43344 v -28.25964 h 2.43344 v 10.58283 h 4.67221 v -10.58283 h 2.44967 v 28.25964 h -2.43343 z m 5.93758,9.57494 q -1.55741,-4.14784 -1.55741,-10.66035 0,-6.51251 1.55741,-10.66036 1.57361,-4.14785 4.12062,-4.14785 2.56323,0 4.13685,4.14785 1.57364,4.10908 1.57364,10.85418 0,6.27992 -1.55741,10.46653 -1.54119,4.14785 -4.13685,4.14785 -2.57945,0 -4.13685,-4.14785 z m 4.13685,-20.50665 q -1.47629,0 -2.36855,2.71355 -0.89226,2.67478 -0.89226,7.13275 0,4.45796 0.89226,7.17151 0.89226,2.67478 2.36855,2.67478 1.46007,0 2.35232,-2.67478 0.90849,-2.67478 0.90849,-7.01646 0,-4.57426 -0.89226,-7.2878 -0.87604,-2.71355 -2.36855,-2.71355 z m 10.07444,13.68402 v 10.07889 h -2.43344 v -28.25964 h 5.22379 q 1.84942,0 2.8228,2.24836 0.98959,2.24837 0.98959,6.51251 0,4.30291 -0.97336,6.8614 -0.97339,2.55848 -2.59569,2.55848 z m 0,-4.84561 h 2.27122 q 1.89809,0 1.89809,-4.22538 0,-2.17084 -0.47048,-3.21749 -0.45423,-1.04665 -1.42761,-1.04665 h -2.27122 z"
       id="text21"
       style="font-weight:600;font-size:29.6851px;line-height:1.25;font-family:FreeSans;-inkscape-font-specification:'FreeSans, Semi-Bold';letter-spacing:0px;word-spacing:0px;fill:#ffffff;stroke-width:0.62694"
       aria-label="BARBER SHOP" /><path
       style="fill:#ffffff;stroke-width:0.447764"
       d="m 119.23106,159.60463 c -0.62546,-0.073 -1.22675,-0.2762 -1.71548,-0.57985 -0.13636,-0.0847 -0.41581,-0.30416 -0.62099,-0.48764 -0.20518,-0.18349 -0.43389,-0.36226 -0.50825,-0.39728 -0.21553,-0.10151 -0.59935,-0.0919 -1.15601,0.0288 -0.38625,0.0838 -0.63263,0.11191 -1.17101,0.13379 -0.61437,0.0251 -0.70839,0.0201 -0.95034,-0.05 -0.86211,-0.24958 -1.6423,-1.02238 -2.01721,-1.99808 -0.22331,-0.5812 -0.3116,-1.45127 -0.2503,-2.46661 0.033,-0.54608 -0.011,-0.82323 -0.18299,-1.15383 -0.34147,-0.65627 -1.73167,-1.8888 -3.04325,-2.69809 -0.5679,-0.35041 -0.79997,-0.44906 -1.32606,-0.56372 -0.35592,-0.0776 -0.4592,-0.0824 -1.29608,-0.0606 -1.04082,0.0271 -0.926,0.0635 -1.19404,-0.37836 -0.13315,-0.21951 -3.38135,-5.50775 -7.869407,-12.81177 -0.79976,-1.30157 -1.51199,-2.47815 -1.58273,-2.61462 -0.19273,-0.37185 -0.19203,-0.83377 0.001,-0.8411 0.10275,-0.004 3.14678,3.63434 6.127707,7.32386 2.43111,3.00902 3.9379,4.94825 5.00613,6.44288 0.21053,0.29457 0.47521,0.63092 0.58817,0.74745 0.11296,0.11652 1.11581,0.98332 2.22855,1.92623 1.11274,0.94291 2.19387,1.86376 2.4025,2.04634 0.23468,0.20536 0.46546,0.37023 0.60516,0.43232 l 0.22582,0.10035 0.98515,-0.0326 c 1.05254,-0.0348 1.5786,-9.8e-4 2.03977,0.13127 1.13846,0.32652 2.12464,1.28926 2.48315,2.4241 0.0884,0.27972 0.0982,0.38538 0.14644,1.56887 0.0458,1.12612 0.0603,1.28999 0.12774,1.45577 0.33197,0.81552 1.1445,1.23555 2.63632,1.36279 0.40314,0.0344 0.64845,0.12788 0.75425,0.28747 0.16074,0.24242 0.0756,0.48675 -0.21643,0.62088 -0.18757,0.0862 -0.89663,0.14313 -1.25755,0.10103 z m -4.43023,-2.1646 c 1.01639,-0.28061 1.68894,-1.45725 1.49906,-2.62263 -0.18431,-1.1312 -0.77242,-1.97108 -1.66326,-2.37532 -0.87978,-0.39922 -1.70819,-0.2317 -2.31354,0.46785 -0.43682,0.50478 -0.59153,0.98422 -0.56301,1.74463 0.014,0.37393 0.0383,0.53931 0.11544,0.78612 0.24586,0.78684 0.6767,1.35077 1.32706,1.737 0.53761,0.31928 1.07348,0.40724 1.59825,0.26235 z m -11.08071,-10.92334 c 0.18488,-0.0856 0.2663,-0.16959 0.34224,-0.35297 0.16725,-0.40391 -0.0687,-0.85083 -0.5016,-0.94997 -0.4763,-0.10909 -0.94154,0.39733 -0.79597,0.8664 0.12369,0.39857 0.58355,0.6087 0.95533,0.43654 z m -11.777197,12.2622 c -0.53589,-0.0488 -1.16889,-0.28743 -1.56816,-0.59119 -1.00972,-0.76817 -1.43248,-2.31881 -0.97915,-3.59139 0.13507,-0.37916 0.42653,-0.85708 0.71334,-1.16972 0.81825,-0.89192 1.83836,-1.31726 3.30277,-1.37712 0.97624,-0.0401 1.75204,-0.13172 2.10709,-0.24936 0.72941,-0.24168 1.43533,-0.72392 2.79979,-1.91267 0.914562,-0.79678 1.244092,-1.14457 2.917727,-3.07944 0.32952,-0.38096 0.61905,-0.69341 0.64338,-0.69433 0.0537,-0.002 1.4652,2.24018 1.46599,2.32877 4.1e-4,0.0344 -0.14153,0.27288 -0.3152,0.52984 l -0.31577,0.4672 -0.39261,0.0634 c -1.02517,0.16543 -2.515085,0.78389 -3.562655,1.47885 -1.026782,0.68117 -2.098472,1.7351 -2.340852,2.30205 -0.11482,0.26859 -0.22271,0.81999 -0.3337,1.70547 -0.10665,0.85093 -0.18486,1.23134 -0.31785,1.54608 -0.0918,0.2174 -0.095,0.24412 -0.0425,0.3569 0.19776,0.42456 -0.0538,0.94274 -0.45167,0.93054 -0.30536,-0.009 -0.35553,0.008 -0.89244,0.30762 -0.62515,0.34895 -1.01744,0.50319 -1.5244,0.59938 -0.39697,0.0753 -0.54089,0.0831 -0.91311,0.0492 z m 1.0533,-0.96866 c 0.5564,-0.13527 1.07908,-0.44002 1.52302,-0.88801 0.57436,-0.57958 0.86862,-1.29925 0.83895,-2.05179 -0.0361,-0.91631 -0.65596,-1.68557 -1.57205,-1.95105 -0.27015,-0.0783 -0.36582,-0.0865 -0.79931,-0.0689 -0.42279,0.0174 -0.53984,0.0363 -0.82765,0.13483 -0.58293,0.1996 -0.88183,0.39651 -1.31581,0.86685 -0.42768,0.46352 -0.60665,0.76081 -0.73246,1.21675 -0.16738,0.60658 -0.10711,1.16483 0.18587,1.72164 0.45373,0.8623 1.5866,1.29023 2.69944,1.01968 z m 12.018417,-12.23809 c -0.58566,-0.73412 -1.38888,-1.79976 -1.39054,-1.84485 -8.9e-4,-0.0279 0.9169,-1.11847 2.03982,-2.42342 4.97619,-5.78281 7.25742,-8.4215 7.38387,-8.54085 0.0748,-0.0707 0.17811,-0.13005 0.22948,-0.132 0.14155,-0.005 0.12672,0.1526 -0.0465,0.49496 -0.26968,0.53307 -3.55108,5.81737 -6.06773,9.77137 -1.35554,2.12972 -1.76058,2.75472 -1.84902,2.85313 l -0.0832,0.0926 z"
       id="path2" /></g></svg>
