<?xml version="1.0" encoding="UTF-8" standalone="no"?>
<!-- Created with Inkscape (http://www.inkscape.org/) -->

<svg
  width="127.88139mm"
  height="160.45248mm"
  viewBox="0 0 127.88139 160.45248"
  version="1.1"
  id="svg1"
  xml:space="preserve"
  xmlns="http://www.w3.org/2000/svg"
  xmlns:svg="http://www.w3.org/2000/svg"><defs
     id="defs1" /><g
     id="layer1"
     transform="translate(-39.567735,-62.304812)"><path
       style="fill:#242424;stroke:none"
       d="m 63.556627,87.998443 h -0.35278 c 0.75821,-8.684354 8.07746,-17.102973 15.16945,-21.519446 V 66.12622 c -8.04799,1.084623 -13.0315,6.613345 -18.69722,11.641667 l 5.29166,-8.819445 c -9.85389,2.838705 -13.38014,14.07721 -13.40555,23.283335 h -0.35278 c -1.37409,-4.887805 -1.27249,-9.123238 -1.05833,-14.111112 h -0.35278 c -2.5503,7.975709 -1.79095,14.517429 -0.70556,22.577785 l -9.525,-1.058344 v 0.35278 c 6.57967,1.522904 8.77935,7.114214 13.76351,10.833764 5.44987,4.0671 14.33263,4.47961 20.80872,3.27735 v -0.35277 c -9.07582,-0.7924 -17.55827,-10.38103 -19.05,-19.050008 5.76505,7.279618 12.82167,14.601318 22.93055,14.816668 v -0.35277 c -3.96113,-2.10868 -7.73842,-4.97617 -10.58333,-8.46667 6.82442,3.88374 13.21426,5.9314 21.16666,5.99722 l -8.11388,-4.23333 v -0.35278 c 4.68425,0.63079 8.95986,1.70814 13.75833,1.37953 9.927883,-0.67987 27.233763,-7.767284 31.397223,6.38158 h 0.35278 c 0,-12.325214 -10.8762,-17.475412 -21.87223,-18.344449 v -0.352777 c 5.33226,5.81e-4 10.8231,1.099933 15.52223,3.709334 2.11206,1.172818 3.80652,3.272848 5.99722,4.223538 3.06704,1.330984 6.98431,1.438564 10.23055,2.352404 2.87597,0.8096 5.34027,2.46373 8.11389,3.47306 v 0.35278 c -6.25829,-1.80217 -11.66693,-4.29936 -18.34444,-4.58611 1.58903,5.82386 2.48993,11.62586 1.05833,17.63889 h -0.35278 c -0.97887,-4.1096 -1.14455,-8.20103 -3.99651,-11.6414 -2.89678,-3.49444 -9.89542,-6.716134 -13.81387,-2.85597 -1.52653,1.50382 -3.29104,7.74214 -3.70906,9.91126 l 4.93889,2.85461 6.70278,0.67316 v 0.35278 c -3.65463,-0.15693 -7.05104,-0.53483 -10.23056,1.76389 5.99045,4.02498 10.92238,6.78372 12.7,14.46389 l 5.29167,1.41111 v 0.70556 c -5.5182,2.62205 -3.92251,7.17444 -5.29167,12.34721 l 1.41111,-1.05833 c 0,3.98885 0.13337,8.8626 -3.52914,11.41138 -1.81508,1.26314 -3.92447,0.82558 -5.99586,0.96742 -2.76877,0.1896 -5.38577,1.01216 -8.11389,1.37953 v 0.35278 c 2.42624,0.0503 4.78716,0.49177 6.35,2.46944 h -7.76111 c 0.82456,3.86271 0.61976,5.29207 -2.469443,8.11389 v 0.35278 c 2.486173,3.4922 3.197403,7.45534 3.527773,11.64167 h -0.35277 c -3.190513,-8.55704 -9.442753,-12.86321 -18.697223,-10.58333 v 0.35277 c 5.37848,3.39232 3.96257,8.08237 3.52777,13.40556 h -0.35277 c -1.03638,-4.35309 -0.22185,-8.83483 -4.93889,-11.28889 0.95218,4.61816 -0.50968,7.68075 -4.58611,10.23056 l 2.82222,-5.29167 c -5.91892,0 -12.07544,-4.4971 -17.63889,-2.46945 l -2.82222,-8.11388 h -0.35278 l -1.31284,10.93611 -4.68438,10.58333 c 1.78232,-0.77105 2.80361,-1.96644 3.175,-3.88055 h 0.35278 c -1.09999,8.16877 -3.3441,15.03163 -0.70556,23.28333 h 0.35278 c 0.0442,-5.34159 2.30187,-9.14608 4.58611,-13.75833 h 0.35278 c -2.65735,6.38271 -6.76805,17.40497 1.07249,22.30802 2.02399,1.26569 4.4138,1.25829 6.68862,1.68087 -0.78047,-2.2958 -2.63561,-3.90199 -4.93889,-4.58612 v -0.35277 c 4.15709,0.87179 5.72572,4.89331 9.525,6.06663 3.67279,1.13425 9.88768,-1.28959 11.32645,-5.00966 0.88556,-2.28969 0.39926,-5.75963 -0.0376,-8.11253 h 0.35278 c 1.32228,4.6943 0.55561,8.34092 0.35278,13.05278 6.55915,-4.83099 9.96941,-16.92606 10.58333,-24.69445 h 0.35278 c 0,6.64856 -2.08414,11.75344 -3.88056,17.99167 6.35326,-2.16334 10.005253,-6.68245 14.111113,-11.64167 l -0.35278,2.11667 c 6.6878,-1.93031 14.11037,-12.26665 14.11111,-19.05 l 1.05833,2.46944 h 0.35278 l 2.11667,-9.17222 h 0.35278 v 7.76111 c 3.68641,-2.46304 4.93889,-7.83979 4.93889,-11.99444 0,-9.24556 -2.82223,-18.26231 -2.82223,-27.51667 0,-3.44074 -0.0162,-6.81927 0.32338,-10.23055 0.12641,-1.27 0.40253,-2.86825 -1.02893,-3.175 1.73528,-5.43619 8.13921,-9.7786 13.40528,-6.11998 3.03468,2.10834 4.83978,6.4572 5.51215,10.00054 0.85127,4.48622 -3.03854,7.60879 -4.76358,11.28888 -0.67618,1.44248 -0.62911,3.09108 -1.13783,4.58611 -0.72137,2.11996 -2.29183,3.81897 -2.86875,5.99722 -0.80135,3.02559 -0.15797,6.4681 0.0833,9.525 h 0.35278 c 2.13387,-5.65616 3.92533,-10.8199 7.41731,-15.875 3.99901,-5.78909 9.60996,-10.86615 10.22158,-18.34443 h 0.70555 c -0.003,4.49333 -1.20048,8.91303 -1.39722,13.40554 -0.46201,10.54982 2.05598,21.89794 7.39445,31.04445 h 0.35277 c -2.72136,-10.51391 -2.11959,-21.49571 -0.20306,-32.10278 1.1814,-6.53847 3.88604,-12.88399 5.34474,-19.40277 2.91874,-13.04361 1.38136,-25.77552 -6.14176,-37.041673 -2.33072,-3.490356 -4.99689,-6.838515 -8.52492,-9.172223 4.82288,8.353076 9.67239,15.100002 10.93611,25.047226 h -0.35277 c -4.26259,-10.184294 -14.79183,-18.581373 -23.98889,-24.129625 -3.30627,-1.994549 -7.08397,-4.466372 -10.93611,-5.150934 v -0.352778 c 11.20793,0.915437 19.59735,8.742113 28.22222,14.816667 -2.57539,-6.792738 -9.78186,-12.789024 -15.52222,-16.88352 -2.41369,-1.721644 -5.17981,-3.654224 -8.11389,-4.283148 v -0.352778 l 7.05555,0.705556 v -0.352778 c -4.29261,-1.485353 -8.18295,-3.518885 -12.69999,-4.427691 -12.85338,-2.586028 -25.36972,0.116563 -37.394443,4.780469 v -0.352778 c 7.32256,-3.422842 13.410323,-7.29162 21.519443,-8.819445 -3.90473,-1.876522 -10.742603,-0.703639 -14.816633,0.229745 -12.85572,2.945309 -27.99872,10.721633 -31.75002,24.464701 M 119.6483,73.181776 v 0.352777 c -10.37146,0 -19.43187,1.376069 -29.280563,4.586112 7.54546,-6.813603 20.118243,-6.172697 29.280563,-4.938889 m 36.68888,36.688894 c -5.06495,-3.87351 -9.00142,-8.89774 -14.46389,-12.454744 -17.42892,-11.349212 -38.44834,-14.976155 -58.561103,-9.77026 3.8894,-3.896684 12.47797,-4.15287 17.638883,-4.646003 16.29588,-1.557075 31.97056,2.978199 44.45,13.669873 4.13652,3.543924 8.74592,8.126264 10.93611,13.201134 M 54.972367,94.230848 l -0.11759,0.235192 0.11759,-0.235192 m 89.370373,11.053712 -0.35278,0.35278 0.35278,-0.35278 m -26.45833,12.34722 v 0.35278 h -1.05834 l 1.05834,-0.35278 m -55.738893,9.87778 c -1.00386,2.51999 -1.8011,2.61874 -4.23333,1.76389 0.14417,3.29853 2.10161,3.95391 3.88055,6.35 h 0.35278 l 0.70556,-8.11389 h -0.70556 m 4.93889,2.82222 c 0.41135,0.92293 0.9052,1.68862 1.56763,2.46482 3.95303,4.63199 7.19187,-0.16949 11.83793,0.25234 4.30037,0.39044 8.24032,2.53759 12.69999,2.57451 l -5.64444,-2.77323 -6.70278,-3.07238 -13.75833,0.55394 m 85.372223,13.05277 -2.22664,4.58611 -1.16531,11.99445 -2.60527,10.58333 h 0.35277 c 2.03889,-2.98228 4.67829,-5.49981 5.46179,-9.17222 0.71677,-3.35961 -0.307,-7.14056 -0.15623,-10.58333 0.0981,-2.24115 1.0984,-5.29071 0.33889,-7.40834 m -4.23334,6.70278 c -4.49519,4.69737 -2.62747,8.74942 -4.23333,14.46389 2.3446,-2.15889 5.43556,-11.38379 4.23333,-14.46389 m -89.605553,9.17222 0.70556,-0.35277 v 0.35277 c -1.91502,1.87402 -3.29021,2.81297 -5.99722,2.82223 0.73176,2.79339 2.81462,3.3087 5.29166,2.11666 l -2.46944,1.76389 c 2.63561,4.62807 6.18439,-2.0108 9.525,-1.69311 4.19538,0.39898 6.66259,4.42772 10.23055,6.13713 3.42066,1.63884 6.68096,0.77539 10.23056,0.49487 v -0.35278 l -2.46945,-0.70555 v -0.35278 c 6.03255,-0.12517 10.15525,-3.69928 11.28889,-9.525 -4.07078,1.86197 -7.8114,5.18676 -12.7,4.23333 v -0.35278 c 2.20372,-0.10094 3.94878,-0.75014 4.93889,-2.82222 -3.82066,1.2006 -5.70118,-0.97909 -9.17222,-1.87385 -1.23229,-0.31766 -2.60487,-0.0323 -3.88055,-0.24281 V 158.554 c 2.00564,-0.16404 4.24003,-0.61659 5.29166,-2.46945 -7.11605,-0.005 -17.77744,-7.34509 -20.81389,3.175 m 0.35278,4.58611 -0.35278,0.35278 0.35278,-0.35278 m -1.41111,22.22501 -0.35278,0.35277 0.35278,-0.35277 m 19.05,0.11758 c 0.27283,0 0.0565,0.17564 -0.11759,0.11761 l 0.11759,-0.11761 m -19.87315,1.17593 -0.11759,0.23519 0.11759,-0.23519 m 19.16759,15.9926 c 2.93441,2.744 4.5526,5.82929 4.58612,9.87778 h -0.35278 z"
       id="path1" /></g></svg>