<?xml version="1.0" encoding="UTF-8" standalone="no"?>
<!-- Created with Inkscape (http://www.inkscape.org/) -->

<svg
  width="118.70668mm"
  height="158.67171mm"
  viewBox="0 0 118.70668 158.67171"
  version="1.1"
  id="svg1"
  xml:space="preserve"
  xmlns="http://www.w3.org/2000/svg"
  xmlns:svg="http://www.w3.org/2000/svg"><defs
     id="defs1" /><g
     id="layer1"
     transform="translate(-39.249425,-64.667532)"><path
       style="fill:#000000"
       d="m 74.919665,222.65977 c -0.850522,-0.38591 -2.179543,-1.42094 -2.953381,-2.30006 -1.513229,-1.71912 -3.620506,-2.98867 -4.922967,-2.9659 -0.741044,0.013 -0.720339,0.06 0.250529,0.56968 1.379794,0.72431 3.704167,2.95626 3.704167,3.55689 0,0.65101 -3.100631,0.24194 -5.641256,-0.74427 -1.668355,-0.64762 -2.09813,-1.02101 -3.097906,-2.69154 -1.623677,-2.713 -2.196949,-4.92913 -2.196949,-8.49287 0,-3.58979 0.835342,-6.74152 2.692231,-10.15774 0.671781,-1.23591 1.146618,-2.32191 1.055195,-2.41333 -0.257574,-0.25758 -2.589446,3.04646 -3.538155,5.01322 -1.121467,2.3249 -1.97316,5.68927 -1.97316,7.79439 0,2.11604 -0.400939,1.7142 -1.265149,-1.268 -0.954572,-3.29402 -0.88758,-9.95738 0.145252,-14.44737 0.421915,-1.83418 0.767119,-3.38752 0.767119,-3.45186 0,-0.0643 -0.492695,0.44416 -1.094878,1.13001 -2.113616,2.40727 -2.104515,1.39981 0.02777,-3.07453 2.431525,-5.10226 3.183772,-7.47503 3.183772,-10.04242 0,-1.75794 -0.04723,-1.86338 -0.682364,-1.52347 -1.511016,0.80868 -1.784309,0.4491 -0.883562,-1.16251 0.469618,-0.84024 0.995634,-2.5468 1.168925,-3.79236 0.316656,-2.27603 0.24087,-2.957 -0.292408,-2.62742 -0.375807,0.23227 -2.485591,-0.50469 -2.485591,-0.86823 0,-0.15401 0.392293,-0.37848 0.871761,-0.49882 0.479469,-0.12034 1.051735,-0.55508 1.271703,-0.96609 0.387755,-0.72453 0.374926,-0.72978 -0.421091,-0.17223 -1.115013,0.78099 -2.488835,0.72305 -3.419742,-0.14422 -0.91691,-0.85423 -1.074432,-2.29444 -0.214876,-1.9646 0.623467,0.23925 2.265023,-0.0862 2.265023,-0.44911 0,-0.50885 3.771667,-4.21832 4.844614,-4.76472 2.174884,-1.10756 3.869971,-1.0793 7.479763,0.12469 3.519274,1.17381 5.080973,1.20489 7.157119,0.14244 0.84779,-0.43385 0.936175,-0.4278 0.752246,0.0515 -0.11463,0.29872 -0.507241,0.70306 -0.872469,0.89852 -0.365228,0.19546 -0.664052,0.47936 -0.664052,0.63089 0,0.15153 0.974025,0.74125 2.164499,1.31051 1.633149,0.78092 2.672123,1.035 4.232347,1.035 1.137317,0 2.068292,0.0945 2.068835,0.20991 0.0021,0.45141 -1.429165,1.46812 -2.709689,1.92481 l -1.34627,0.48014 1.234723,0.0113 c 2.657446,0.0243 7.003946,-1.65255 8.907638,-3.43653 1.08582,-1.01754 1.193539,-0.73886 0.585966,1.51592 -0.209131,0.77612 -0.825766,1.97537 -1.3703,2.66501 -0.89889,1.13843 -0.946061,1.33335 -0.51224,2.11667 0.43687,0.78882 0.674356,2.09749 0.380636,2.09749 -0.0672,0 -0.611357,-0.24403 -1.209228,-0.54229 -0.651309,-0.32491 -1.450778,-0.45099 -1.994478,-0.31453 -1.036145,0.26006 -1.225895,0.85682 -0.272439,0.85682 0.65433,0 1.481667,0.63035 1.481667,1.12889 0,0.15522 -0.466881,0.28222 -1.037514,0.28222 -0.570632,0 -1.123959,0.13987 -1.229615,0.31083 -0.424889,0.68748 0.455178,7.0314 1.16975,8.43208 0.699029,1.37021 2.861268,3.32808 2.861268,2.59082 0,-0.19579 -0.175281,-0.46431 -0.389512,-0.59671 -0.849461,-0.52499 -1.711799,-3.19114 -1.719407,-5.31601 -0.007,-1.94884 0.07108,-2.18484 0.786002,-2.37643 3.467423,-0.92924 10.591063,1.1287 14.197603,4.10151 0.73723,0.60769 1.95201,2.05115 2.69953,3.2077 1.69913,2.62889 1.76266,1.83653 0.11656,-1.45382 -1.57198,-3.14221 -4.93028,-6.40471 -7.62908,-7.41145 l -1.86082,-0.69415 1.22109,-0.26426 c 1.89834,-0.41083 4.3873,-1.79569 5.40847,-3.00928 1.11668,-1.32709 1.17483,-2.57952 0.19442,-4.18767 l -0.73083,-1.1988 3.46618,0.22908 c 3.60162,0.23802 4.60798,0.003 4.2281,-0.98682 -0.32583,-0.84911 -2.4085,-1.60205 -4.54295,-1.6424 l -1.86341,-0.0352 2.11666,-0.68765 c 1.16417,-0.3782 3.86292,-0.84966 5.99723,-1.04769 5.03291,-0.46696 6.169,-0.78119 7.37479,-2.03976 0.98778,-1.03103 1.95642,-4.03866 1.96831,-6.11161 0.005,-0.88765 -0.0783,-0.94455 -1.08836,-0.74254 l -1.09388,0.21877 0.56304,-1.08879 c 0.79893,-1.54497 1.33561,-5.84073 1.0689,-8.55592 l -0.22694,-2.31036 2.69993,-2.52144 2.69994,-2.52144 -1.16203,-0.1918 c -0.63912,-0.1055 -1.71706,-0.23306 -2.39542,-0.28348 -1.1987,-0.0891 -1.25912,-0.16608 -2.14886,-2.73751 -1.60144,-4.62833 -4.23511,-8.94714 -6.86326,-11.25469 -0.71163,-0.62482 -1.21256,-1.21734 -1.11319,-1.31671 0.0994,-0.0994 1.2242,-0.35942 2.49963,-0.5779 1.75701,-0.30096 3.15413,-0.29267 5.7654,0.0342 3.08724,0.38644 8.30295,1.37915 10.67838,2.03243 1.76326,0.48493 0.18714,-0.50371 -2.29305,-1.43834 -5.13207,-1.93395 -9.44608,-2.7384 -15.65083,-2.91846 -3.17519,-0.0921 -5.62816,-0.26752 -5.45106,-0.38972 0.78411,-0.54106 2.02208,-2.74795 2.56855,-4.57887 0.58779,-1.96939 0.62638,-2.00908 3.21414,-3.30566 4.4015,-2.20534 7.98981,-2.90453 14.79003,-2.88185 5.0381,0.0168 6.25964,0.13674 9.08403,0.89191 1.79476,0.47988 3.26319,0.83957 3.26319,0.79932 0,-0.33433 -3.31007,-1.86526 -6.47061,-2.99268 -5.16337,-1.84188 -8.07025,-2.34307 -16.15454,-2.78532 -7.51527,-0.41111 -11.75475,-0.91552 -13.8435,-1.647101 -1.59154,-0.55744 -2.10263,-0.60327 -1.83129,-0.16423 0.27856,0.45072 6.02894,2.685881 8.25417,3.208381 2.92519,0.68685 1.73929,1.13005 -3.52941,1.319 -3.89428,0.13966 -5.32696,0.0392 -8.34693,-0.58557 -2.00515,-0.4148 -4.42609,-1.05069 -5.37986,-1.41309 -0.953774,-0.36241 -1.734135,-0.53645 -1.734135,-0.38676 0,0.41962 6.937765,3.75666 9.640825,4.6372 3.195,1.04079 2.51569,1.3997 -3.06447,1.61912 -3.83174,0.15068 -5.06431,0.0298 -11.691633,-1.14691 -5.954302,-1.05718 -8.273828,-1.31454 -11.818055,-1.31127 -9.095158,0.008 -18.38647,3.1112 -23.821052,7.95496 -1.062449,0.94695 -1.931725,1.60462 -1.931725,1.46151 0,-0.56906 3.021785,-4.12661 5.586236,-6.57667 2.965599,-2.83331 5.899902,-4.77206 9.314506,-6.15425 1.214939,-0.4918 2.288354,-0.97973 2.385368,-1.0843 0.09701,-0.10456 -0.776111,-0.0991 -1.940277,0.0121 l -2.116667,0.20216 2.469444,-1.20366 c 5.905268,-2.878351 12.164347,-4.092716 17.35332,-3.366811 1.656227,0.23169 3.083668,0.34891 3.172092,0.26049 0.289521,-0.28952 -3.692643,-1.613115 -5.960413,-1.981125 -3.007844,-0.48811 -7.971133,-0.42686 -11.389999,0.14055 -1.552222,0.25761 -2.867511,0.4288 -2.922865,0.38043 -0.05535,-0.0484 1.513871,-0.66785 3.487166,-1.37662 5.518279,-1.982048 11.337462,-3.037366 16.748495,-3.037366 2.877835,0 4.401401,-0.122747 4.186834,-0.337314 -1.237064,-1.237064 -10.651028,-4.07787 -16.369539,-4.939756 -1.44706,-0.218099 -2.677492,-0.443016 -2.734292,-0.499816 -0.192006,-0.192006 9.227214,-1.299645 11.715312,-1.377644 l 2.469444,-0.07741 -1.887938,-0.608995 C 76.808871,81.688019 70.260584,81.598129 63.051783,82.989284 55.511024,84.4445 49.303289,87.435725 45.099196,91.639818 c -0.906839,0.906839 -1.706431,1.589615 -1.776872,1.51728 -0.241838,-0.24834 2.442343,-3.975477 4.336229,-6.021101 6.109599,-6.599096 13.752688,-10.24435 23.862407,-11.380809 l 3.533994,-0.397265 -1.763889,-0.596671 c -2.370509,-0.801948 -6.456272,-1.345531 -8.535226,-1.135627 l -1.695326,0.17117 1.763889,-0.521201 c 2.308459,-0.682113 8.488551,-0.687492 12.027032,-0.01047 1.507268,0.288388 2.820605,0.444224 2.918527,0.346302 0.304425,-0.304425 -2.51871,-2.998179 -4.157111,-3.966594 -0.857325,-0.506742 -1.404596,-0.972742 -1.216157,-1.035555 0.188439,-0.06281 1.853105,0.268962 3.699258,0.737277 5.678477,1.440464 11.37105,4.687283 16.151512,9.212186 2.81888,2.66818 2.8054,2.127123 -0.0378,-1.516876 l -1.73627,-2.225307 1.16855,0.599222 c 0.6427,0.329573 1.80355,1.026133 2.57966,1.547911 2.59348,1.743593 2.48976,1.489289 -0.61615,-1.510785 -1.69707,-1.639245 -4.139374,-3.667014 -5.427334,-4.506153 -1.287961,-0.839139 -2.16478,-1.584697 -1.948488,-1.656794 0.635033,-0.211678 4.254282,0.954673 6.562422,2.114827 3.54553,1.782117 5.882727,3.480694 8.624957,6.268272 2.39321,2.432789 2.54955,2.535588 1.88787,1.241336 -1.05541,-2.064388 -3.32617,-4.720585 -5.551347,-6.493609 -1.07315,-0.855096 -1.88608,-1.619832 -1.8065,-1.699413 0.20692,-0.20692 3.635677,1.567272 5.502217,2.847097 3.90799,2.679573 8.41979,8.375002 11.15063,14.075891 0.91763,1.915641 1.16891,2.248529 0.99957,1.324202 -0.48927,-2.670724 -3.36194,-8.475219 -5.93609,-11.994445 -5.78424,-7.907845 -14.845967,-12.021844 -25.436201,-11.547954 -2.846835,0.127389 -3.645619,0.07735 -2.998611,-0.187833 0.485069,-0.198814 2.866319,-0.433103 5.291666,-0.520643 3.759759,-0.135704 5.033687,-0.02845 8.643059,0.727657 9.504367,1.991024 16.342397,6.293864 21.825347,13.733634 1.10821,1.503715 2.07772,2.734028 2.15447,2.734028 0.312,0 -2.47599,-5.623445 -3.84781,-7.761112 -0.80935,-1.26118 -1.60617,-2.53118 -1.77073,-2.822222 -0.82299,-1.455609 5.13529,4.883679 6.96816,7.413735 0.69691,0.961996 0.69438,1.046708 0.0449,-1.504707 -0.31179,-1.22478 2.08894,1.582463 3.54933,4.150349 1.89264,3.327928 2.66722,6.184046 2.89826,10.686765 0.11257,2.194058 0.3364,3.85748 0.49738,3.6965 0.16099,-0.16099 0.44243,-1.349995 0.62544,-2.642239 0.91293,-6.446469 -1.9763,-15.750887 -6.92965,-22.31608 -2.47039,-3.274276 1.96858,0.332149 4.74163,3.852314 3.69939,4.696081 6.22503,11.452367 6.77789,18.131392 l 0.25247,3.050023 0.63312,-2.065125 c 0.4502,-1.468469 0.59657,-2.86994 0.50662,-4.850695 -0.0696,-1.532061 -0.0757,-2.785565 -0.0136,-2.785565 0.3689,0 2.20053,4.842824 2.72063,7.193307 0.79106,3.575024 1.38147,2.852654 1.15742,-1.416108 -0.0853,-1.625237 -0.0358,-2.954976 0.1099,-2.954976 0.14575,0 0.336,0.277812 0.42277,0.617361 0.0868,0.339548 0.0953,-0.114311 0.019,-1.008576 -0.0763,-0.894266 -0.60247,-2.997703 -1.1692,-4.674306 -0.56673,-1.676603 -0.92142,-3.039289 -0.7882,-3.028191 0.13322,0.0111 0.92651,0.844535 1.76286,1.852083 3.03795,3.659766 5.17635,9.588543 5.59753,15.519267 0.33414,4.705051 0.90663,3.227831 0.95462,-2.463206 0.0443,-5.260563 -0.35181,-7.58583 -1.77704,-10.430405 -0.46177,-0.921632 -0.69096,-1.675694 -0.5093,-1.675694 0.70456,0 4.16774,3.550678 5.0445,5.171948 0.92954,1.718879 2.13201,5.442598 2.60185,8.057217 0.23359,1.29993 0.27448,1.34162 0.51897,0.52916 0.14596,-0.48506 0.28122,-1.724746 0.30056,-2.754836 0.02,-1.062744 0.17776,-1.784776 0.36482,-1.66917 0.53467,0.330446 2.49257,5.719916 2.49257,6.861256 0,0.576891 0.15875,1.147011 0.35277,1.266921 0.19403,0.11992 0.35278,-0.10884 0.35278,-0.50835 0,-1.228481 0.61331,-0.803791 0.86149,0.59655 0.47171,2.66156 0.72217,2.78395 0.9024,0.44097 l 0.17639,-2.293061 0.70555,2.645841 c 0.5783,2.16861 0.70527,3.75933 0.70395,8.81944 -10e-4,5.66549 -0.0811,6.45265 -0.96776,9.56394 -0.53139,1.86468 -1.36644,4.29543 -1.85567,5.40166 l -0.88951,2.01132 -1.74266,-2.6055 c -2.21312,-3.30888 -8.83029,-9.70124 -8.83029,-8.53029 0,0.12183 0.83554,1.14482 1.85677,2.2733 3.08315,3.407 5.8042,9.05728 6.4627,13.41985 l 0.23739,1.57267 -1.12882,-2.11667 c -1.12137,-2.10268 -4.62659,-6.97599 -4.85403,-6.74855 -0.0654,0.0654 0.44142,1.29862 1.12619,2.74056 3.07864,6.48272 2.84634,13.02744 -0.66816,18.82466 -0.82339,1.35819 -2.66725,4.37444 -4.09747,6.70277 -2.90898,4.7357 -4.97254,9.21483 -5.65323,12.27081 -0.66046,2.96519 -1.13248,2.01203 -1.12859,-2.279 0.005,-5.91086 1.3613,-10.39966 4.82881,-15.98555 2.31952,-3.73658 2.79504,-6.33701 1.91664,-10.48125 -1.34216,-6.33223 -5.85528,-9.77306 -10.35351,-7.89357 -1.64499,0.68732 -4.32124,3.22167 -5.22708,4.94993 -1.83292,3.49706 -0.77605,23.82484 1.50824,29.00933 0.50884,1.15489 0.54183,1.43503 0.1513,1.28517 -0.63593,-0.24403 -0.62778,0.13628 0.0769,3.58802 0.36486,1.78709 0.59127,4.76311 0.6173,8.11389 0.0409,5.25774 0.0339,5.30693 -1.08596,7.67095 -0.61989,1.3086 -1.57239,2.9642 -2.11667,3.6791 l -0.98959,1.29982 -0.17639,-4.20826 -0.17639,-4.20827 -0.5959,3.52778 c -0.32775,1.94027 -0.87428,4.16277 -1.21452,4.93888 l -0.61862,1.41112 -0.34701,-1.32292 c -0.49347,-1.88135 -0.92672,-1.63651 -0.93636,0.52917 -0.009,2.124 -0.46854,3.02221 -4.57787,8.95668 -2.91575,4.21077 -4.99191,6.3601 -7.42363,7.68526 l -1.60279,0.87343 0.14208,-1.21706 c 0.18853,-1.61486 -0.11126,-1.53516 -1.0348,0.27512 -0.98187,1.92463 -4.53506,5.63219 -7.014187,7.31894 -1.78585,1.21505 -4.68319,2.83054 -5.07651,2.83054 -0.0911,0 0.20301,-0.91281 0.6537,-2.02847 1.15166,-2.8509 1.96189,-8.05416 1.90487,-12.233 l -0.0485,-3.55381 -0.30359,3.52778 c -0.65461,7.60688 -3.62046,14.72895 -8.226815,19.75556 l -1.293133,1.41111 0.209328,-1.05833 c 0.11513,-0.58209 0.303922,-2.5037 0.419536,-4.27024 0.209656,-3.20346 -0.391744,-6.39978 -1.38696,-7.37143 -0.245519,-0.2397 -0.272443,-0.12663 -0.084,0.35278 0.453217,1.15301 0.625469,6.6288 0.239761,7.62187 -0.426499,1.0981 -4.394782,4.01417 -6.448797,4.73887 -1.963033,0.6926 -3.360786,0.63856 -5.212247,-0.20149 z m 7.345866,-10.50813 c -0.483528,-3.05879 -2.472638,-6.5411 -4.292688,-7.51516 -0.630515,-0.33744 -0.60899,-0.24049 0.177552,0.79974 1.209786,1.59999 2.928936,5.08261 3.414183,6.91638 0.540106,2.04109 1.033034,1.89977 0.700953,-0.20096 z m -3.019276,-31.91879 c 0.583633,-0.78457 0.638359,-1.04641 0.266708,-1.2761 -0.382342,-0.2363 -0.365051,-0.4873 0.09484,-1.37662 0.309339,-0.5982 0.562435,-1.50391 0.562435,-2.0127 v -0.92507 l -0.92952,0.73116 c -1.400582,1.1017 -1.737782,0.93717 -1.601112,-0.78123 0.148317,-1.86485 -0.391408,-3.99 -0.979414,-3.8564 -0.240291,0.0546 -1.042911,-0.44825 -1.783601,-1.11742 -1.695989,-1.53222 -2.919428,-2.21206 -3.085302,-1.71444 -0.06732,0.20195 -1.027406,-0.1782 -2.133529,-0.84478 -1.821739,-1.09784 -2.226398,-1.20241 -4.296978,-1.11035 -2.19028,0.0974 -2.300704,0.14586 -2.641251,1.15995 -0.195473,0.58208 -0.496921,1.15968 -0.669885,1.28355 -0.60868,0.4359 0.135054,4.99353 1.042646,6.38937 0.674858,1.0379 0.745094,1.32291 0.326007,1.32291 -0.72434,0 -0.671782,0.54104 0.203918,2.09914 0.727608,1.2946 0.757528,1.30806 2.106897,0.94789 1.559818,-0.41634 6.176717,0.31957 9.520192,1.51747 2.420491,0.86722 3.080881,0.79512 3.996952,-0.43633 z M 61.412146,139.01712 c -0.324519,-0.49731 -1.068278,-1.1023 -1.652798,-1.34441 -1.091181,-0.45199 -1.814113,-1.82041 -1.814113,-3.4339 0,-0.81481 0.02924,-0.82324 1.040815,-0.30013 1.575351,0.81464 1.97492,0.67121 2.606046,-0.93548 0.318387,-0.81053 0.634417,-1.40585 0.702289,-1.32291 0.06787,0.0829 0.02989,1.97108 -0.0844,4.1959 -0.202306,3.9381 -0.223416,4.0212 -0.797839,3.14093 z m 8.972713,-0.30226 c -0.870825,-0.52958 -2.672993,-2.52423 -3.350892,-3.70879 -0.129563,-0.2264 1.334211,-0.36102 4.08594,-0.37578 2.358305,-0.0127 5.335706,-0.22459 6.616445,-0.47098 l 2.328618,-0.44799 4.37416,2.14332 c 2.405788,1.17883 5.247285,2.46379 6.314438,2.85548 l 1.940275,0.71215 -2.998609,-0.15264 c -1.984258,-0.101 -4.229067,-0.52719 -6.636063,-1.25989 l -3.637452,-1.10726 -3.241714,1.04739 c -4.467855,1.44356 -4.641604,1.4665 -5.795146,0.76499 z M 39.249432,118.74889 c 0.0025,-6.21479 1.388994,-12.28208 3.712776,-16.24731 2.991423,-5.104481 9.144818,-9.82765 15.974191,-12.261324 3.573305,-1.273361 3.838428,-1.137844 0.949114,0.485139 -6.34441,3.563777 -12.418304,10.079555 -15.96208,17.123325 -1.398435,2.77959 -3.077242,7.7741 -3.788905,11.27213 -0.314651,1.5466 -0.642838,2.88275 -0.729304,2.96921 -0.08647,0.0865 -0.156572,-1.41706 -0.155792,-3.34117 z m 3.544504,-0.40352 c -0.02707,-0.64592 1.503993,-4.57673 2.718753,-6.98003 1.661599,-3.28734 4.01184,-6.23133 6.419357,-8.04109 2.278112,-1.71249 3.745007,-2.27649 2.058203,-0.79135 -3.335596,2.93681 -7.157607,8.15775 -9.666586,13.20474 -0.83137,1.67236 -1.519747,2.84584 -1.529727,2.60773 z"
       id="path1" /></g></svg>